<svg width="22" height="18" viewBox="0 0 22 18" fill="none" xmlns="http://www.w3.org/2000/svg">
<path fill-rule="evenodd" clip-rule="evenodd" d="M10.806 1C10.806 0.585786 11.1418 0.25 11.556 0.25H13C13.9662 0.25 14.75 1.03379 14.75 2V11C14.75 11.4142 14.4142 11.75 14 11.75H1C0.585786 11.75 0.25 11.4142 0.25 11C0.25 10.5858 0.585786 10.25 1 10.25H13.25V2C13.25 1.86221 13.1378 1.75 13 1.75H11.556C11.1418 1.75 10.806 1.41421 10.806 1Z" fill="#35A7FF"/>
<path fill-rule="evenodd" clip-rule="evenodd" d="M7.5 3.25C7.91421 3.25 8.25 3.58579 8.25 4V8C8.25 8.41421 7.91421 8.75 7.5 8.75C7.08579 8.75 6.75 8.41421 6.75 8V4C6.75 3.58579 7.08579 3.25 7.5 3.25Z" fill="#35A7FF"/>
<path fill-rule="evenodd" clip-rule="evenodd" d="M4.75 6C4.75 5.58579 5.08579 5.25 5.5 5.25H9.5C9.91421 5.25 10.25 5.58579 10.25 6C10.25 6.41421 9.91421 6.75 9.5 6.75H5.5C5.08579 6.75 4.75 6.41421 4.75 6Z" fill="#35A7FF"/>
<path fill-rule="evenodd" clip-rule="evenodd" d="M17.1737 14.8262C16.848 14.5005 16.32 14.5005 15.9943 14.8262C15.6686 15.1519 15.6686 15.68 15.9943 16.0057C16.32 16.3314 16.848 16.3314 17.1737 16.0057C17.4994 15.68 17.4994 15.1519 17.1737 14.8262ZM18.2344 13.7656C17.3229 12.8541 15.8451 12.8541 14.9336 13.7656C14.0221 14.6771 14.0221 16.1549 14.9336 17.0664C15.8451 17.9778 17.3229 17.9778 18.2344 17.0664C19.1459 16.1549 19.1459 14.6771 18.2344 13.7656Z" fill="#35A7FF"/>
<path fill-rule="evenodd" clip-rule="evenodd" d="M6.17372 14.8262C5.84803 14.5005 5.31997 14.5005 4.99427 14.8262C4.66858 15.1519 4.66858 15.68 4.99427 16.0057C5.31997 16.3314 5.84803 16.3314 6.17372 16.0057C6.49942 15.68 6.49942 15.1519 6.17372 14.8262ZM7.23438 13.7656C6.3229 12.8541 4.8451 12.8541 3.93361 13.7656C3.02213 14.6771 3.02213 16.1549 3.93361 17.0664C4.8451 17.9778 6.3229 17.9778 7.23438 17.0664C8.14587 16.1549 8.14587 14.6771 7.23438 13.7656Z" fill="#35A7FF"/>
<path fill-rule="evenodd" clip-rule="evenodd" d="M2 1.75C1.86221 1.75 1.75 1.86221 1.75 2V14.416C1.75 14.5538 1.86221 14.666 2 14.666H4C4.41421 14.666 4.75 15.0018 4.75 15.416C4.75 15.8302 4.41421 16.166 4 16.166H2C1.03379 16.166 0.25 15.3822 0.25 14.416V2C0.25 1.03379 1.03379 0.25 2 0.25H11.5C11.9142 0.25 12.25 0.585786 12.25 1C12.25 1.41421 11.9142 1.75 11.5 1.75H2Z" fill="#35A7FF"/>
<path fill-rule="evenodd" clip-rule="evenodd" d="M16.25 6C16.25 5.58579 16.5858 5.25 17 5.25H20.2C20.6142 5.25 20.95 5.58579 20.95 6C20.95 6.41421 20.6142 6.75 20.2 6.75H17.75V9.25H21C21.4142 9.25 21.75 9.58579 21.75 10C21.75 10.4142 21.4142 10.75 21 10.75H17C16.5858 10.75 16.25 10.4142 16.25 10V6Z" fill="#35A7FF"/>
<path fill-rule="evenodd" clip-rule="evenodd" d="M13.25 3C13.25 2.58579 13.5858 2.25 14 2.25H18.323C19.038 2.25 19.6826 2.68514 19.9476 3.35115C19.9478 3.35145 19.9475 3.35086 19.9476 3.35115L21.5538 7.36548C21.6824 7.68855 21.75 8.03465 21.75 8.385V14.333C21.75 15.2992 20.9662 16.083 20 16.083H18.169C17.7548 16.083 17.419 15.7472 17.419 15.333C17.419 14.9188 17.7548 14.583 18.169 14.583H20C20.1378 14.583 20.25 14.4708 20.25 14.333V8.385C20.25 8.22749 20.2196 8.06972 20.1604 7.92092C20.1603 7.92078 20.1604 7.92105 20.1604 7.92092L18.5547 3.9076L18.554 3.90596C18.5169 3.81248 18.4257 3.75 18.323 3.75H14C13.5858 3.75 13.25 3.41421 13.25 3Z" fill="#35A7FF"/>
<path fill-rule="evenodd" clip-rule="evenodd" d="M6.42004 15.42C6.42004 15.0058 6.75583 14.67 7.17004 14.67H15C15.4143 14.67 15.75 15.0058 15.75 15.42C15.75 15.8342 15.4143 16.17 15 16.17H7.17004C6.75583 16.17 6.42004 15.8342 6.42004 15.42Z" fill="#35A7FF"/>
</svg>
