<svg width="20" height="18" viewBox="0 0 20 18" fill="none" xmlns="http://www.w3.org/2000/svg">
<path fill-rule="evenodd" clip-rule="evenodd" d="M0.916656 4.83333C0.916656 3.95912 1.62578 3.25 2.49999 3.25H5.83332C6.24754 3.25 6.58332 3.58579 6.58332 4V16.5C6.58332 16.9142 6.24754 17.25 5.83332 17.25C5.41911 17.25 5.08332 16.9142 5.08332 16.5V4.75H2.49999C2.4542 4.75 2.41666 4.78755 2.41666 4.83333V16.5C2.41666 16.9142 2.08087 17.25 1.66666 17.25C1.25244 17.25 0.916656 16.9142 0.916656 16.5V4.83333Z" fill="#35A7FF"/>
<path fill-rule="evenodd" clip-rule="evenodd" d="M13.4167 4C13.4167 3.58579 13.7524 3.25 14.1667 3.25H17.5C18.3742 3.25 19.0833 3.95912 19.0833 4.83333V16.5C19.0833 16.9142 18.7475 17.25 18.3333 17.25C17.9191 17.25 17.5833 16.9142 17.5833 16.5V4.83333C17.5833 4.78755 17.5458 4.75 17.5 4.75H14.9167V16.5C14.9167 16.9142 14.5809 17.25 14.1667 17.25C13.7524 17.25 13.4167 16.9142 13.4167 16.5V4Z" fill="#35A7FF"/>
<path fill-rule="evenodd" clip-rule="evenodd" d="M8 12.3326C8 11.9184 8.33579 11.5826 8.75 11.5826H11.25C11.6642 11.5826 12 11.9184 12 12.3326V16.5C12 16.9142 11.6642 17.25 11.25 17.25H8.75C8.33579 17.25 8 16.9142 8 16.5V12.3326ZM9.5 13.0826V15.75H10.5V13.0826H9.5Z" fill="#35A7FF"/>
<path fill-rule="evenodd" clip-rule="evenodd" d="M13.4167 16.5C13.4167 16.0858 13.7524 15.75 14.1667 15.75H19.1667C19.5809 15.75 19.9167 16.0858 19.9167 16.5C19.9167 16.9142 19.5809 17.25 19.1667 17.25H14.1667C13.7524 17.25 13.4167 16.9142 13.4167 16.5Z" fill="#35A7FF"/>
<path fill-rule="evenodd" clip-rule="evenodd" d="M0.0833282 16.5C0.0833282 16.0858 0.419115 15.75 0.833328 15.75H5.83333C6.24754 15.75 6.58333 16.0858 6.58333 16.5C6.58333 16.9142 6.24754 17.25 5.83333 17.25H0.833328C0.419115 17.25 0.0833282 16.9142 0.0833282 16.5Z" fill="#35A7FF"/>
<path fill-rule="evenodd" clip-rule="evenodd" d="M5.08333 2.36667C5.08333 1.50215 5.76496 0.75 6.66666 0.75H13.3333C14.235 0.75 14.9167 1.50215 14.9167 2.36667V16.5C14.9167 16.9142 14.5809 17.25 14.1667 17.25H5.83333C5.41911 17.25 5.08333 16.9142 5.08333 16.5V2.36667ZM6.61813 2.27378C6.59894 2.29374 6.58333 2.32516 6.58333 2.36667V15.75H13.4167V2.36667C13.4167 2.32516 13.401 2.29374 13.3819 2.27378C13.3632 2.25432 13.3463 2.25 13.3333 2.25H6.66666C6.65369 2.25 6.63684 2.25432 6.61813 2.27378Z" fill="#35A7FF"/>
<path fill-rule="evenodd" clip-rule="evenodd" d="M7.58238 5.6676C7.58238 5.25339 7.91817 4.9176 8.33238 4.9176H11.6676C12.0818 4.9176 12.4176 5.25339 12.4176 5.6676C12.4176 6.08182 12.0818 6.4176 11.6676 6.4176H8.33238C7.91817 6.4176 7.58238 6.08182 7.58238 5.6676Z" fill="#35A7FF"/>
<path fill-rule="evenodd" clip-rule="evenodd" d="M10 3.25C10.4142 3.25 10.75 3.58579 10.75 4V7.33522C10.75 7.74943 10.4142 8.08522 10 8.08522C9.5858 8.08522 9.25002 7.74943 9.25002 7.33522V4C9.25002 3.58579 9.5858 3.25 10 3.25Z" fill="#35A7FF"/>
</svg>
