<svg width="18" height="18" viewBox="0 0 18 18" fill="none" xmlns="http://www.w3.org/2000/svg">
<path d="M6 18L12 15.9L16.65 17.7C16.9833 17.8333 17.2917 17.7957 17.575 17.587C17.8583 17.379 18 17.1 18 16.75V2.75C18 2.53333 17.9373 2.34167 17.812 2.175C17.6873 2.00833 17.5167 1.88333 17.3 1.8L12 0L6 2.1L1.35 0.3C1.01667 0.166667 0.708333 0.204 0.424999 0.412C0.141666 0.620667 0 0.9 0 1.25V15.25C0 15.4667 0.0626664 15.6583 0.188 15.825C0.312666 15.9917 0.483334 16.1167 0.700001 16.2L6 18ZM7 15.55V3.85L11 2.45V14.15L7 15.55ZM5 15.55L2 14.55V2.7L5 3.85V15.55ZM16 15.3L13 14.15V2.45L16 3.45V15.3Z" fill="white"/>
</svg>
