<svg width="18" height="18" viewBox="0 0 18 18" fill="none" xmlns="http://www.w3.org/2000/svg">
<path fill-rule="evenodd" clip-rule="evenodd" d="M0.75 8.40915C0.75 4.14469 4.53028 0.84082 9 0.84082C13.4697 0.84082 17.25 4.14469 17.25 8.40915C17.25 12.6736 13.4697 15.9775 9 15.9775C8.50585 15.9775 8.02328 15.9363 7.55422 15.8598L4.83259 17.2064C4.60011 17.3214 4.32471 17.3081 4.10436 17.1713C3.88401 17.0345 3.75 16.7935 3.75 16.5342C3.75 16.1098 3.7497 15.693 3.74942 15.2993C3.74915 14.9192 3.7489 14.5607 3.74894 14.238C1.93808 12.8662 0.75 10.7834 0.75 8.40915ZM9 2.34082C5.21639 2.34082 2.25 5.10861 2.25 8.40915C2.25 10.3664 3.28418 12.1155 4.92231 13.2349C5.1271 13.3749 5.24946 13.607 5.24917 13.855C5.24869 14.266 5.24904 14.7585 5.24942 15.2956C5.24943 15.3059 5.24944 15.3162 5.24944 15.3266L7.10991 14.4061C7.25667 14.3335 7.42316 14.3109 7.58395 14.3418C8.04256 14.4299 8.51519 14.4775 9 14.4775C12.7836 14.4775 15.75 11.7097 15.75 8.40915C15.75 5.10861 12.7836 2.34082 9 2.34082Z" fill="#BABBBE"/>
<path fill-rule="evenodd" clip-rule="evenodd" d="M8.29333 7.05952V9.63463L10.4699 8.34708L8.29333 7.05952ZM8.80935 5.62198C7.91689 5.09353 6.79333 5.7386 6.79333 6.77249V9.92249C6.79333 10.9569 7.9185 11.5983 8.80891 11.0724L11.4728 9.49663C12.3448 8.9791 12.347 7.71456 11.4719 7.19698C11.4719 7.197 11.4718 7.19696 11.4719 7.19698L8.80935 5.62198Z" fill="#BABBBE"/>
</svg>
