<svg width="12" height="18" viewBox="0 0 12 18" fill="none" xmlns="http://www.w3.org/2000/svg">
<path d="M10.0436 11.7385C9.08067 12.3501 7.75569 12.5926 6.88057 12.6839L7.61511 13.4079L10.2967 16.0895C11.2772 17.0947 9.68165 18.6657 8.69055 17.6957C8.01928 17.0138 7.03521 16.0298 6.00897 15.0035L3.32738 17.6922C2.33628 18.6586 0.740684 17.0736 1.73178 16.086C2.4136 15.4042 3.38713 14.4201 4.41337 13.4044L5.13736 12.6804C4.27279 12.5891 2.92672 12.3606 1.9532 11.735C0.807461 10.997 0.304883 10.5647 0.747714 9.66145C1.00779 9.14832 1.72124 8.71604 2.66665 9.46112C2.66665 9.46112 3.94242 10.4768 6.00194 10.4768C8.06145 10.4768 9.33723 9.46112 9.33723 9.46112C10.2826 8.71955 10.9926 9.14832 11.2562 9.66145C11.692 10.5647 11.1894 10.997 10.0436 11.7385ZM1.44008 4.55835C1.44008 2.03843 3.48905 0 5.99842 0C8.5078 0 10.5568 2.03843 10.5568 4.55835C10.5568 7.06772 8.5078 9.10615 5.99842 9.10615C3.48905 9.10615 1.44008 7.06772 1.44008 4.55835ZM3.75967 4.55835C3.75967 5.79195 4.76482 6.7971 5.99842 6.7971C7.23202 6.7971 8.23718 5.79195 8.23718 4.55835C8.23718 3.3142 7.23202 2.30905 5.99842 2.30905C4.76482 2.30905 3.75967 3.3142 3.75967 4.55835Z" fill="#181B27"/>
</svg>
