<svg width="18" height="18" viewBox="0 0 18 18" fill="none" xmlns="http://www.w3.org/2000/svg">
<path d="M1.26525 1.26525C0 2.5305 0 4.56714 0 8.64V9.36C0 13.4329 0 15.4695 1.26525 16.7347C2.5305 18 4.56714 18 8.64 18H9.36C13.4329 18 15.4695 18 16.7347 16.7347C18 15.4695 18 13.4329 18 9.36V8.64C18 4.56714 18 2.5305 16.7347 1.26525C15.4695 0 13.4329 0 9.36 0H8.64C4.56714 0 2.5305 0 1.26525 1.26525ZM3.0375 5.47501H5.09251C5.16001 8.91 6.67499 10.365 7.875 10.665V5.47501H9.81V8.4375C10.995 8.31001 12.24 6.96001 12.66 5.47501H14.595C14.4367 6.24516 14.1212 6.97432 13.6682 7.61701C13.2153 8.25967 12.6346 8.80196 11.9625 9.21001C12.7129 9.58255 13.3757 10.1101 13.9071 10.7579C14.4384 11.4056 14.8263 12.1588 15.045 12.9675H12.915C12.7187 12.265 12.3193 11.6361 11.7669 11.1598C11.2145 10.6834 10.5337 10.3809 9.81 10.29V12.9675H9.57749C5.47501 12.9675 3.135 10.155 3.0375 5.47501Z" fill="#181B27"/>
</svg>
