<svg width="18" height="14" viewBox="0 0 18 14" fill="none" xmlns="http://www.w3.org/2000/svg">
<path d="M17.6239 2.65215C17.4169 1.87267 16.8069 1.25877 16.0325 1.05044C14.6288 0.671875 9 0.671875 9 0.671875C9 0.671875 3.37127 0.671875 1.96752 1.05044C1.19308 1.25881 0.583143 1.87267 0.376127 2.65215C0 4.065 0 7.01278 0 7.01278C0 7.01278 0 9.96056 0.376127 11.3734C0.583143 12.1529 1.19308 12.7412 1.96752 12.9495C3.37127 13.3281 9 13.3281 9 13.3281C9 13.3281 14.6287 13.3281 16.0325 12.9495C16.8069 12.7412 17.4169 12.1529 17.6239 11.3734C18 9.96056 18 7.01278 18 7.01278C18 7.01278 18 4.065 17.6239 2.65215ZM7.15908 9.68915V4.33642L11.8636 7.01285L7.15908 9.68915Z" fill="#181B27"/>
</svg>
