<svg width="220" height="220" viewBox="0 0 220 220" fill="none" xmlns="http://www.w3.org/2000/svg">
<rect width="220" height="220" rx="16" fill="#E84855"/>
<path fill-rule="evenodd" clip-rule="evenodd" d="M110.059 46.8658C83.4643 46.8658 61.9048 68.4252 61.9048 95.0202C61.9048 107 67.3558 120.036 75.3832 132.55L63.4228 140.222C54.8014 126.781 47.6953 110.98 47.6953 95.0202C47.6953 60.5775 75.6166 32.6562 110.059 32.6562C144.502 32.6562 172.423 60.5775 172.423 95.0202C172.423 118.458 157.066 141.876 143.14 158.536C136.009 167.068 128.898 174.24 123.577 179.276C120.912 181.799 118.684 183.796 117.112 185.172C116.326 185.86 115.703 186.393 115.27 186.759C115.054 186.942 114.885 187.084 114.767 187.182L114.628 187.297L114.589 187.33L114.572 187.344C114.572 187.344 114.569 187.346 110.059 181.856C105.55 176.366 105.548 176.368 105.548 176.368L105.57 176.349L105.669 176.267C105.76 176.191 105.901 176.073 106.09 175.913C106.466 175.595 107.031 175.112 107.755 174.478C109.205 173.209 111.294 171.337 113.81 168.956C118.85 164.186 125.554 157.42 132.238 149.424C145.942 133.027 158.214 113.027 158.214 95.0202C158.214 68.4252 136.654 46.8658 110.059 46.8658Z" fill="white"/>
<path fill-rule="evenodd" clip-rule="evenodd" d="M110.217 129.281C129.052 129.281 144.32 114.013 144.32 95.1781C144.32 76.3437 129.052 61.0753 110.217 61.0753C91.3827 61.0753 76.1143 76.3437 76.1143 95.1781C76.1143 114.013 91.3827 129.281 110.217 129.281ZM115.901 89.4943V78.1267H104.533V89.4943H93.1658V100.862H104.533V112.23H115.901V100.862H127.269V89.4943H115.901Z" fill="white"/>
</svg>
