<svg width="382" height="255" viewBox="0 0 382 255" fill="none" xmlns="http://www.w3.org/2000/svg">
<rect width="382" height="255" rx="16" fill="#E84855"/>
<rect x="0.5" y="0.5" width="381" height="254" rx="15.5" stroke="#181B27" stroke-opacity="0.1"/>
<path fill-rule="evenodd" clip-rule="evenodd" d="M191.364 64.2095C164.769 64.2095 143.21 85.769 143.21 112.364C143.21 124.344 148.661 137.379 156.688 149.893L144.728 157.566C136.106 144.125 129 128.324 129 112.364C129 77.9213 156.921 50 191.364 50C225.807 50 253.728 77.9213 253.728 112.364C253.728 135.801 238.37 159.219 224.445 175.88C217.314 184.412 210.203 191.584 204.882 196.62C202.217 199.143 199.989 201.14 198.417 202.515C197.631 203.204 197.007 203.737 196.575 204.103C196.358 204.286 196.189 204.428 196.071 204.526L195.933 204.641L195.893 204.674L195.877 204.688C195.877 204.688 195.874 204.69 191.364 199.2C186.854 193.71 186.853 193.711 186.853 193.711L186.875 193.693L186.974 193.611C187.065 193.535 187.206 193.417 187.394 193.257C187.771 192.938 188.335 192.456 189.06 191.822C190.51 190.553 192.599 188.68 195.115 186.3C200.154 181.53 206.858 174.764 213.542 166.767C227.246 150.371 239.518 130.371 239.518 112.364C239.518 85.769 217.959 64.2095 191.364 64.2095Z" fill="white"/>
<path fill-rule="evenodd" clip-rule="evenodd" d="M191.522 146.625C210.356 146.625 225.625 131.356 225.625 112.522C225.625 93.6874 210.356 78.419 191.522 78.419C172.687 78.419 157.419 93.6874 157.419 112.522C157.419 131.356 172.687 146.625 191.522 146.625ZM197.206 106.838V95.4705H185.838V106.838H174.47V118.206H185.838V129.573H197.206V118.206H208.573V106.838H197.206Z" fill="white"/>
</svg>
