<svg width="28" height="28" viewBox="0 0 28 28" fill="none" xmlns="http://www.w3.org/2000/svg">
<path fill-rule="evenodd" clip-rule="evenodd" d="M14 24.5C14 24.5 5.83333 17.7917 5.83333 11.6667C5.83333 7.15633 9.48966 3.5 14 3.5C18.5103 3.5 22.1667 7.15633 22.1667 11.6667C22.1667 17.7917 14 24.5 14 24.5Z" fill="#35A7FF" stroke="#35A7FF" stroke-width="1.5" stroke-linecap="round" stroke-linejoin="round"/>
<path fill-rule="evenodd" clip-rule="evenodd" d="M14 16.9166C16.8995 16.9166 19.25 14.5661 19.25 11.6666C19.25 8.76713 16.8995 6.41663 14 6.41663C11.1005 6.41663 8.75 8.76713 8.75 11.6666C8.75 14.5661 11.1005 16.9166 14 16.9166ZM14.875 10.7916V9.04163H13.125V10.7916H11.375V12.5416H13.125V14.2916H14.875V12.5416H16.625V10.7916H14.875Z" fill="white"/>
</svg>
