<svg width="25" height="24" viewBox="0 0 25 24" fill="none" xmlns="http://www.w3.org/2000/svg">
<path fill-rule="evenodd" clip-rule="evenodd" d="M17.5462 5L19.4342 5C20.0172 5 20.4902 5.473 20.4902 6.056L20.4902 13.444C20.4902 14.027 20.0172 14.5 19.4342 14.5L17.5462 14.5C16.9632 14.5 16.4902 14.027 16.4902 13.444L16.4902 6.056C16.4902 5.473 16.9632 5 17.5462 5V5Z" stroke="#E84855" stroke-width="1.5" stroke-linecap="round" stroke-linejoin="round"/>
<path d="M16.4902 13.4279L12.8412 18.1789C12.1622 19.0639 10.8362 19.0859 10.1272 18.2249V18.2249C9.86223 17.9039 9.71823 17.4999 9.71823 17.0839L9.71823 13.8129L6.62223 13.8129C6.02123 13.8129 5.46023 13.5129 5.12623 13.0139L4.79724 12.5229C4.50224 12.0819 4.41623 11.5329 4.56324 11.0239L5.92224 6.30193C6.14424 5.53093 6.84924 4.99993 7.65124 4.99993L13.9402 4.99993C14.4402 4.99993 14.9182 5.20794 15.2582 5.57394L16.4902 6.89994" stroke="#E84855" stroke-width="1.5" stroke-linecap="round" stroke-linejoin="round"/>
</svg>
