<svg width="24" height="24" viewBox="0 0 24 24" fill="none" xmlns="http://www.w3.org/2000/svg">
<path fill-rule="evenodd" clip-rule="evenodd" d="M9.70316 4.09475L3.52916 7.52475C2.23116 8.24575 2.23116 10.1117 3.52916 10.8327L9.70316 14.2627C11.1312 15.0557 12.8682 15.0557 14.2972 14.2627L20.4712 10.8327C21.7692 10.1117 21.7692 8.24575 20.4712 7.52475L14.2972 4.09475C12.8682 3.30175 11.1322 3.30175 9.70316 4.09475Z" stroke="#BABBBE" stroke-width="1.419" stroke-linecap="round" stroke-linejoin="round"/>
<path d="M5.99121 12.2002V16.1242C5.99121 17.0732 6.46621 17.9582 7.25521 18.4832L8.86221 19.5522C10.7632 20.8162 13.2372 20.8162 15.1372 19.5522L16.7442 18.4832C17.5342 17.9582 18.0082 17.0722 18.0082 16.1242V12.2002" stroke="#BABBBE" stroke-width="1.4167" stroke-linecap="round" stroke-linejoin="round"/>
</svg>
