<svg width="25" height="24" viewBox="0 0 25 24" fill="none" xmlns="http://www.w3.org/2000/svg">
<path fill-rule="evenodd" clip-rule="evenodd" d="M7.444 19H5.556C4.973 19 4.5 18.527 4.5 17.944V10.556C4.5 9.973 4.973 9.5 5.556 9.5H7.444C8.027 9.5 8.5 9.973 8.5 10.556V17.944C8.5 18.527 8.027 19 7.444 19V19Z" stroke="#17B389" stroke-width="1.5" stroke-linecap="round" stroke-linejoin="round"/>
<path d="M8.5 10.5721L12.149 5.82106C12.828 4.93606 14.154 4.91406 14.863 5.77506V5.77506C15.128 6.09606 15.272 6.50006 15.272 6.91606V10.1871H18.368C18.969 10.1871 19.53 10.4871 19.864 10.9861L20.193 11.4771C20.488 11.9181 20.574 12.4671 20.427 12.9761L19.068 17.6981C18.846 18.4691 18.141 19.0001 17.339 19.0001H11.05C10.55 19.0001 10.072 18.7921 9.732 18.4261L8.5 17.1001" stroke="#17B389" stroke-width="1.5" stroke-linecap="round" stroke-linejoin="round"/>
</svg>
