<svg width="48" height="48" viewBox="0 0 48 48" fill="none" xmlns="http://www.w3.org/2000/svg">
<path d="M14.1434 30V20.584L11.9834 21.904V19.776L14.1434 18.48H16.1114V30H14.1434ZM22.9271 30.24C22.1644 30.24 21.4871 30.0853 20.8951 29.776C20.3031 29.4667 19.8391 29.0373 19.5031 28.488C19.1671 27.9387 18.9991 27.3093 18.9991 26.6C18.9991 25.9653 19.1457 25.376 19.4391 24.832C19.7324 24.288 20.1617 23.8533 20.7271 23.528L20.6871 24.144C20.2444 23.808 19.9004 23.4213 19.6551 22.984C19.4151 22.5413 19.2951 22.0453 19.2951 21.496C19.2951 20.8347 19.4497 20.2613 19.7591 19.776C20.0737 19.2907 20.5031 18.9147 21.0471 18.648C21.5911 18.376 22.2177 18.24 22.9271 18.24C23.6364 18.24 24.2631 18.376 24.8071 18.648C25.3564 18.9147 25.7857 19.2907 26.0951 19.776C26.4097 20.2613 26.5671 20.8347 26.5671 21.496C26.5671 22.0453 26.4497 22.5387 26.2151 22.976C25.9857 23.4133 25.6364 23.808 25.1671 24.16L25.1591 23.536C25.7137 23.8507 26.1377 24.2827 26.4311 24.832C26.7297 25.376 26.8791 25.9653 26.8791 26.6C26.8791 27.3093 26.7084 27.9387 26.3671 28.488C26.0311 29.0373 25.5644 29.4667 24.9671 29.776C24.3751 30.0853 23.6951 30.24 22.9271 30.24ZM22.9271 28.424C23.4924 28.424 23.9511 28.2693 24.3031 27.96C24.6604 27.6507 24.8391 27.1973 24.8391 26.6C24.8391 26.0027 24.6631 25.5493 24.3111 25.24C23.9591 24.9253 23.4977 24.768 22.9271 24.768C22.3617 24.768 21.9057 24.9253 21.5591 25.24C21.2124 25.5493 21.0391 26.0027 21.0391 26.6C21.0391 27.1973 21.2124 27.6507 21.5591 27.96C21.9057 28.2693 22.3617 28.424 22.9271 28.424ZM22.9271 22.936C23.4017 22.936 23.7857 22.8187 24.0791 22.584C24.3777 22.344 24.5271 21.9813 24.5271 21.496C24.5271 21.0107 24.3777 20.6507 24.0791 20.416C23.7857 20.176 23.4017 20.056 22.9271 20.056C22.4577 20.056 22.0737 20.176 21.7751 20.416C21.4817 20.6507 21.3351 21.0107 21.3351 21.496C21.3351 21.9813 21.4817 22.344 21.7751 22.584C22.0737 22.8187 22.4577 22.936 22.9271 22.936ZM31.6599 27.856V24.992H28.7959V23.48H31.6599V20.624H33.1719V23.48H36.0199V24.992H33.1719V27.856H31.6599Z" fill="#BABBBE"/>
<rect x="0.75" y="0.75" width="46.5" height="46.5" rx="23.25" stroke="#BABBBE" stroke-width="1.5"/>
</svg>
