<svg width="19" height="18" viewBox="0 0 19 18" fill="none" xmlns="http://www.w3.org/2000/svg">
<path fill-rule="evenodd" clip-rule="evenodd" d="M0.746674 8.05861C0.746674 3.7442 4.2442 0.246674 8.55861 0.246674C12.873 0.246674 16.3706 3.7442 16.3706 8.05861C16.3706 12.373 12.873 15.8706 8.55861 15.8706C4.2442 15.8706 0.746674 12.373 0.746674 8.05861ZM8.55861 1.74667C5.07263 1.74667 2.24667 4.57263 2.24667 8.05861C2.24667 11.5446 5.07263 14.3706 8.55861 14.3706C12.0446 14.3706 14.8706 11.5446 14.8706 8.05861C14.8706 4.57263 12.0446 1.74667 8.55861 1.74667Z" fill="#BABBBE"/>
<path fill-rule="evenodd" clip-rule="evenodd" d="M13.0214 12.5214C13.3143 12.2285 13.7891 12.2285 14.082 12.5214L18.0337 16.473C18.3266 16.7659 18.3266 17.2408 18.0337 17.5337C17.7408 17.8266 17.2659 17.8266 16.973 17.5337L13.0214 13.582C12.7285 13.2891 12.7285 12.8143 13.0214 12.5214Z" fill="#BABBBE"/>
</svg>
