<svg width="24" height="24" viewBox="0 0 24 24" fill="none" xmlns="http://www.w3.org/2000/svg">
<path d="M16.605 12.789C19.584 12.789 22 10.374 22 7.394C22 4.414 19.585 2 16.605 2C13.625 2 11.21 4.415 11.21 7.395H11.211C11.211 8.209 11.391 8.982 11.714 9.674L11.019 13L14.339 12.295C15.03 12.616 15.799 12.795 16.611 12.795" stroke="#35A7FF" stroke-width="1.5" stroke-linecap="round" stroke-linejoin="round"/>
<path d="M16.6001 5.39014V9.39014" stroke="#35A7FF" stroke-width="1.5" stroke-linecap="round" stroke-linejoin="round"/>
<path d="M18.6001 7.39014H14.6001" stroke="#35A7FF" stroke-width="1.5" stroke-linecap="round" stroke-linejoin="round"/>
<path d="M8.27979 19H10.7198" stroke="#35A7FF" stroke-width="1.4832" stroke-linecap="round" stroke-linejoin="round"/>
<path d="M15 12.549V19.75C15 20.993 14.015 22 12.8 22H6.2C4.985 22 4 20.993 4 19.75V6.25C4 5.007 4.985 4 6.2 4H12.413" stroke="#35A7FF" stroke-width="1.4832" stroke-linecap="round" stroke-linejoin="round"/>
</svg>
