<svg width="28" height="28" viewBox="0 0 28 28" fill="none" xmlns="http://www.w3.org/2000/svg">
<path fill-rule="evenodd" clip-rule="evenodd" d="M11.8205 23.8802C12.5271 23.9991 13.2546 24.0632 14 24.0632C20.5371 24.0632 26.0376 19.2369 26.0425 13.0393L26.0425 13.0322C26.0425 6.83065 20.5401 2 14 2C7.46005 2 1.95746 6.82927 1.95746 13.031C1.95746 16.517 3.71772 19.5763 6.40238 21.5788C6.40225 22.0802 6.40265 22.6431 6.40308 23.2426V23.244C6.40349 23.8204 6.40393 24.4305 6.40394 25.0519C6.4028 25.1017 6.40568 25.1518 6.41274 25.2018C6.47517 25.6527 6.86218 25.9999 7.33029 25.9999C7.4956 25.9999 7.65079 25.9566 7.78515 25.8807L11.8205 23.8802Z" fill="#17B389"/>
<path d="M11.3452 16.9945H16.6562" stroke="white" stroke-width="1.92641" stroke-linecap="round" stroke-linejoin="round"/>
<path d="M9.06 12.9804H18.941" stroke="white" stroke-width="1.92641" stroke-linecap="round" stroke-linejoin="round"/>
<path d="M11.3452 8.9662H16.6562" stroke="white" stroke-width="1.92641" stroke-linecap="round" stroke-linejoin="round"/>
</svg>
