<svg width="26" height="26" viewBox="0 0 26 26" fill="none" xmlns="http://www.w3.org/2000/svg">
<path fill-rule="evenodd" clip-rule="evenodd" d="M11.761 14.2393C10.4935 12.9718 9.53799 11.5526 8.90315 10.1129C8.76882 9.80844 8.8479 9.45203 9.08299 9.21694L9.97024 8.33078C10.6972 7.60386 10.6972 6.57578 10.0623 5.94094L8.79049 4.66911C7.9444 3.82303 6.5729 3.82303 5.72682 4.66911L5.02049 5.37544C4.21774 6.17819 3.88299 7.33628 4.09965 8.48461C4.63482 11.3154 6.27932 14.4148 8.9324 17.0679C11.5855 19.7209 14.6849 21.3654 17.5157 21.9006C18.664 22.1173 19.8221 21.7825 20.6248 20.9798L21.3301 20.2745C22.1762 19.4284 22.1762 18.0569 21.3301 17.2109L20.0593 15.9401C19.4245 15.3053 18.3953 15.3053 17.7616 15.9401L16.7833 16.9194C16.5482 17.1545 16.1918 17.2336 15.8874 17.0993C14.4477 16.4634 13.0285 15.5068 11.761 14.2393Z" stroke="#BABBBE" stroke-width="1.5" stroke-linecap="round" stroke-linejoin="round"/>
</svg>
