<svg width="48" height="49" viewBox="0 0 48 49" fill="none" xmlns="http://www.w3.org/2000/svg">
<path fill-rule="evenodd" clip-rule="evenodd" d="M24 42.4257C24 42.4257 10 30.9257 10 20.4257C10 12.6937 16.268 6.42566 24 6.42566C31.732 6.42566 38 12.6937 38 20.4257C38 30.9257 24 42.4257 24 42.4257Z" fill="#35A7FF" stroke="#35A7FF" stroke-width="1.5" stroke-linecap="round" stroke-linejoin="round"/>
<path fill-rule="evenodd" clip-rule="evenodd" d="M24 29.4257C28.9706 29.4257 33 25.3962 33 20.4257C33 15.4551 28.9706 11.4257 24 11.4257C19.0294 11.4257 15 15.4551 15 20.4257C15 25.3962 19.0294 29.4257 24 29.4257ZM25.5 18.9257V15.9257H22.5V18.9257H19.5V21.9257H22.5V24.9257H25.5V21.9257H28.5V18.9257H25.5Z" fill="white"/>
</svg>
