<svg width="48" height="49" viewBox="0 0 48 49" fill="none" xmlns="http://www.w3.org/2000/svg">
<path fill-rule="evenodd" clip-rule="evenodd" d="M24 42.1316C24 42.1316 10 30.6316 10 20.1316C10 12.3996 16.268 6.13159 24 6.13159C31.732 6.13159 38 12.3996 38 20.1316C38 30.6316 24 42.1316 24 42.1316Z" fill="#E84855" stroke="#E84855" stroke-width="1.5" stroke-linecap="round" stroke-linejoin="round"/>
<path fill-rule="evenodd" clip-rule="evenodd" d="M24 29.1316C28.9706 29.1316 33 25.1022 33 20.1316C33 15.161 28.9706 11.1316 24 11.1316C19.0294 11.1316 15 15.161 15 20.1316C15 25.1022 19.0294 29.1316 24 29.1316ZM25.5 18.6316V15.6316H22.5V18.6316H19.5V21.6316H22.5V24.6316H25.5V21.6316H28.5V18.6316H25.5Z" fill="white"/>
</svg>
