<svg width="18" height="18" viewBox="0 0 18 18" fill="none" xmlns="http://www.w3.org/2000/svg">
<path d="M9 15.0025C11.1985 15.0027 13.2213 13.801 14.2724 11.87" stroke="#BABBBE" stroke-width="1.5" stroke-linecap="round" stroke-linejoin="round"/>
<path d="M15.0025 9C15.0025 5.68491 12.3151 2.9975 9 2.9975" stroke="#BABBBE" stroke-width="1.5" stroke-linecap="round" stroke-linejoin="round"/>
<path d="M8.99999 2.9975C6.80144 2.99731 4.77872 4.19909 3.72754 6.13005" stroke="#BABBBE" stroke-width="1.5" stroke-linecap="round" stroke-linejoin="round"/>
<path d="M2.99744 9C2.99744 12.3151 5.68485 15.0025 8.99994 15.0025" stroke="#BABBBE" stroke-width="1.5" stroke-linecap="round" stroke-linejoin="round"/>
<path d="M3.72754 6.13007C5.03964 3.71881 7.82035 2.50493 10.4807 3.18209C13.141 3.85925 15.0029 6.25487 15.0025 9.00002" stroke="#BABBBE" stroke-width="1.5" stroke-linecap="round" stroke-linejoin="round"/>
<path d="M2.99744 9C2.99702 11.7451 4.85895 14.1408 7.51926 14.8179C10.1796 15.4951 12.9603 14.2812 14.2724 11.8699" stroke="#BABBBE" stroke-width="1.5" stroke-linecap="round" stroke-linejoin="round"/>
<path d="M6.03395 6.1301H3.38159V3.47699" stroke="#BABBBE" stroke-width="1.5" stroke-linecap="round" stroke-linejoin="round"/>
<path d="M11.9659 11.87H14.6183V14.5231" stroke="#BABBBE" stroke-width="1.5" stroke-linecap="round" stroke-linejoin="round"/>
</svg>
