<svg width="20" height="18" viewBox="0 0 20 18" fill="none" xmlns="http://www.w3.org/2000/svg">
<path fill-rule="evenodd" clip-rule="evenodd" d="M5.59099 2.40901C4.71231 1.53033 3.28768 1.53033 2.40901 2.40901C1.53033 3.28768 1.53033 4.71231 2.40901 5.59099C3.28768 6.46966 4.71231 6.46966 5.59099 5.59099C6.46966 4.71231 6.46966 3.28768 5.59099 2.40901ZM6.65165 1.34835C5.18718 -0.116116 2.81281 -0.116116 1.34835 1.34835C-0.116116 2.81281 -0.116116 5.18718 1.34835 6.65165C2.81281 8.11611 5.18718 8.11611 6.65165 6.65165C8.11611 5.18718 8.11611 2.81281 6.65165 1.34835Z" fill="#BABBBE"/>
<path fill-rule="evenodd" clip-rule="evenodd" d="M6.25 4C6.25 3.58579 6.58579 3.25 7 3.25H18C18.4142 3.25 18.75 3.58579 18.75 4C18.75 4.41421 18.4142 4.75 18 4.75H7C6.58579 4.75 6.25 4.41421 6.25 4Z" fill="#BABBBE"/>
<path fill-rule="evenodd" clip-rule="evenodd" d="M17.591 12.409C16.7123 11.5303 15.2877 11.5303 14.409 12.409C13.5303 13.2877 13.5303 14.7123 14.409 15.591C15.2877 16.4697 16.7123 16.4697 17.591 15.591C18.4696 14.7123 18.4696 13.2877 17.591 12.409ZM18.6516 11.3483C17.1872 9.88388 14.8128 9.88388 13.3483 11.3483C11.8839 12.8128 11.8839 15.1872 13.3483 16.6516C14.8128 18.1161 17.1872 18.1161 18.6516 16.6516C20.1161 15.1872 20.1161 12.8128 18.6516 11.3483Z" fill="#BABBBE"/>
<path fill-rule="evenodd" clip-rule="evenodd" d="M1.25 14C1.25 13.5858 1.58579 13.25 2 13.25H13C13.4142 13.25 13.75 13.5858 13.75 14C13.75 14.4142 13.4142 14.75 13 14.75H2C1.58579 14.75 1.25 14.4142 1.25 14Z" fill="#BABBBE"/>
</svg>
