<svg width="16" height="16" viewBox="0 0 16 16" fill="none" xmlns="http://www.w3.org/2000/svg">
<path fill-rule="evenodd" clip-rule="evenodd" d="M12.75 2.66663C12.75 2.25241 12.4142 1.91663 12 1.91663L4 1.91663C3.58579 1.91663 3.25 2.25241 3.25 2.66663C3.25 3.08084 3.58579 3.41663 4 3.41663L12 3.41663C12.4142 3.41663 12.75 3.08084 12.75 2.66663Z" fill="#181B27"/>
<path fill-rule="evenodd" clip-rule="evenodd" d="M10.75 6.66663C10.75 6.25241 10.4142 5.91663 10 5.91663L4 5.91663C3.58579 5.91663 3.25 6.25241 3.25 6.66663C3.25 7.08084 3.58579 7.41663 4 7.41663L10 7.41663C10.4142 7.41663 10.75 7.08084 10.75 6.66663Z" fill="#181B27"/>
<path fill-rule="evenodd" clip-rule="evenodd" d="M8.75 10.3333C8.75 9.91904 8.41421 9.58325 8 9.58325H4C3.58579 9.58325 3.25 9.91904 3.25 10.3333C3.25 10.7475 3.58579 11.0833 4 11.0833H8C8.41421 11.0833 8.75 10.7475 8.75 10.3333Z" fill="#181B27"/>
<path fill-rule="evenodd" clip-rule="evenodd" d="M7.41666 13.6666C7.41666 13.2524 7.08087 12.9166 6.66666 12.9166H3.99999C3.58578 12.9166 3.24999 13.2524 3.24999 13.6666C3.24999 14.0808 3.58578 14.4166 3.99999 14.4166H6.66666C7.08087 14.4166 7.41666 14.0808 7.41666 13.6666Z" fill="#181B27"/>
</svg>
