<svg width="109" height="20" viewBox="0 0 109 20" fill="none" xmlns="http://www.w3.org/2000/svg">
<path fill-rule="evenodd" clip-rule="evenodd" d="M10.5 2.41333L12.9458 7.4075L18.4167 8.21333L14.4583 12.0983L15.3925 17.5867L10.5 14.9942L5.60749 17.5867L6.54166 12.0983L2.58333 8.21333L8.05333 7.4075L10.5 2.41333Z" stroke="#E84855" stroke-width="1.5" stroke-linecap="round" stroke-linejoin="round"/>
<path fill-rule="evenodd" clip-rule="evenodd" d="M32.5 2.41333L34.9458 7.4075L40.4167 8.21333L36.4583 12.0983L37.3925 17.5867L32.5 14.9942L27.6075 17.5867L28.5417 12.0983L24.5833 8.21333L30.0533 7.4075L32.5 2.41333Z" stroke="#E84855" stroke-width="1.5" stroke-linecap="round" stroke-linejoin="round"/>
<path fill-rule="evenodd" clip-rule="evenodd" d="M54.5 2.41333L56.9458 7.4075L62.4167 8.21333L58.4583 12.0983L59.3925 17.5867L54.5 14.9942L49.6075 17.5867L50.5417 12.0983L46.5833 8.21333L52.0533 7.4075L54.5 2.41333Z" stroke="#E84855" stroke-width="1.5" stroke-linecap="round" stroke-linejoin="round"/>
<path fill-rule="evenodd" clip-rule="evenodd" d="M76.5 2.41333L78.9458 7.4075L84.4167 8.21333L80.4583 12.0983L81.3925 17.5867L76.5 14.9942L71.6075 17.5867L72.5417 12.0983L68.5833 8.21333L74.0533 7.4075L76.5 2.41333Z" stroke="#E84855" stroke-width="1.5" stroke-linecap="round" stroke-linejoin="round"/>
<path fill-rule="evenodd" clip-rule="evenodd" d="M98.5 2.41333L100.946 7.4075L106.417 8.21333L102.458 12.0983L103.392 17.5867L98.5 14.9942L93.6075 17.5867L94.5417 12.0983L90.5833 8.21333L96.0533 7.4075L98.5 2.41333Z" stroke="#E84855" stroke-width="1.5" stroke-linecap="round" stroke-linejoin="round"/>
</svg>
