<svg width="256" height="48" viewBox="0 0 256 48" fill="none" xmlns="http://www.w3.org/2000/svg">
<path fill-rule="evenodd" clip-rule="evenodd" d="M24 5.79199L29.87 17.778L43 19.712L33.5 29.036L35.742 42.208L24 35.986L12.258 42.208L14.5 29.036L5 19.712L18.128 17.778L24 5.79199Z" stroke="#E84855" stroke-width="1.5" stroke-linecap="round" stroke-linejoin="round"/>
<path fill-rule="evenodd" clip-rule="evenodd" d="M76 5.79199L81.87 17.778L95 19.712L85.5 29.036L87.742 42.208L76 35.986L64.258 42.208L66.5 29.036L57 19.712L70.128 17.778L76 5.79199Z" stroke="#E84855" stroke-width="1.5" stroke-linecap="round" stroke-linejoin="round"/>
<path fill-rule="evenodd" clip-rule="evenodd" d="M128 5.79199L133.87 17.778L147 19.712L137.5 29.036L139.742 42.208L128 35.986L116.258 42.208L118.5 29.036L109 19.712L122.128 17.778L128 5.79199Z" stroke="#E84855" stroke-width="1.5" stroke-linecap="round" stroke-linejoin="round"/>
<path fill-rule="evenodd" clip-rule="evenodd" d="M180 5.79199L185.87 17.778L199 19.712L189.5 29.036L191.742 42.208L180 35.986L168.258 42.208L170.5 29.036L161 19.712L174.128 17.778L180 5.79199Z" stroke="#E84855" stroke-width="1.5" stroke-linecap="round" stroke-linejoin="round"/>
<path fill-rule="evenodd" clip-rule="evenodd" d="M232 5.79199L237.87 17.778L251 19.712L241.5 29.036L243.742 42.208L232 35.986L220.258 42.208L222.5 29.036L213 19.712L226.128 17.778L232 5.79199Z" stroke="#E84855" stroke-width="1.5" stroke-linecap="round" stroke-linejoin="round"/>
</svg>
