<svg width="20" height="20" viewBox="0 0 20 20" fill="none" xmlns="http://www.w3.org/2000/svg">
<g opacity="0.3">
<path d="M3.55438 3.55438C2.5 4.60875 2.5 6.30595 2.5 9.7V10.3C2.5 13.6941 2.5 15.3913 3.55438 16.4456C4.60875 17.5 6.30595 17.5 9.7 17.5H10.3C13.6941 17.5 15.3913 17.5 16.4456 16.4456C17.5 15.3913 17.5 13.6941 17.5 10.3V9.7C17.5 6.30595 17.5 4.60875 16.4456 3.55438C15.3913 2.5 13.6941 2.5 10.3 2.5H9.7C6.30595 2.5 4.60875 2.5 3.55438 3.55438ZM5.03125 7.06251H6.74376C6.80001 9.925 8.06249 11.1375 9.0625 11.3875V7.06251H10.675V9.53125C11.6625 9.42501 12.7 8.30001 13.05 7.06251H14.6625C14.5306 7.7043 14.2676 8.31193 13.8902 8.84751C13.5127 9.38306 13.0288 9.83497 12.4687 10.175C13.0941 10.4855 13.6464 10.9251 14.0892 11.4649C14.532 12.0047 14.8552 12.6323 15.0375 13.3063H13.2625C13.0989 12.7208 12.7661 12.1968 12.3057 11.7998C11.8454 11.4029 11.2781 11.1507 10.675 11.075V13.3063H10.4812C7.06251 13.3063 5.1125 10.9625 5.03125 7.06251Z" fill="#181B27"/>
</g>
</svg>
