<svg width="90" height="90" viewBox="0 0 90 90" fill="none" xmlns="http://www.w3.org/2000/svg">
<path d="M42.69 1.78763C43.8897 0.339849 46.1103 0.339851 47.31 1.78764L49.4318 4.34823C50.395 5.51061 52.0719 5.7762 53.3472 4.96836L56.1564 3.18878C57.7448 2.18258 59.8567 2.86877 60.5503 4.61642L61.777 7.70736C62.3339 9.1105 63.8466 9.8813 65.3091 9.50707L68.5308 8.68269C70.3524 8.21658 72.1488 9.52178 72.2684 11.3982L72.4799 14.717C72.5759 16.2235 73.7765 17.4241 75.283 17.5201L78.6018 17.7316C80.4782 17.8512 81.7834 19.6476 81.3173 21.4692L80.4929 24.6909C80.1187 26.1534 80.8895 27.6661 82.2926 28.223L85.3836 29.4497C87.1312 30.1433 87.8174 32.2552 86.8112 33.8436L85.0316 36.6528C84.2238 37.9281 84.4894 39.605 85.6518 40.5682L88.2124 42.69C89.6602 43.8897 89.6601 46.1103 88.2124 47.31L85.6518 49.4318C84.4894 50.395 84.2238 52.0719 85.0316 53.3472L86.8112 56.1564C87.8174 57.7448 87.1312 59.8567 85.3836 60.5503L82.2926 61.777C80.8895 62.3339 80.1187 63.8466 80.4929 65.3091L81.3173 68.5308C81.7834 70.3524 80.4782 72.1488 78.6018 72.2684L75.283 72.4799C73.7765 72.5759 72.5759 73.7765 72.4799 75.283L72.2684 78.6018C72.1488 80.4782 70.3524 81.7834 68.5308 81.3173L65.3091 80.4929C63.8466 80.1187 62.3339 80.8895 61.777 82.2926L60.5503 85.3836C59.8567 87.1312 57.7448 87.8174 56.1564 86.8112L53.3472 85.0316C52.0719 84.2238 50.395 84.4894 49.4318 85.6518L47.31 88.2124C46.1103 89.6602 43.8897 89.6601 42.69 88.2124L40.5682 85.6518C39.605 84.4894 37.9281 84.2238 36.6528 85.0316L33.8436 86.8112C32.2552 87.8174 30.1433 87.1312 29.4497 85.3836L28.223 82.2926C27.6661 80.8895 26.1534 80.1187 24.6909 80.4929L21.4692 81.3173C19.6477 81.7834 17.8512 80.4782 17.7316 78.6018L17.5201 75.283C17.4241 73.7765 16.2235 72.5759 14.717 72.4799L11.3982 72.2684C9.52178 72.1488 8.21658 70.3524 8.68269 68.5308L9.50707 65.3091C9.8813 63.8466 9.11051 62.3339 7.70737 61.777L4.61642 60.5503C2.86877 59.8567 2.18258 57.7448 3.18878 56.1564L4.96836 53.3472C5.7762 52.0719 5.51061 50.395 4.34822 49.4318L1.78763 47.31C0.339849 46.1103 0.339851 43.8897 1.78764 42.69L4.34823 40.5682C5.51061 39.605 5.7762 37.9281 4.96836 36.6528L3.18878 33.8436C2.18258 32.2552 2.86877 30.1433 4.61642 29.4497L7.70736 28.223C9.1105 27.6661 9.8813 26.1534 9.50707 24.6909L8.68269 21.4692C8.21658 19.6477 9.52178 17.8512 11.3982 17.7316L14.717 17.5201C16.2235 17.4241 17.4241 16.2235 17.5201 14.717L17.7316 11.3982C17.8512 9.52178 19.6476 8.21658 21.4692 8.68269L24.6909 9.50707C26.1534 9.8813 27.6661 9.11051 28.223 7.70737L29.4497 4.61642C30.1433 2.86877 32.2552 2.18258 33.8436 3.18878L36.6528 4.96836C37.9281 5.7762 39.605 5.51061 40.5682 4.34822L42.69 1.78763Z" fill="#E84855"/>
</svg>
