<svg width="490" height="396" viewBox="0 0 490 396" fill="none" xmlns="http://www.w3.org/2000/svg">
<g clip-path="url(#clip0_1308_97333)">
<path d="M406.733 168.383C406.733 168.383 409.391 157.966 413.799 155.225C418.224 152.484 424.464 149.546 425.901 148.324C427.337 147.119 429.004 150.718 424.877 153.491C420.75 156.249 420.75 156.249 420.75 156.249C420.667 157.008 420.783 157.602 420.915 158.015C421.575 159.963 423.804 161.317 426.544 161.565C437.127 163.777 441.254 163.892 442.872 163.414C443.12 163.348 444.028 163.05 444.424 163.447C445.051 164.107 443.929 166.187 443.45 166.914C440.594 171.289 430.655 173.187 423.209 169.77C420.485 168.515 419.445 167.178 417.464 167.524C414.311 168.053 412.379 172.213 411.24 175.647L406.733 168.383Z" fill="#FFC980"/>
<path d="M415.268 171.685C412.264 169.01 409.242 166.336 406.238 163.645C405.132 164.751 389.051 180.451 366.566 175.697C351.08 172.428 342.148 159.716 336.436 151.593C319.25 127.225 329.535 109.329 311.028 92.7699C305.893 88.1638 295.823 82.6001 289.235 84.3006C273.535 88.3454 264.504 135.546 279.693 172.676C282.764 180.171 299.636 221.428 337.938 225.902C368.86 229.534 401.648 207.742 415.268 171.685Z" fill="white"/>
<path opacity="0.15" d="M292.735 129.503C321.049 151.857 317.896 194.748 335.297 196.911C340.613 197.572 340.316 193.494 352.995 189.383C371.535 183.357 380.252 189.449 393.294 184.859C398.693 182.961 405.726 178.916 412.643 169.357C413.518 170.133 414.393 170.909 415.268 171.685C401.648 207.741 368.86 229.517 337.938 225.918C299.636 221.444 282.764 180.187 279.693 172.692C272.561 155.274 270.778 135.628 272.495 119.267C279.033 121.182 286.115 124.286 292.735 129.503Z" fill="#35A7FF"/>
<path d="M164.936 84.0199C176.773 80.7015 194.108 76.8053 215.339 75.6001C245.618 73.8831 260.757 73.0246 271.488 80.2392C296.268 96.8973 277.084 135.331 287.221 230.624C291.53 271.121 293.478 268.513 283.754 282.926C264.009 312.213 208.554 314.607 183.162 289.216C169.74 275.793 168.007 275.034 167.676 259.73C166.422 199.289 165.464 142.216 164.936 84.0199Z" fill="#35A7FF"/>
<path d="M295.526 84.9278C279.776 76.8382 265.165 75.3523 256.893 75.1377C249.398 93.6448 239.988 121.546 235.53 156.463C231.518 187.963 233.384 208.815 235.547 252.102C236.901 279.442 238.287 319.065 237.875 367.883C246.212 370.557 253.03 371.185 257.603 371.284C273.816 371.647 279.231 365.786 295.773 367.421C302.988 368.131 304.787 369.517 307.214 367.899C313.983 363.376 308.915 346.635 305.514 328.458C300.264 300.343 305.976 306.121 300.842 260.605C296.582 222.864 290.721 201.699 296.169 199.536C299.141 198.348 301.898 88.1967 295.526 84.9278Z" fill="white"/>
<path opacity="0.15" d="M279.66 265.673C279.875 237.277 294.997 233.249 293.478 208.815C291.943 184.199 276.259 182.862 276.804 161.68C277.464 135.925 300.924 127.803 300.016 104.392C299.702 96.5009 296.714 89.5504 292.818 83.6566C278.125 76.7391 264.686 75.3358 256.91 75.1377C249.415 93.6448 240.004 121.546 235.547 156.463C231.535 187.963 233.4 208.815 235.563 252.102C236.917 279.442 238.304 319.065 237.891 367.883C246.228 370.557 253.047 371.185 257.62 371.284C273.832 371.647 279.247 365.786 295.79 367.421C303.004 368.131 304.804 369.517 307.231 367.899C313.141 363.954 310.021 350.664 306.867 335.244C301.898 328.822 296.764 322.647 291.299 311.074C287.188 302.324 279.511 286.079 279.66 265.673Z" fill="#35A7FF"/>
<path d="M220.705 161.763C224.419 175.845 224.073 187.055 223.676 197.39C221.497 254.364 220.391 283.008 219.434 291.131C214.794 330.522 211.526 328.062 212.648 344.06C213.243 352.628 214.646 359.958 209.974 365.341C204.393 371.763 196.353 368.296 176.575 370.838C158.398 373.182 157.919 377.062 138.257 379.423C130.266 380.381 108.474 383.006 106.195 376.798C104.974 373.48 109.481 368.032 113.823 365.341C120.905 360.949 126.931 364.267 129.325 360.767C132.066 356.756 124.669 351.638 124.438 342.013C124.207 332.421 131.339 329.3 135.764 317.529C139.891 306.55 138.224 297.223 137.596 290.602C134.757 261.1 147.75 237.756 150.309 198.661C154.304 137.774 128.268 111.029 145.934 91.5315C155.509 80.9655 171.242 79.8428 181.099 80.0905C191.334 101.404 200.134 118.161 206.375 129.685C213.11 142.116 217.535 149.678 220.705 161.763Z" fill="white"/>
<path d="M260.36 146.079C258.908 141.076 254.318 136.289 256.118 130.378C257.174 126.895 259.964 124.65 262.11 123.312C276.226 120.143 285.735 106.935 284.332 93.067C283.771 87.5034 281.493 82.3689 278.026 78.2085C269.408 75.8972 261.962 75.2864 256.91 75.1543C249.415 93.6614 240.004 121.562 235.547 156.48C233.648 171.338 233.07 183.852 233.219 197.456C235.662 189.647 239.096 183.803 242.745 179.378C248.903 171.85 263.91 158.246 260.36 146.079Z" fill="white"/>
<g opacity="0.64">
<path opacity="0.3" d="M220.705 161.763C217.518 149.678 213.11 142.116 206.375 129.668C200.134 118.145 191.318 101.388 181.099 80.0739C178.705 80.0079 175.981 80.0409 173.059 80.2555C157.49 101.767 156.5 113.786 160.115 120.918C163.648 127.869 171.011 129.223 171.969 136.734C173.471 148.473 156.401 152.484 152.207 168.366C148.542 182.218 157.11 196.069 165.167 209.095C178.87 231.251 191.417 233.991 190.955 245.845C190.476 258.194 176.773 258.409 171.193 273.515C162.443 297.206 189.634 314.227 181.478 335.178C175.155 351.423 156.07 348.303 144.316 369.171C142.45 372.489 141.129 375.84 140.139 379.142C157.919 376.765 159.009 373.067 176.575 370.805C196.353 368.263 204.393 371.73 209.974 365.307C214.662 359.925 213.259 352.595 212.648 344.027C211.526 328.029 214.794 330.489 219.434 291.098C220.391 282.991 221.497 254.331 223.676 197.357C224.073 187.055 224.419 175.845 220.705 161.763Z" fill="#35A7FF"/>
</g>
<path d="M179.151 128.892C187.174 136.024 192.985 138.435 193.993 145.253C195.099 152.748 188.842 155.258 189.915 162.572C191.235 171.701 201.603 171.734 206.936 183.406C210.436 191.05 207.382 194.088 209.478 203.977C210.75 210.003 213.919 218.406 222.521 227.734C222.867 218.671 223.264 208.583 223.693 197.406C224.089 187.072 224.436 175.862 220.721 161.779C217.535 149.694 213.127 142.133 206.391 129.685C200.151 118.178 191.334 101.404 181.115 80.0904C175.337 79.9584 167.544 80.2885 160.165 82.7154C157.606 87.3711 157.193 91.0692 157.11 93.0668C156.516 108.784 173.785 124.121 179.151 128.892Z" fill="white"/>
<path d="M217.601 42.5151C217.684 51.4963 216.676 58.6118 215.719 63.4821C214.629 69.0623 213.853 70.5151 212.846 71.6873C211.344 73.4538 209.066 74.9232 196.205 78.126C189.205 79.8595 188.297 79.81 188.148 80.5034C187.389 83.8878 206.49 95.4444 226.202 92.6543C238.271 90.9538 249.25 84.0694 248.573 80.4538C247.896 76.8217 235.844 78.7699 232.245 72.1826C229.752 67.6095 232.542 61.1048 235.86 55.7227C232.674 49.7132 220.804 48.5246 217.601 42.5151Z" fill="#FFC980"/>
<path d="M240.004 46.0646C242.86 42.2839 243.026 35.6802 239.74 31.5033C236.917 27.9042 232.476 27.3924 229.801 27.0953C222.092 26.2037 212.367 29.4231 208.983 36.5221C206.985 40.732 211.311 49.4655 211.988 51.0339C212.764 52.817 214.15 53.4278 215.438 54.7651C217.221 56.6306 220.028 59.5858 224.601 64.5387C224.948 63.0693 225.492 61.2698 226.351 59.3052C226.681 58.5457 228.002 55.607 230.016 53.1636C234.044 48.2603 237.297 49.6471 240.004 46.0646Z" fill="#2F313D"/>
<path d="M218.096 60.3617C218.096 60.3617 223.165 68.6825 233.252 68.0221C242.283 67.4277 243.62 47.1707 237.842 42.8617C235.91 41.4254 232.063 40.8311 228.926 41.7061C227.077 42.2178 226.45 42.9938 223.412 43.7862C220.606 44.5127 219.813 44.199 218.971 44.9089C217.915 45.8004 217.139 47.9796 218.905 53.9065C217.188 52.1565 215.108 51.4961 213.639 52.1895C213.408 52.3051 212.78 52.7178 212.434 53.3617C211.162 55.706 213.276 58.6612 218.096 60.3617Z" fill="#FFC980"/>
<path d="M218.542 43.7202C218.971 44.0504 217.651 45.6683 217.552 47.9796C217.353 52.4537 221.877 57.8027 226.5 58.265C229.224 58.5292 229.983 56.8947 234.49 56.416C237.28 56.1188 239.608 56.482 241.061 56.7957C242.481 61.699 241.143 66.5858 237.875 68.8476C234.342 71.2909 229.851 69.8051 227.969 69.1943C226.714 68.7815 222.669 67.4608 220.556 63.7626C218.36 59.8994 220.523 57.5881 217.997 54.9796C216.726 53.6589 215.059 53.0976 213.424 50.5386C212.978 49.8452 212.681 49.2343 212.5 48.8216C214.827 46.3287 217.915 43.2414 218.542 43.7202Z" fill="#2F313D"/>
<path d="M185.672 173.501C190.823 184.447 167.148 209.921 140.832 222.022C135.467 224.482 96.9665 242.197 79.8132 225.175C65.6316 211.109 74.7779 182.02 78.0467 171.635C94.0939 120.638 139.495 92.0598 160.132 82.699C175.535 121.232 170.334 141.043 166.768 146.409C163.037 152.006 152.62 163.777 141.559 174.128C133.783 181.409 128.929 184.958 129.589 186.098C130.398 187.517 139.511 184.843 174.941 167.59C179.051 168.284 183.922 169.77 185.672 173.501Z" fill="white"/>
<path d="M273.287 109.56L210.584 115.437C209.264 115.553 208.158 116.477 207.794 117.749L184.4 199.454C183.773 201.616 185.523 203.73 187.768 203.532L250.983 197.951C252.32 197.836 253.426 196.911 253.79 195.624L276.672 113.621C277.266 111.442 275.516 109.345 273.287 109.56Z" fill="#E84855"/>
<path d="M176.74 170.942C176.74 170.942 198.334 148.852 207.117 145.584C215.9 142.315 208.125 165.626 202.974 168.911C197.823 172.197 195.809 173.452 191.797 173.963C187.785 174.459 187.785 174.459 187.785 174.459L182.518 177.265C182.502 177.282 175.733 176.473 176.74 170.942Z" fill="#FFC980"/>
<path opacity="0.2" d="M231.551 180.22C233.912 167.31 226.632 157.289 233.615 145.187C240.797 132.739 253.41 134.836 262.474 124.583C265.363 121.315 267.938 116.692 269.209 109.94L273.287 109.56C275.533 109.345 277.283 111.442 276.672 113.621L253.79 195.607C253.426 196.895 252.32 197.819 250.983 197.935L218.889 200.774C227.044 193.444 230.429 186.378 231.551 180.22Z" fill="white"/>
<path d="M365.426 431.907C365.426 436.793 361.959 441.003 357.7 441.267L57.4264 459.609C51.7307 459.94 45.325 455.135 45.325 449.44V239.324C45.325 233.645 51.8958 228.857 57.5915 229.088L357.684 241.932C361.943 242.114 365.41 246.258 365.41 251.145V431.907H365.426Z" fill="#2D8CD6"/>
<path d="M370.99 432.253C370.99 437.173 367.507 441.399 363.214 441.647L59.7543 459.642C54.042 459.989 49.3368 455.581 49.3368 449.869V238.73C49.3368 233.017 54.042 228.527 59.7543 228.774L363.214 241.355C367.49 241.536 370.99 245.697 370.99 250.616V432.253Z" fill="#35A7FF"/>
<g opacity="0.3">
<path d="M247.962 396.413L93.5491 400.177C90.5279 400.243 88.068 399.137 88.0514 397.717L88.0184 385.93C88.0184 384.493 90.4783 383.272 93.4996 383.222L247.912 380.003C250.735 379.937 253.047 381.026 253.047 382.413L253.08 393.788C253.096 395.159 250.785 396.347 247.962 396.413Z" fill="white"/>
</g>
<g opacity="0.3">
<path opacity="0.6" d="M306.257 281.274C306.257 282.281 305.497 283.057 304.54 283.041L177.797 279.59C176.806 279.557 175.981 278.715 175.981 277.675V255.322C175.981 254.298 176.79 253.489 177.797 253.522L304.54 257.682C305.481 257.715 306.257 258.541 306.257 259.548V281.274Z" fill="white"/>
<path opacity="0.6" d="M306.257 306.319C306.257 307.326 305.497 308.119 304.54 308.086L177.797 305.345C176.806 305.329 175.981 304.47 175.981 303.446V297.239C175.981 296.215 176.79 295.39 177.797 295.423L304.54 298.428C305.481 298.444 306.257 299.286 306.257 300.277V306.319Z" fill="white"/>
<path opacity="0.6" d="M306.257 329.234C306.257 330.241 305.497 331.034 304.54 331.017L177.797 328.921C176.806 328.904 175.981 328.062 175.981 327.022V320.814C175.981 319.791 176.79 318.965 177.797 318.982L304.54 321.343C305.481 321.359 306.257 322.185 306.257 323.192V329.234Z" fill="white"/>
</g>
<path d="M128.136 325.932H111.759V251.475L128.136 252.251V325.932Z" fill="white"/>
<path d="M154.419 281.274V298.13L84.0066 296.859V279.244L154.419 281.274Z" fill="white"/>
<path d="M395.209 268.727L242.002 262.52C238.667 262.421 236.141 266.152 236.521 269.239L259.783 457.826C260.311 462.119 264.752 463.208 268.07 463.043L418.257 455.466C421.146 455.317 423.209 452.857 422.846 449.984L401.153 274.109C400.773 271.237 398.132 268.826 395.209 268.727Z" fill="#2D8CD6"/>
<path d="M397.653 267.11L244.049 262.239C240.698 262.14 238.304 264.567 238.684 267.687L262.143 457.909C262.523 461.029 265.528 463.423 268.846 463.242L420.882 455.449C423.787 455.301 425.834 452.824 425.471 449.918L403.596 272.508C403.233 269.635 400.575 267.192 397.653 267.11Z" fill="#D1D1D4"/>
<path opacity="0.74" d="M268.516 460.683C266.733 460.765 265.099 459.477 264.9 457.793L241.474 267.786C241.259 266.102 242.563 264.782 244.379 264.831L397.95 269.536C399.535 269.586 400.971 270.907 401.169 272.475L423.077 450.067C423.275 451.635 422.153 452.989 420.584 453.055L268.516 460.683Z" fill="white"/>
<path d="M409.573 447.822L279.396 454.013L257.653 277.791L389.018 281.126L409.573 447.822Z" fill="white"/>
<path d="M363.379 274.869C362.967 273.532 361.745 272.607 360.358 272.574L351.757 272.326C347.877 272.211 344.674 269.173 344.327 265.293L343.551 256.279C343.403 254.612 342.033 253.308 340.349 253.241L337.558 253.142C335.429 253.06 333.794 251.26 333.827 249.131C333.893 245.416 330.922 242.279 327.158 242.114C323.377 241.949 320.24 244.855 320.158 248.602C320.141 249.164 320.025 249.708 319.778 250.204C319.084 251.591 317.665 252.366 316.179 252.317L313.339 252.218C311.622 252.152 310.153 253.374 309.922 255.058L308.7 264.138C308.172 268.067 304.721 270.94 300.676 270.824L291.629 270.56C290.16 270.51 288.823 271.385 288.311 272.739L284.25 283.503C283.919 284.378 284.58 285.319 285.537 285.352L365.41 287.218C366.301 287.234 366.962 286.359 366.698 285.501L363.379 274.869ZM326.992 249.874C325.886 249.824 325.011 248.899 325.028 247.81C325.044 246.704 325.969 245.862 327.075 245.895C328.181 245.944 329.056 246.869 329.04 247.958C329.023 249.065 328.099 249.923 326.992 249.874Z" fill="#8B8D93"/>
<path opacity="0.2" d="M350.089 280.069C342.346 275.793 337.228 278.947 332.176 274.109C326.778 268.942 329.139 261.992 323.823 258.838C320.438 256.824 317.863 258.706 314.165 258.211C312.811 258.029 311.341 257.534 309.74 256.543L308.716 264.121C308.188 268.051 304.738 270.923 300.693 270.808L291.646 270.543C290.176 270.494 288.839 271.369 288.327 272.723L284.266 283.487C283.936 284.362 284.596 285.303 285.554 285.336L357.964 287.003C355.752 284.131 353.143 281.753 350.089 280.069Z" fill="white"/>
<path d="M296.07 362.996L297.308 372.985L286.726 373.117L285.488 363.079L296.07 362.996ZM297.127 361.725L284.117 361.824L285.669 374.404L298.662 374.239L297.127 361.725Z" fill="#D1D1D4"/>
<path d="M388.077 373.133L303.483 374.173L301.948 361.692L386.591 361.048L388.077 373.133Z" fill="#D1D1D4"/>
<path d="M298.316 381.239L299.554 391.228L288.988 391.442L287.75 381.404L298.316 381.239ZM299.372 379.952L286.379 380.133L287.931 392.713L300.924 392.466L299.372 379.952Z" fill="#D1D1D4"/>
<path d="M390.257 390.749L305.728 392.383L304.193 379.886L388.754 378.664L390.257 390.749Z" fill="#D1D1D4"/>
<path d="M282.764 350.796C282.599 350.796 282.45 350.73 282.318 350.614C282.186 350.499 282.103 350.334 282.087 350.168L274.856 291.477C274.839 291.312 274.872 291.147 274.988 291.032C275.087 290.916 275.235 290.85 275.4 290.85L328 291.841C328.346 291.841 328.643 292.138 328.693 292.485L335.792 350.036C335.842 350.383 335.594 350.664 335.247 350.664L282.764 350.796ZM276.127 292.105L283.209 349.525L334.438 349.36L327.504 293.095L276.127 292.105Z" fill="#D1D1D4"/>
<path d="M379.162 300.855L337.41 300.178L336.485 292.617L378.254 293.426L379.162 300.855Z" fill="#D1D1D4"/>
<path d="M381.193 317.364L339.49 316.951L339.028 313.187L380.747 313.649L381.193 317.364Z" fill="#D1D1D4"/>
<path d="M381.952 323.489L340.25 323.192L339.787 319.411L381.49 319.775L381.952 323.489Z" fill="#D1D1D4"/>
<path d="M382.712 329.614L341.025 329.416L340.563 325.635L382.25 325.9L382.712 329.614Z" fill="#D1D1D4"/>
<path d="M297.457 315.928C297.044 315.598 296.318 315.036 295.889 314.095C295.278 312.791 295.839 312.048 295.558 310.628C295.278 309.242 294.502 308.845 293.528 307.31C292.966 306.435 290.985 303.282 291.91 300.706C292.735 298.378 295.773 296.909 298.068 297.602C300 298.197 300.247 299.963 302.327 300.343C304.044 300.657 304.474 299.567 306.207 300.062C306.818 300.244 307.676 300.888 309.393 302.176C310.731 303.183 311.391 303.694 311.672 304.19C312.431 305.527 312.084 306.93 311.919 307.64C311.507 309.374 310.698 309.39 310.367 310.81C309.905 312.758 311.193 313.633 310.879 314.954C310.103 318.19 300.924 318.669 297.457 315.928Z" fill="#2F313D"/>
<path d="M284.448 348.088L281.658 325.57L289.07 324.513L321.676 324.331L330.212 325.718L332.952 347.989L284.448 348.088Z" fill="#E84855"/>
<path d="M305.431 310.084C306.24 313.567 307.049 317.067 307.858 320.551C308.073 321.492 308.948 322.235 309.922 322.334C313.801 322.664 317.797 324.001 321.66 324.331L305.283 329.598L289.054 324.513C293.066 323.952 296.351 323.192 299.257 322.301C300 322.07 300.478 321.426 300.478 320.65C300.478 318.487 300.462 316.341 300.462 314.178L305.431 310.084Z" fill="#FFC980"/>
<path d="M310.962 312.444C310.863 313.584 309.79 314.937 309.311 314.838C308.816 314.739 308.518 313.732 308.617 312.609C308.717 311.47 309.195 310.645 309.691 310.744C310.169 310.826 311.061 311.305 310.962 312.444Z" fill="#FFC980"/>
<path d="M295.344 312.263C295.74 313.402 297.143 314.805 297.606 314.706C298.068 314.607 298.134 313.617 297.754 312.477C297.375 311.338 296.665 310.48 296.202 310.579C295.74 310.661 294.964 311.124 295.344 312.263Z" fill="#FFC980"/>
<path d="M309.542 309.753C310.169 314.871 307.907 320.831 304.209 320.798C300.495 320.765 296.731 314.723 296.087 309.588C295.459 304.454 298.2 302.192 301.915 302.242C305.629 302.308 308.915 304.635 309.542 309.753Z" fill="#FFC980"/>
<path d="M294.073 306.534C294.287 307.426 295.014 308.994 296.384 309.506C297.705 309.985 298.794 309.176 304.21 307.128C305.151 306.765 305.563 306.633 306.092 306.782C308.485 307.475 308.783 312.742 309.608 312.775C310.269 312.808 311.325 309.539 309.872 306.369C308.518 303.43 305.662 302.06 304.985 301.73C304.688 301.581 300 299.485 296.582 301.697C296.087 302.011 293.429 303.843 294.073 306.534Z" fill="#2F313D"/>
<path d="M291.844 372.39C291.514 372.39 291.167 372.225 290.969 371.961L287.073 366.876C286.743 366.43 286.809 365.852 287.238 365.588C287.667 365.308 288.278 365.44 288.608 365.886L291.497 369.65L295.228 361.874C295.443 361.428 296.021 361.279 296.516 361.527C297.011 361.791 297.226 362.353 297.011 362.798L292.636 371.911C292.488 372.209 292.191 372.39 291.844 372.39C291.844 372.39 291.86 372.39 291.844 372.39Z" fill="#E84855"/>
<path d="M294.139 390.996C293.808 390.996 293.462 390.848 293.264 390.567L289.367 385.499C289.037 385.07 289.103 384.475 289.532 384.211C289.962 383.93 290.573 384.062 290.903 384.492L293.792 388.239L297.523 380.43C297.738 379.985 298.315 379.82 298.811 380.084C299.306 380.331 299.521 380.909 299.306 381.355L294.931 390.518C294.782 390.815 294.485 390.996 294.139 390.996C294.139 390.996 294.155 390.996 294.139 390.996Z" fill="#E84855"/>
</g>
<defs>
<clipPath id="clip0_1308_97333">
<rect width="490" height="396" fill="white"/>
</clipPath>
</defs>
</svg>
