<svg width="260" height="201" viewBox="0 0 260 201" fill="none" xmlns="http://www.w3.org/2000/svg">
<g clip-path="url(#clip0_1326_105619)">
<path d="M215.818 89.3457C215.818 89.3457 217.228 83.8181 219.567 82.3639C221.915 80.9097 225.226 79.3504 225.988 78.7022C226.75 78.0627 227.635 79.9724 225.445 81.4441C223.255 82.907 223.255 82.907 223.255 82.907C223.211 83.31 223.272 83.6253 223.342 83.8444C223.693 84.878 224.875 85.5964 226.33 85.7278C231.945 86.9016 234.135 86.963 234.993 86.7089C235.125 86.6739 235.607 86.5162 235.817 86.7264C236.15 87.0768 235.554 88.1806 235.3 88.5661C233.784 90.8875 228.511 91.8949 224.56 90.0816C223.115 89.4158 222.563 88.7062 221.512 88.8902C219.838 89.1705 218.813 91.378 218.209 93.2001L215.818 89.3457Z" fill="#FFC980"/>
<path d="M220.346 91.0979C218.752 89.6788 217.149 88.2596 215.555 86.8317C214.968 87.4187 206.435 95.7495 194.504 93.2266C186.287 91.4921 181.548 84.7468 178.517 80.4369C169.398 67.507 174.855 58.011 165.035 49.2246C162.311 46.7805 156.967 43.8284 153.472 44.7307C145.141 46.8769 140.349 71.922 148.408 91.6235C150.038 95.6006 158.991 117.492 179.314 119.866C195.722 121.793 213.119 110.23 220.346 91.0979Z" fill="white"/>
<path opacity="0.15" d="M155.329 68.7154C170.353 80.5766 168.679 103.335 177.913 104.483C180.733 104.833 180.576 102.67 187.303 100.488C197.141 97.2909 201.766 100.523 208.687 98.0881C211.551 97.0807 215.283 94.9345 218.954 89.8623C219.418 90.2741 219.882 90.6858 220.347 91.0975C213.119 110.23 195.722 121.784 179.314 119.874C158.991 117.5 150.038 95.609 148.408 91.6319C144.624 82.39 143.678 71.9654 144.589 63.2842C148.058 64.3004 151.816 65.9473 155.329 68.7154Z" fill="#35A7FF"/>
<path d="M87.517 44.5813C93.798 42.8206 102.996 40.7532 114.262 40.1137C130.328 39.2026 138.361 38.7471 144.055 42.5753C157.204 51.4142 147.024 71.8078 152.403 122.371C154.689 143.86 155.723 142.476 150.563 150.123C140.086 165.664 110.661 166.934 97.1881 153.461C90.0662 146.339 89.1464 145.936 88.9712 137.815C88.3054 105.744 87.7973 75.4607 87.517 44.5813Z" fill="#35A7FF"/>
<path d="M156.809 45.0639C148.452 40.7714 140.7 39.983 136.311 39.8691C132.334 49.6892 127.34 64.4938 124.975 83.0214C122.846 99.7357 123.836 110.8 124.984 133.769C125.702 148.275 126.438 169.3 126.219 195.203C130.643 196.622 134.261 196.955 136.687 197.008C145.29 197.201 148.163 194.091 156.941 194.958C160.769 195.335 161.724 196.071 163.012 195.212C166.603 192.812 163.914 183.929 162.109 174.284C159.324 159.366 162.355 162.432 159.63 138.28C157.37 118.255 154.26 107.024 157.151 105.877C158.728 105.246 160.191 46.7984 156.809 45.0639Z" fill="white"/>
<path opacity="0.15" d="M148.391 140.97C148.505 125.902 156.529 123.765 155.723 110.8C154.908 97.7384 146.586 97.0288 146.875 85.7896C147.226 72.1239 159.674 67.8139 159.192 55.3921C159.026 51.2047 157.44 47.5167 155.373 44.3894C147.576 40.7189 140.446 39.9743 136.32 39.8691C132.342 49.6892 127.349 64.4938 124.984 83.0214C122.855 99.7357 123.845 110.8 124.993 133.769C125.711 148.275 126.447 169.3 126.228 195.203C130.652 196.622 134.27 196.955 136.696 197.008C145.299 197.201 148.172 194.091 156.95 194.958C160.778 195.335 161.733 196.071 163.02 195.212C166.156 193.118 164.501 186.067 162.828 177.885C160.191 174.477 157.466 171.201 154.567 165.06C152.386 160.417 148.312 151.797 148.391 140.97Z" fill="#35A7FF"/>
<path d="M117.109 85.8332C119.08 93.3056 118.896 99.2537 118.685 104.738C117.529 134.969 116.942 150.167 116.434 154.477C113.973 175.379 112.238 174.074 112.834 182.562C113.149 187.109 113.894 190.998 111.415 193.854C108.454 197.262 104.187 195.422 93.6929 196.771C84.048 198.015 83.7939 200.074 73.3606 201.326C69.1207 201.835 57.5574 203.227 56.3485 199.934C55.7003 198.173 58.0918 195.282 60.3957 193.854C64.1538 191.524 67.3512 193.285 68.6214 191.428C70.0756 189.299 66.1511 186.583 66.0284 181.476C65.9058 176.386 69.6902 174.731 72.0379 168.485C74.2279 162.659 73.3431 157.71 73.0102 154.197C71.5035 138.543 78.3977 126.156 79.7555 105.412C81.8755 73.1048 68.0608 58.9134 77.4341 48.5677C82.515 42.9612 90.8633 42.3655 96.0931 42.4969C101.524 53.8062 106.194 62.6977 109.505 68.8123C113.079 75.4087 115.427 79.4208 117.109 85.8332Z" fill="white"/>
<path d="M138.15 77.5114C137.38 74.857 134.944 72.3166 135.899 69.1805C136.46 67.3321 137.94 66.1407 139.079 65.4312C146.569 63.7492 151.615 56.7411 150.87 49.3826C150.572 46.4305 149.363 43.7061 147.524 41.4985C142.951 40.2721 139 39.948 136.32 39.8779C132.342 49.698 127.349 64.5026 124.984 83.0302C123.977 90.9143 123.67 97.5545 123.749 104.773C125.045 100.629 126.867 97.5282 128.803 95.1805C132.071 91.1859 140.034 83.9676 138.15 77.5114Z" fill="white"/>
<g opacity="0.64">
<path opacity="0.3" d="M117.109 85.8329C115.418 79.4205 113.079 75.4083 109.505 68.8032C106.194 62.6887 101.516 53.7971 96.0931 42.4878C94.8229 42.4528 93.3775 42.4703 91.827 42.5842C83.5662 53.9986 83.0406 60.376 84.959 64.1604C86.8337 67.8484 90.7407 68.5667 91.2488 72.5525C92.046 78.781 82.988 80.9097 80.7629 89.3369C78.8182 96.6866 83.3647 104.036 87.6396 110.948C94.9105 122.704 101.568 124.158 101.323 130.448C101.069 137.001 93.798 137.115 90.8371 145.13C86.1942 157.701 100.622 166.732 96.2946 177.849C92.9395 186.469 82.8128 184.813 76.5756 195.886C75.5857 197.647 74.8849 199.425 74.3593 201.177C83.7939 199.916 84.3721 197.953 93.6929 196.753C104.187 195.404 108.454 197.244 111.415 193.836C113.902 190.98 113.158 187.091 112.834 182.544C112.238 174.056 113.973 175.361 116.434 154.46C116.942 150.158 117.529 134.951 118.685 104.72C118.896 99.2533 119.08 93.3052 117.109 85.8329Z" fill="#35A7FF"/>
</g>
<path d="M95.0594 68.3914C99.3168 72.1758 102.4 73.4548 102.935 77.0727C103.522 81.0498 100.202 82.3813 100.771 86.262C101.472 91.1064 106.973 91.1239 109.803 97.3173C111.66 101.373 110.039 102.985 111.152 108.232C111.826 111.43 113.508 115.889 118.072 120.838C118.256 116.029 118.466 110.676 118.694 104.746C118.904 99.262 119.088 93.3139 117.117 85.8415C115.427 79.4291 113.088 75.417 109.514 68.8119C106.202 62.7061 101.524 53.8058 96.1019 42.4965C93.0358 42.4265 88.9011 42.6017 84.9853 43.8894C83.6275 46.3597 83.4085 48.322 83.3647 49.382C83.0493 57.7216 92.2124 65.8597 95.0594 68.3914Z" fill="white"/>
<path d="M115.462 22.5586C115.506 27.3241 114.971 31.0997 114.463 33.6839C113.885 36.6448 113.473 37.4157 112.939 38.0377C112.142 38.975 110.933 39.7547 104.109 41.4541C100.394 42.374 99.9126 42.3477 99.8337 42.7156C99.4307 44.5114 109.566 50.6435 120.026 49.163C126.429 48.2608 132.255 44.6078 131.896 42.6893C131.537 40.7621 125.142 41.7958 123.232 38.3005C121.909 35.874 123.39 32.4225 125.15 29.5667C123.46 26.378 117.161 25.7473 115.462 22.5586Z" fill="#FFC980"/>
<path d="M127.349 24.4423C128.865 22.4362 128.952 18.9322 127.209 16.7159C125.711 14.8061 123.355 14.5346 121.935 14.3769C117.844 13.9039 112.685 15.6121 110.889 19.3789C109.829 21.6128 112.124 26.2469 112.483 27.0791C112.895 28.0252 113.631 28.3493 114.314 29.0588C115.26 30.0487 116.749 31.6168 119.176 34.2448C119.36 33.4652 119.649 32.5103 120.105 31.4679C120.28 31.0649 120.981 29.5056 122.049 28.2091C124.187 25.6074 125.913 26.3432 127.349 24.4423Z" fill="#2F313D"/>
<path d="M115.725 32.0281C115.725 32.0281 118.414 36.4432 123.766 36.0928C128.558 35.7775 129.268 25.0288 126.202 22.7424C125.177 21.9803 123.136 21.6649 121.471 22.1292C120.49 22.4008 120.157 22.8125 118.545 23.233C117.056 23.6184 116.636 23.452 116.189 23.8287C115.628 24.3017 115.216 25.4581 116.154 28.6029C115.243 27.6744 114.139 27.324 113.359 27.6919C113.237 27.7532 112.904 27.9722 112.72 28.3139C112.045 29.5578 113.167 31.1259 115.725 32.0281Z" fill="#FFC980"/>
<path d="M115.961 23.1982C116.189 23.3734 115.488 24.2319 115.435 25.4583C115.33 27.8323 117.731 30.6705 120.183 30.9158C121.629 31.056 122.032 30.1887 124.423 29.9347C125.904 29.777 127.139 29.9697 127.91 30.1362C128.663 32.7379 127.954 35.3309 126.219 36.531C124.344 37.8275 121.962 37.0391 120.963 36.715C120.297 36.496 118.151 35.7952 117.03 33.8329C115.865 31.7831 117.012 30.5567 115.672 29.1726C114.997 28.4717 114.113 28.1739 113.245 26.8161C113.009 26.4482 112.851 26.124 112.755 25.905C113.99 24.5823 115.628 22.9441 115.961 23.1982Z" fill="#2F313D"/>
<path d="M98.5197 92.0615C101.253 97.8694 88.6908 111.386 74.7272 117.807C71.8802 119.113 51.4516 128.512 42.3499 119.481C34.8249 112.017 39.678 96.5817 41.4125 91.0716C49.9274 64.0116 74.0176 48.8478 84.9678 43.8809C93.141 64.327 90.3815 74.8391 88.4893 77.6861C86.5096 80.6558 80.9819 86.9018 75.1127 92.3943C70.9866 96.2575 68.4112 98.141 68.7616 98.7454C69.1908 99.4988 74.0264 98.0796 92.8256 88.9253C95.0069 89.2933 97.5911 90.0817 98.5197 92.0615Z" fill="white"/>
<path d="M145.01 58.134L111.739 61.2526C111.038 61.314 110.451 61.8045 110.258 62.4791L97.8451 105.833C97.5123 106.98 98.4408 108.102 99.6322 107.997L133.175 105.036C133.884 104.974 134.471 104.484 134.664 103.8L146.805 60.289C147.121 59.1327 146.192 58.0201 145.01 58.134Z" fill="#E84855"/>
<path d="M93.7805 90.7038C93.7805 90.7038 105.239 78.9828 109.899 77.2483C114.559 75.5138 110.433 87.8831 107.7 89.6263C104.967 91.3696 103.898 92.0354 101.77 92.3069C99.641 92.5697 99.641 92.5697 99.641 92.5697L96.8465 94.0589C96.8377 94.0677 93.2461 93.6384 93.7805 90.7038Z" fill="#FFC980"/>
<path opacity="0.2" d="M122.864 95.6273C124.117 88.7769 120.254 83.4595 123.959 77.0383C127.77 70.4332 134.462 71.5458 139.272 66.1057C140.805 64.3712 142.171 61.9184 142.846 58.3355L145.01 58.134C146.201 58.0201 147.13 59.1327 146.805 60.289L134.664 103.792C134.471 104.475 133.884 104.966 133.175 105.027L116.145 106.534C120.472 102.644 122.268 98.8948 122.864 95.6273Z" fill="white"/>
<path d="M193.9 229.174C193.9 231.767 192.06 234.001 189.8 234.141L30.4712 243.873C27.4489 244.049 24.05 241.499 24.05 238.477V126.987C24.05 123.974 27.5365 121.433 30.5588 121.556L189.791 128.371C192.051 128.468 193.891 130.667 193.891 133.26V229.174H193.9Z" fill="#2D8CD6"/>
<path d="M196.852 229.358C196.852 231.969 195.003 234.211 192.726 234.343L31.7063 243.891C28.6753 244.075 26.1787 241.736 26.1787 238.705V126.672C26.1787 123.641 28.6753 121.259 31.7063 121.39L192.726 128.065C194.995 128.162 196.852 130.369 196.852 132.98V229.358Z" fill="#35A7FF"/>
<g opacity="0.3">
<path opacity="0.6" d="M162.504 149.247C162.504 149.781 162.101 150.193 161.592 150.184L94.3411 148.353C93.8155 148.336 93.3775 147.889 93.3775 147.337V135.476C93.3775 134.933 93.8067 134.504 94.3411 134.521L161.592 136.729C162.092 136.746 162.504 137.184 162.504 137.718V149.247Z" fill="white"/>
<path opacity="0.6" d="M162.504 162.536C162.504 163.07 162.101 163.491 161.592 163.473L94.3411 162.019C93.8155 162.01 93.3775 161.555 93.3775 161.012V157.718C93.3775 157.175 93.8067 156.737 94.3411 156.754L161.592 158.349C162.092 158.358 162.504 158.804 162.504 159.33V162.536Z" fill="white"/>
<path opacity="0.6" d="M162.504 174.695C162.504 175.229 162.101 175.65 161.592 175.641L94.3411 174.529C93.8155 174.52 93.3775 174.073 93.3775 173.521V170.227C93.3775 169.684 93.8067 169.246 94.3411 169.255L161.592 170.508C162.092 170.516 162.504 170.954 162.504 171.489V174.695Z" fill="white"/>
</g>
<path d="M67.9907 172.944H59.3007V133.436L67.9907 133.847V172.944Z" fill="white"/>
<path d="M81.9368 149.247V158.191L44.5749 157.517V148.17L81.9368 149.247Z" fill="white"/>
<path d="M209.703 142.59L128.409 139.296C126.64 139.243 125.299 141.223 125.501 142.861L137.844 242.928C138.124 245.206 140.481 245.784 142.241 245.696L221.932 241.675C223.465 241.596 224.56 240.291 224.367 238.767L212.857 145.446C212.655 143.921 211.254 142.642 209.703 142.59Z" fill="#2D8CD6"/>
<path d="M210.999 141.731L129.495 139.147C127.717 139.095 126.447 140.382 126.648 142.038L139.096 242.972C139.298 244.628 140.892 245.898 142.653 245.801L223.325 241.667C224.867 241.588 225.953 240.274 225.76 238.732L214.153 144.596C213.96 143.072 212.55 141.775 210.999 141.731Z" fill="#D1D1D4"/>
<path opacity="0.74" d="M142.478 244.443C141.532 244.487 140.665 243.804 140.559 242.91L128.129 142.09C128.015 141.197 128.707 140.496 129.671 140.522L211.157 143.019C211.998 143.045 212.76 143.746 212.865 144.578L224.49 238.811C224.595 239.643 223.999 240.361 223.167 240.396L142.478 244.443Z" fill="white"/>
<path d="M217.324 237.62L148.251 240.905L136.714 147.399L206.418 149.169L217.324 237.62Z" fill="white"/>
<path d="M192.813 145.848C192.594 145.139 191.946 144.648 191.21 144.631L186.646 144.499C184.588 144.438 182.888 142.826 182.704 140.768L182.293 135.985C182.214 135.1 181.487 134.408 180.593 134.373L179.113 134.32C177.983 134.276 177.115 133.321 177.133 132.191C177.168 130.22 175.591 128.556 173.594 128.468C171.588 128.381 169.923 129.923 169.88 131.911C169.871 132.209 169.809 132.498 169.678 132.761C169.31 133.497 168.557 133.908 167.768 133.882L166.262 133.83C165.351 133.795 164.571 134.443 164.448 135.336L163.8 140.154C163.52 142.239 161.689 143.764 159.543 143.702L154.742 143.562C153.962 143.536 153.253 144 152.981 144.718L150.826 150.43C150.651 150.894 151.001 151.394 151.51 151.411L193.891 152.401C194.364 152.41 194.714 151.945 194.574 151.49L192.813 145.848ZM173.506 132.586C172.919 132.559 172.455 132.069 172.464 131.491C172.472 130.904 172.963 130.457 173.55 130.474C174.137 130.501 174.601 130.991 174.592 131.569C174.584 132.156 174.093 132.612 173.506 132.586Z" fill="#8B8D93"/>
<path opacity="0.2" d="M185.762 148.608C181.653 146.339 178.937 148.012 176.257 145.446C173.392 142.704 174.645 139.016 171.824 137.343C170.028 136.274 168.662 137.273 166.7 137.01C165.981 136.913 165.202 136.651 164.352 136.125L163.809 140.146C163.528 142.231 161.698 143.755 159.551 143.694L154.751 143.554C153.971 143.527 153.262 143.992 152.99 144.71L150.835 150.421C150.66 150.886 151.01 151.385 151.518 151.403L189.94 152.287C188.766 150.763 187.382 149.502 185.762 148.608Z" fill="white"/>
<path d="M157.099 192.61L157.756 197.91L152.14 197.98L151.483 192.654L157.099 192.61ZM157.659 191.936L150.756 191.988L151.58 198.663L158.474 198.576L157.659 191.936Z" fill="#D1D1D4"/>
<path d="M205.919 197.989L161.032 198.54L160.217 191.918L205.13 191.576L205.919 197.989Z" fill="#D1D1D4"/>
<path d="M207.075 207.335L162.223 208.203L161.408 201.571L206.278 200.923L207.075 207.335Z" fill="#D1D1D4"/>
<path d="M150.038 186.136C149.95 186.136 149.871 186.101 149.801 186.04C149.731 185.978 149.687 185.891 149.679 185.803L145.842 154.661C145.833 154.573 145.851 154.486 145.912 154.424C145.964 154.363 146.043 154.328 146.131 154.328L174.041 154.854C174.225 154.854 174.382 155.011 174.408 155.195L178.175 185.733C178.202 185.917 178.07 186.066 177.886 186.066L150.038 186.136ZM146.516 154.994L150.274 185.462L177.457 185.374L173.778 155.519L146.516 154.994Z" fill="#D1D1D4"/>
<path d="M201.188 159.637L179.034 159.278L178.543 155.266L200.706 155.695L201.188 159.637Z" fill="#D1D1D4"/>
<path d="M202.266 168.397L180.138 168.178L179.892 166.181L202.029 166.426L202.266 168.397Z" fill="#D1D1D4"/>
<path d="M202.669 171.647L180.541 171.489L180.295 169.483L202.423 169.676L202.669 171.647Z" fill="#D1D1D4"/>
<path d="M203.072 174.897L180.952 174.792L180.707 172.786L202.826 172.926L203.072 174.897Z" fill="#D1D1D4"/>
<path d="M157.834 167.635C157.615 167.459 157.23 167.162 157.002 166.662C156.678 165.97 156.976 165.576 156.827 164.823C156.678 164.087 156.266 163.877 155.749 163.062C155.452 162.598 154.4 160.924 154.891 159.558C155.329 158.323 156.941 157.543 158.159 157.911C159.183 158.226 159.315 159.164 160.419 159.365C161.33 159.532 161.557 158.953 162.477 159.216C162.801 159.313 163.257 159.654 164.168 160.337C164.878 160.872 165.228 161.143 165.377 161.406C165.78 162.116 165.596 162.86 165.508 163.237C165.289 164.157 164.86 164.166 164.685 164.919C164.439 165.953 165.123 166.417 164.956 167.118C164.545 168.835 159.674 169.089 157.834 167.635Z" fill="#2F313D"/>
<path d="M150.931 184.7L149.451 172.751L153.384 172.19L170.685 172.094L175.214 172.83L176.669 184.647L150.931 184.7Z" fill="#E84855"/>
<path d="M162.066 164.533C162.495 166.382 162.924 168.239 163.353 170.087C163.467 170.586 163.931 170.981 164.448 171.033C166.507 171.208 168.627 171.918 170.677 172.093L161.987 174.888L153.375 172.19C155.504 171.892 157.247 171.489 158.789 171.016C159.183 170.893 159.437 170.551 159.437 170.14C159.437 168.992 159.429 167.853 159.429 166.706L162.066 164.533Z" fill="#FFC980"/>
<path d="M165 165.786C164.948 166.391 164.378 167.109 164.124 167.057C163.861 167.004 163.704 166.47 163.756 165.874C163.809 165.27 164.063 164.832 164.326 164.884C164.58 164.928 165.053 165.182 165 165.786Z" fill="#FFC980"/>
<path d="M156.713 165.69C156.923 166.294 157.668 167.039 157.913 166.986C158.158 166.934 158.194 166.408 157.992 165.804C157.791 165.199 157.414 164.744 157.169 164.796C156.923 164.84 156.512 165.085 156.713 165.69Z" fill="#FFC980"/>
<path d="M164.247 164.358C164.58 167.074 163.38 170.236 161.417 170.219C159.446 170.201 157.449 166.995 157.107 164.271C156.774 161.546 158.229 160.346 160.2 160.372C162.171 160.408 163.914 161.643 164.247 164.358Z" fill="#FFC980"/>
<path d="M156.039 162.65C156.152 163.124 156.538 163.956 157.265 164.227C157.966 164.481 158.544 164.052 161.417 162.966C161.917 162.773 162.136 162.703 162.416 162.782C163.686 163.15 163.844 165.944 164.282 165.962C164.632 165.979 165.193 164.245 164.422 162.563C163.704 161.004 162.188 160.276 161.829 160.101C161.671 160.022 159.183 158.91 157.37 160.084C157.107 160.25 155.697 161.223 156.039 162.65Z" fill="#2F313D"/>
<path d="M154.856 197.594C154.681 197.594 154.497 197.506 154.392 197.366L152.324 194.668C152.149 194.432 152.184 194.125 152.412 193.985C152.64 193.836 152.964 193.906 153.139 194.143L154.672 196.14L156.652 192.014C156.766 191.777 157.072 191.698 157.335 191.83C157.598 191.97 157.712 192.268 157.598 192.504L155.276 197.34C155.198 197.498 155.04 197.594 154.856 197.594C154.856 197.594 154.865 197.594 154.856 197.594Z" fill="#E84855"/>
</g>
<defs>
<clipPath id="clip0_1326_105619">
<rect width="260" height="201" fill="white"/>
</clipPath>
</defs>
</svg>
