<svg width="48" height="48" viewBox="0 0 48 48" fill="none" xmlns="http://www.w3.org/2000/svg">
<path d="M25.112 8H28C29.104 8 30 8.896 30 10V28H4" stroke="#181B27" stroke-width="1.5" stroke-linecap="round" stroke-linejoin="round"/>
<path d="M17 14V22" stroke="#181B27" stroke-width="1.5" stroke-linecap="round" stroke-linejoin="round"/>
<path d="M21 18H13" stroke="#181B27" stroke-width="1.5" stroke-linecap="round" stroke-linejoin="round"/>
<path d="M37.4082 34.5918C38.6454 35.829 38.6454 37.8349 37.4082 39.072C36.171 40.3092 34.1652 40.3092 32.928 39.072C31.6908 37.8349 31.6908 35.829 32.928 34.5918C34.1652 33.3546 36.171 33.3546 37.4082 34.5918" stroke="#181B27" stroke-width="1.5" stroke-linecap="round" stroke-linejoin="round"/>
<path d="M15.4081 34.5918C16.6453 35.829 16.6453 37.8349 15.4081 39.072C14.1709 40.3092 12.1651 40.3092 10.9279 39.072C9.69071 37.8349 9.69071 35.829 10.9279 34.5918C12.1651 33.3546 14.1709 33.3546 15.4081 34.5918" stroke="#181B27" stroke-width="1.5" stroke-linecap="round" stroke-linejoin="round"/>
<path d="M10 36.832H6C4.896 36.832 4 35.936 4 34.832V10C4 8.896 4.896 8 6 8H25" stroke="#181B27" stroke-width="1.5" stroke-linecap="round" stroke-linejoin="round"/>
<path d="M44 26H36V18H42.4" stroke="#181B27" stroke-width="1.5" stroke-linecap="round" stroke-linejoin="round"/>
<path d="M30.0001 12H38.6461C39.4641 12 40.2001 12.498 40.5021 13.258L43.7141 21.286C43.9021 21.758 44.0001 22.262 44.0001 22.77V34.666C44.0001 35.77 43.1041 36.666 42.0001 36.666H38.3381" stroke="#181B27" stroke-width="1.5" stroke-linecap="round" stroke-linejoin="round"/>
<path d="M32.0001 36.84H16.3401" stroke="#181B27" stroke-width="1.5" stroke-linecap="round" stroke-linejoin="round"/>
</svg>
