<svg width="48" height="48" viewBox="0 0 48 48" fill="none" xmlns="http://www.w3.org/2000/svg">
<path d="M14 10H10C8.896 10 8 10.896 8 12V42C8 43.104 8.896 44 10 44H38C39.104 44 40 43.104 40 42V12C40 10.896 39.104 10 38 10H34" stroke="#181B27" stroke-width="1.5" stroke-linecap="round" stroke-linejoin="round"/>
<path d="M16 32H32" stroke="#181B27" stroke-width="1.5" stroke-linecap="round" stroke-linejoin="round"/>
<path d="M20 38H28" stroke="#181B27" stroke-width="1.5" stroke-linecap="round" stroke-linejoin="round"/>
<path fill-rule="evenodd" clip-rule="evenodd" d="M18 8L18.894 6.212C19.572 4.856 20.958 4 22.472 4H25.528C27.044 4 28.428 4.856 29.106 6.212L30 8H32C33.104 8 34 8.896 34 10V12C34 13.104 33.104 14 32 14H16C14.896 14 14 13.104 14 12V10C14 8.896 14.896 8 16 8H18Z" stroke="#181B27" stroke-width="1.5" stroke-linecap="round" stroke-linejoin="round"/>
<path d="M21 23H27" stroke="#181B27" stroke-width="1.5" stroke-linecap="round" stroke-linejoin="round"/>
<path d="M24 20V26" stroke="#181B27" stroke-width="1.5" stroke-linecap="round" stroke-linejoin="round"/>
</svg>
