<svg width="412" height="244" viewBox="0 0 412 244" fill="none" xmlns="http://www.w3.org/2000/svg">
<path d="M375.158 139.866C375.158 139.866 377.699 129.793 381.964 127.161C386.229 124.529 392.264 121.67 393.626 120.491C394.987 119.311 396.621 122.805 392.627 125.482C388.634 128.159 388.634 128.159 388.634 128.159C388.544 128.885 388.68 129.475 388.816 129.883C389.451 131.789 391.584 133.06 394.261 133.332C404.471 135.465 408.464 135.555 410.006 135.102C410.233 135.056 411.141 134.739 411.504 135.147C412.094 135.782 411.005 137.779 410.551 138.505C407.783 142.725 398.209 144.54 390.994 141.273C388.362 140.048 387.364 138.777 385.458 139.095C382.418 139.594 380.557 143.632 379.468 146.945L375.158 139.866Z" fill="#FFC980"/>
<path d="M383.371 143.042C380.467 140.456 377.563 137.87 374.659 135.283C373.615 136.372 358.051 151.528 336.361 146.899C321.433 143.723 312.811 131.472 307.275 123.622C290.713 100.071 300.605 82.8286 282.772 66.8562C277.826 62.4094 268.07 57.055 261.718 58.6886C246.562 62.5909 237.85 108.148 252.506 143.995C255.456 151.21 271.746 191.05 308.727 195.361C338.585 198.9 370.257 177.846 383.371 143.042Z" fill="white"/>
<path d="M208.265 73.9802C214.617 68.1267 226.733 61.3657 232.813 45.6203C234.628 40.9012 241.117 24.1121 231.543 11.316C225.871 3.69287 215.298 -1.47998 205.996 0.380437C198.055 1.92322 196.785 7.50444 183.308 18.6216C178.044 22.9776 169.605 29.9202 160.166 33.8225C144.058 40.4474 134.347 34.2309 118.194 34.9115C98.3189 35.7737 75.2225 46.8908 64.06 63.0446C44.3215 91.6769 72.9083 120.717 51.264 154.296C44.1853 165.277 40.6914 162.826 23.9023 184.108C7.06779 205.434 -1.32677 216.052 0.170639 229.121C2.25793 247.226 21.7696 264.559 40.1469 265.739C58.1158 266.874 69.5051 252.762 78.6711 258.933C85.1598 263.334 81.439 271.865 88.3815 282.165C97.2752 295.415 114.79 298.047 117.604 298.501C143.831 302.448 179.224 271.683 194.244 235.246C221.379 169.451 173.779 105.88 208.265 73.9802Z" fill="#2F313D"/>
<path opacity="0.2" d="M265.121 102.34C292.437 123.939 289.397 165.322 306.186 167.409C311.314 168.045 311.041 164.097 323.293 160.149C341.171 154.341 349.611 160.195 362.18 155.793C367.398 153.978 374.159 150.03 380.875 140.819C381.737 141.591 382.554 142.317 383.416 143.088C370.257 177.891 338.63 198.946 308.773 195.452C271.791 191.141 255.501 151.301 252.552 144.086C245.655 127.252 243.93 108.33 245.609 92.5391C251.871 94.3087 258.723 97.3035 265.121 102.34Z" fill="#35A7FF"/>
<path d="M284.95 69.6242C283.271 67.0378 277.962 59.823 255.365 54.514C244.021 51.8368 223.103 47.2992 196.149 53.0166C159.168 60.8666 136.117 83.0555 127.45 92.4029C134.574 97.0313 154.131 111.143 163.842 137.915C166.882 146.264 175.776 174.715 163.025 201.396C155.674 216.779 142.651 228.304 132.805 237.062C118.012 250.221 110.298 252.217 105.352 264.015C99.9524 276.856 105.398 283.073 98.6819 291.876C91.4671 301.314 83.0272 296.912 70.7756 306.441C58.2519 316.197 62.6987 324.229 51.3094 335.028C34.7471 350.728 12.7851 345.601 11.7869 352.68C10.9247 358.76 26.5341 366.973 39.7839 370.331C66.0565 376.956 88.926 365.839 95.7324 362.435C114.609 352.952 111.342 346.826 125.726 339.611C149.775 327.541 166.247 340.973 221.061 342.379C250.737 343.151 265.756 343.287 273.969 333.259C281.502 324.093 277.554 314.019 273.016 270.64C271.564 256.165 268.524 225.808 268.524 208.565C268.524 198.356 272.064 181.658 279.142 148.306C279.551 146.355 283.407 128.295 286.493 104.201C289.261 82.3748 288.853 75.7046 284.95 69.6242Z" fill="white"/>
<g opacity="0.2">
<path d="M51.3094 334.937C62.6988 324.138 58.2519 316.106 70.7757 306.351C82.9818 296.822 91.4672 301.178 98.6819 291.785C105.398 283.027 99.9525 276.765 105.352 263.924C110.298 252.172 118.012 250.13 132.805 236.971C142.697 228.213 155.674 216.688 163.025 201.305C175.776 174.624 166.882 146.173 163.842 137.824C154.131 111.052 134.529 96.9405 127.45 92.3121C128.131 91.5861 128.948 90.724 129.81 89.8618C176.592 96.3052 203.863 123.349 207.267 131.335C215.071 149.849 202.729 156.655 202.411 210.017C202.275 235.519 204.998 245.592 196.739 256.255C187.256 268.416 176.366 264.65 162.662 280.577C152.135 292.829 153.814 300.588 144.013 305.715C133.44 311.251 126.724 304.808 114.836 307.349C94.9157 311.614 90.6958 334.529 77.5367 347.098C67.5994 356.582 49.1767 363.207 12.9213 356.083C12.1046 354.857 11.6962 353.678 11.8323 352.543C12.7852 345.555 34.7472 350.638 51.3094 334.937Z" fill="#35A7FF"/>
</g>
<path d="M253.958 134.33C253.958 134.33 202.684 67.4007 173.552 60.0952C180.404 57.2365 187.891 54.7409 196.149 53.0166C219.291 48.116 237.986 50.7931 249.965 53.3342C252.733 62.0917 263.533 99.4362 253.958 134.33Z" fill="#35A7FF"/>
<path d="M193.064 145.765C198.055 156.338 175.186 180.931 149.775 192.593C144.602 194.953 107.439 212.059 90.8772 195.633C77.1736 182.066 86.0219 153.978 89.1982 143.95C104.671 94.717 152.225 69.6694 172.191 60.6396C187.074 97.8479 178.317 114.41 174.868 119.583C171.283 124.983 161.21 136.327 150.547 146.355C143.014 153.388 138.34 156.837 138.976 157.926C139.747 159.287 148.55 156.701 182.764 140.048C186.666 140.728 191.34 142.18 193.064 145.765Z" fill="white"/>
<path d="M211.35 24.0667C211.35 24.0667 208.991 42.943 202.048 47.2538C195.106 51.5645 183.807 57.2365 182.582 58.7339C181.357 60.2767 225.735 65.0412 247.697 53.9241C240.436 52.4267 238.485 51.8367 238.485 51.8367C236.534 51.2922 232.859 50.2486 229.183 48.1613C226.688 46.7546 222.649 43.9413 218.928 38.6777L219.019 28.2412L211.35 24.0667Z" fill="#FFC980"/>
<path d="M210.261 30.7369C210.261 30.7369 214.799 36.9534 221.923 34.367C228.276 32.0528 224.509 15.5813 219.427 13.7209C217.748 13.0856 214.663 13.3579 212.576 14.6738C211.124 15.5813 207.221 20.3912 209.445 25.8363C207.856 25.3825 206.404 25.7909 206.041 26.6077C205.588 27.6059 206.949 29.0126 207.267 29.3302C208.401 30.3285 209.671 30.6461 210.261 30.7369Z" fill="#FFC980"/>
<path d="M277.599 84.0083L217.068 89.6803C215.797 89.8165 214.754 90.6786 214.391 91.9038L191.793 170.767C191.204 172.855 192.882 174.896 195.061 174.715L256.091 169.315C257.362 169.224 258.451 168.317 258.814 167.046L280.912 87.9107C281.456 85.8687 279.777 83.8268 277.599 84.0083Z" fill="#E84855"/>
<path d="M184.397 143.315C184.397 143.315 205.225 121.988 213.71 118.857C222.195 115.726 214.663 138.187 209.717 141.364C204.726 144.54 202.82 145.765 198.917 146.219C195.06 146.718 195.06 146.718 195.06 146.718L189.978 149.44C189.978 149.395 183.444 148.624 184.397 143.315Z" fill="#FFC980"/>
<path opacity="0.2" d="M237.305 152.254C239.574 139.775 232.541 130.11 239.302 118.449C246.245 106.424 258.405 108.466 267.163 98.574C269.931 95.443 272.426 90.9508 273.652 84.4621L277.599 84.0991C279.777 83.9176 281.456 85.9141 280.866 88.0014L258.768 167.137C258.405 168.362 257.362 169.27 256.046 169.406L225.054 172.128C232.995 165.004 236.216 158.198 237.305 152.254Z" fill="white"/>
</svg>
