<svg width="350" height="185" viewBox="0 0 350 185" fill="none" xmlns="http://www.w3.org/2000/svg">
<g clip-path="url(#clip0_1045_86002)">
<path d="M180.003 52.8363C183.433 49.1613 173.927 35.3803 168.843 29.336C164.398 24.0533 159.832 18.6375 154.216 19.3266C149.288 19.931 144.493 25.1291 144.215 30.1097C143.442 43.516 175.123 58.0586 180.003 52.8363Z" fill="white"/>
<path d="M164.844 78.2344C165.061 95.2068 166.221 114.295 168.999 135.039C171.74 155.529 175.593 174.049 179.784 190.332C177.852 190.852 175.907 191.372 173.975 191.892C169.059 187.31 162.863 180.093 159.88 169.902C158.02 163.58 158.648 160.328 157.464 152.543C155.592 140.152 151.799 133.661 147.874 123.663C144.347 114.682 140.18 101.505 137.946 83.8918C146.92 82.006 155.882 80.1202 164.844 78.2344Z" fill="#181B27"/>
<path d="M147.377 76.6148C146.194 98.2051 145.215 120.194 144.479 142.582C143.923 159.374 143.512 175.959 143.247 192.327C141.266 192.569 139.297 192.811 137.316 193.065C135.408 189.498 132.871 184.059 131.132 177.083C129.019 168.609 129.514 163.58 128.584 154.792C127.545 144.94 126.035 142.8 123.366 130.373C117.943 105.156 115.225 92.5476 121.276 84.7021C123.233 82.1514 129.393 75.7686 147.377 76.6148Z" fill="#181B27"/>
<path d="M118.561 22.361C123.187 21.0554 129.975 19.5323 138.284 19.0608C150.133 18.3959 156.064 18.0574 160.267 20.8862C169.966 27.414 162.453 42.4765 166.427 79.8062C166.994 85.1373 167.115 90.5046 167.526 95.8599C168.202 104.709 168.359 105.192 167.743 106.087C163.878 111.708 149.481 103.222 128.38 106.582C116.568 108.456 111.217 112.784 107.98 109.665C104.212 106.026 107.449 96.2467 110.227 87.833C113.427 78.1742 115.396 78.0412 117.22 70.7639C119.116 63.1601 117.969 59.2434 117.679 47.2394C117.546 41.4852 117.582 32.9506 118.561 22.361Z" fill="white"/>
<g opacity="0.2">
<path d="M147.258 92.4511C141.739 92.0159 138.163 95.1348 133.405 92.705C126.87 89.3685 124.781 78.9965 125.191 71.6466C125.819 60.4888 132.185 57.5512 131.098 50.3343C130.506 46.4297 127.716 41.2558 117.727 35.9609C117.594 40.4096 117.618 44.2054 117.691 47.2276C117.981 59.2195 119.128 63.1362 117.232 70.752C115.42 78.0294 113.439 78.1503 110.239 87.8212C107.448 96.2349 104.212 106.027 107.992 109.653C111.229 112.772 116.58 108.444 128.392 106.571C146.57 103.681 159.771 109.569 165.545 107.659C158.576 96.1261 152.247 92.838 147.258 92.4511Z" fill="#35A7FF"/>
</g>
<path d="M126.085 23.1227C122.147 19.883 114.224 23.5458 112.11 24.525C100.298 29.989 89.7053 44.7251 92.3263 60.2832C92.7249 62.6163 94.5487 73.5323 103.789 78.8271C112.123 83.6021 123.379 82.3691 132.402 75.6115C133.634 74.5115 134.866 73.4235 136.098 72.3234C137.306 71.0058 138.525 69.7002 139.733 68.3825C137.825 66.7989 134.588 64.5021 130.034 63.0394C124.044 61.1052 119.671 64.5746 116.893 61.9393C114.973 60.1139 114.973 56.8983 115.444 54.94C116.398 51.0112 119.865 49.899 122.751 47.1066C129.551 40.5666 130.795 27.0032 126.085 23.1227Z" fill="white"/>
<path d="M181.984 73.8099L134.287 73.0967L146.969 79.2256L182.105 76.9288L181.984 73.8099Z" fill="#444B8C"/>
<path d="M132.607 74.3662C132.607 75.2608 133.163 76.0586 134.008 76.3608L149.251 82.3447L149.324 78.1983L134.298 73.0969C133.441 72.8551 132.607 73.4958 132.607 74.3662Z" fill="#181B27"/>
<path d="M136.158 71.4289C135.832 71.3563 137.74 67.5605 139.226 67.9957C140.723 68.4309 148.019 72.674 148.683 74.4148C149.347 76.1555 149.347 76.1555 149.347 76.1555C149.347 76.1555 146.159 76.4094 144.19 75.7445C142.221 75.0796 138.791 72.0212 136.158 71.4289Z" fill="url(#paint0_linear_1045_86002)"/>
<path d="M150.581 49.113L147.224 79.7456C147.103 80.7973 148.589 82.3809 149.651 82.3326L198.967 79.2983C199.776 79.262 200.452 78.6576 200.585 77.8598L206.781 48.2668C206.963 47.1909 205.03 46.0787 203.943 46.1029L152.26 47.5536C151.379 47.6019 150.666 48.2547 150.581 49.113Z" fill="#181B27"/>
<path d="M151.705 50.0078L148.347 80.6404C148.227 81.6921 149.084 82.6108 150.147 82.5624L200.09 80.1931C200.9 80.1568 201.576 79.5524 201.709 78.7545L206.806 49.0286C206.987 47.9527 206.142 46.9735 205.055 47.0098L153.372 48.4604C152.514 48.4846 151.802 49.1495 151.705 50.0078Z" fill="#E84855"/>
<path opacity="0.2" d="M181.029 73.0125C176.668 71.1629 178.202 67.633 173.057 63.2449C166.269 57.4423 159.336 59.9568 156.921 55.4719C156.172 54.0696 155.809 51.8937 157.126 48.3638L153.382 48.4726C152.524 48.4967 151.811 49.1495 151.715 50.0078L148.357 80.6404C148.236 81.6921 149.094 82.6109 150.157 82.5625L200.1 80.1931C200.909 80.1569 201.586 79.5524 201.719 78.7546L202.419 74.6565C200.909 73.8103 199.098 73.0488 196.984 72.6136C189.64 71.1267 186.053 75.1522 181.029 73.0125Z" fill="white"/>
<path d="M203.749 75.6356C203.833 75.3576 203.652 75.0795 203.362 75.0675C202.191 75.007 199.485 74.9828 197.988 75.9016C196.043 77.0983 193.531 79.2622 195.644 80.3623L197.625 81.3898C197.722 81.4382 197.818 81.4503 197.915 81.4261C198.616 81.2689 201.575 80.6161 201.901 80.4469C202.191 80.3018 203.314 76.9533 203.749 75.6356Z" fill="url(#paint1_linear_1045_86002)"/>
<path d="M139.177 6.10205C139.201 9.61984 138.815 12.4123 138.441 14.3223C138.018 16.5104 137.704 17.0785 137.317 17.5379C136.725 18.227 135.844 18.8072 130.807 20.0523C128.065 20.7293 127.715 20.7172 127.655 20.9832C127.365 22.3129 134.829 26.8341 142.547 25.7461C147.27 25.0812 151.57 22.3854 151.304 20.959C151.038 19.5325 146.316 20.2941 144.914 17.7192C143.936 15.9301 145.035 13.3794 146.328 11.2639C145.071 8.91871 140.433 8.44725 139.177 6.10205Z" fill="#FFC980"/>
<path d="M147.945 7.49195C149.056 6.00505 149.129 3.41809 147.849 1.78612C146.737 0.383839 144.998 0.178327 143.959 0.0574403C140.94 -0.29313 137.135 0.964088 135.807 3.74447C135.022 5.38853 136.725 8.8217 136.99 9.42613C137.292 10.1273 137.836 10.357 138.343 10.8889C139.044 11.6142 140.143 12.7747 141.93 14.721C142.075 14.1528 142.281 13.4396 142.619 12.6659C142.752 12.3758 143.271 11.2153 144.056 10.2603C145.602 8.33816 146.882 8.89423 147.945 7.49195Z" fill="#2F313D"/>
<path d="M139.371 13.0892C139.371 13.0892 141.352 16.3532 145.301 16.0872C148.84 15.8576 149.36 7.91532 147.101 6.235C146.352 5.67892 144.843 5.43714 143.611 5.78771C142.886 5.99322 142.644 6.29544 141.449 6.59766C140.349 6.88779 140.035 6.76689 139.709 7.04493C139.299 7.3955 138.985 8.25379 139.685 10.5748C139.009 9.88576 138.199 9.6319 137.632 9.89785C137.535 9.9462 137.294 10.1034 137.161 10.3572C136.653 11.2639 137.475 12.4244 139.371 13.0892Z" fill="#FFC980"/>
<path d="M139.539 6.57332C139.708 6.70629 139.189 7.33491 139.152 8.24156C139.08 9.99441 140.843 12.0978 142.655 12.2671C143.718 12.3759 144.02 11.7231 145.783 11.5417C146.87 11.4209 147.788 11.5659 148.356 11.6868C148.912 13.6089 148.392 15.5189 147.112 16.4135C145.735 17.3685 143.972 16.7882 143.235 16.5464C142.74 16.3893 141.157 15.8695 140.336 14.4188C139.478 12.9078 140.324 12.0011 139.334 10.9736C138.838 10.4538 138.186 10.2362 137.546 9.23282C137.377 8.96687 137.256 8.7251 137.184 8.55586C138.089 7.58877 139.297 6.3799 139.539 6.57332Z" fill="#2F313D"/>
<path d="M147.064 12.4001C147.064 12.4001 146.303 12.799 144.974 12.7265C144.914 12.7265 144.841 12.7385 144.829 12.7748C144.793 12.8957 145.651 13.4639 146.424 13.2463C146.979 13.0891 147.414 12.5693 147.329 12.4363C147.317 12.3638 147.197 12.3759 147.064 12.4001Z" fill="url(#paint2_linear_1045_86002)"/>
<path d="M215.647 209.173C215.393 209.173 215.163 208.98 215.139 208.714L205.996 109.793C205.972 109.515 206.177 109.273 206.455 109.249C206.733 109.224 206.974 109.43 206.999 109.708L215.139 197.737V107.568C215.139 107.29 215.369 107.061 215.647 107.061C215.924 107.061 216.154 107.29 216.154 107.568V208.678C216.154 208.944 215.936 209.173 215.671 209.185C215.659 209.173 215.659 209.173 215.647 209.173Z" fill="#B7C0CE"/>
<path d="M317.625 118.376L217.303 107.375L24.5469 116.151L125.497 128.24L317.625 118.376Z" fill="#D8DEE8"/>
<path d="M125.497 128.252L317.625 118.376V123.151L125.497 133.015L24.5469 120.914V116.151L125.497 128.252Z" fill="#B7C0CE"/>
<path d="M126.183 243.674C126.171 243.674 126.171 243.674 126.159 243.674C125.893 243.662 125.676 243.445 125.676 243.167V131.854C125.676 131.576 125.905 131.347 126.183 131.347C126.461 131.347 126.69 131.576 126.69 131.854V230.232L134.384 131.818C134.408 131.54 134.65 131.335 134.928 131.359C135.205 131.383 135.411 131.625 135.387 131.903L126.69 243.215C126.666 243.469 126.449 243.674 126.183 243.674Z" fill="#B7C0CE"/>
<path d="M25.656 223.897C25.6439 223.897 25.6439 223.897 25.6318 223.897C25.3661 223.885 25.1487 223.668 25.1487 223.39V120.648C25.1487 120.37 25.3782 120.141 25.656 120.141C25.9338 120.141 26.1632 120.37 26.1632 120.648V210.515L33.2169 120.612C33.2411 120.334 33.4826 120.129 33.7604 120.153C34.0382 120.177 34.2436 120.419 34.2194 120.697L26.1632 223.438C26.1391 223.692 25.9096 223.897 25.656 223.897Z" fill="#B7C0CE"/>
<path d="M316.668 223.897C316.403 223.897 316.185 223.691 316.161 223.438L307.598 120.696C307.573 120.418 307.779 120.177 308.057 120.152C308.334 120.128 308.576 120.334 308.6 120.612L316.149 211.264V123.15C316.149 122.872 316.378 122.643 316.656 122.643C316.934 122.643 317.164 122.872 317.164 123.15V223.401C317.164 223.667 316.946 223.897 316.68 223.909C316.693 223.897 316.68 223.897 316.668 223.897Z" fill="#B7C0CE"/>
<path d="M257.956 114.911L189.026 114.403V115.926C189.026 116.337 189.328 116.688 189.738 116.749L209.232 119.734C209.462 119.771 209.704 119.783 209.933 119.759L257.219 116.35C257.642 116.313 257.968 115.963 257.968 115.54V114.911H257.956Z" fill="#181B27"/>
<path d="M232.943 112.409L189.739 115.189C188.966 115.237 188.338 114.705 188.338 114.004V85.8982C188.338 85.1971 188.966 84.6289 189.739 84.6289H232.943C233.583 84.6289 234.09 85.1487 234.09 85.7773V111.188C234.09 111.816 233.583 112.36 232.943 112.409Z" fill="#444B8C"/>
<path d="M233.63 112.409L190.426 115.189C189.653 115.237 189.025 114.705 189.025 114.004V85.8982C189.025 85.1971 189.653 84.6289 190.426 84.6289H233.63C234.27 84.6289 234.778 85.1487 234.778 85.7773V111.188C234.778 111.816 234.27 112.36 233.63 112.409Z" fill="#181B27"/>
<path d="M232.29 110.62L192.046 113.038C191.418 113.074 190.91 112.639 190.91 112.07V87.458C190.91 86.8898 191.418 86.4184 192.046 86.4184L232.29 86.2612C232.81 86.2612 233.244 86.6843 233.244 87.2041V109.616C233.232 110.136 232.81 110.584 232.29 110.62Z" fill="#EFF2F6"/>
<path d="M213.557 85.3909C213.557 85.6568 213.339 85.8624 213.062 85.8624C212.784 85.8624 212.566 85.6568 212.566 85.3909C212.566 85.1249 212.784 84.9194 213.062 84.9194C213.327 84.9194 213.557 85.1249 213.557 85.3909Z" fill="white"/>
<path opacity="0.48" d="M223.4 104.708C220.054 103.076 217.421 105.144 214.885 103.101C213.339 101.868 214.1 100.937 212.203 99.0872C210.102 97.0442 208.737 97.7332 206.623 95.8837C203.954 93.5506 205.295 91.7373 202.988 90.0691C200.198 88.0382 197.19 89.924 194.545 87.9656C193.398 87.1315 192.77 85.9106 192.444 84.605H189.847C189.388 84.605 189.025 84.9435 189.025 85.3545V114.512C189.025 114.923 189.4 115.238 189.847 115.201L234.101 112.36C234.319 112.348 234.512 112.228 234.633 112.07C231.396 111.962 229.403 110.982 228.135 109.967C225.647 107.984 226.081 106.014 223.4 104.708Z" fill="white"/>
<path d="M235.358 112.324L189.026 115.25L209.22 118.344C209.45 118.381 209.691 118.393 209.921 118.369L257.956 114.899L236.082 112.336C235.841 112.324 235.599 112.312 235.358 112.324Z" fill="#181B27"/>
<path opacity="0.47" d="M195.789 115.274L234.355 112.808L246.288 114.198L208.048 116.845L195.789 115.274Z" fill="#D8DEE8"/>
<path d="M242.567 199.895C244.463 200.1 246.36 200.318 248.244 200.523C250.805 197.682 254.621 192.738 256.663 185.787C260.6 172.381 254.899 162.71 258.559 160.304C263.74 156.895 274.949 176.503 292.958 175.995C300.349 175.79 309.988 172.163 313.696 164.281C314.251 163.097 317.005 156.859 314.324 151.02C311.558 144.988 297.849 142.365 270.552 137.36C258.837 135.208 252.918 134.144 250.539 135.281C233.69 143.32 240.719 188.846 242.567 199.895Z" fill="#181B27"/>
<path d="M213.665 199.967C215.622 200.306 217.578 200.644 219.535 200.995C221.914 197.489 225.514 191.989 229.536 185.026C237.93 170.495 237.773 167.546 241.65 165.672C249.863 161.707 256.059 172.405 276.363 175.355C283.006 176.322 297.753 178.462 303.708 170.507C306.124 167.28 307.513 161.852 305.604 157.246C302.174 148.977 290.869 149.969 253.644 142.715C239.126 139.887 237.145 139.379 233.63 140.636C213.991 147.623 213.617 190.429 213.665 199.967Z" fill="#181B27"/>
<path opacity="0.1" d="M213.665 199.967C215.622 200.306 217.578 200.644 219.535 200.995C221.914 197.489 225.514 191.989 229.536 185.026C237.93 170.495 237.773 167.546 241.65 165.672C249.863 161.707 256.059 172.405 276.363 175.355C283.006 176.322 297.753 178.462 303.708 170.507C306.124 167.28 307.513 161.852 305.604 157.246C302.174 148.977 290.869 149.969 253.644 142.715C239.126 139.887 237.145 139.379 233.63 140.636C213.991 147.623 213.617 190.429 213.665 199.967Z" fill="white"/>
<path d="M254.343 86.1527C256.275 81.4261 260.43 78.7061 262.58 77.2917C263.655 76.5906 264.658 76.0587 265.66 75.6477C273.45 72.4684 281.229 72.686 282.618 72.7827C285.988 73.0366 294.297 73.6531 300.445 78.9962C303.429 81.5832 305.808 85.1856 309.287 105.531C314.13 133.891 310.204 130.989 314.021 142.486C316.038 148.566 319.191 155.554 315.857 160.002C314.782 161.441 313.248 161.852 310.108 163.266C298.404 168.537 287.908 167.63 281.531 167.002C274.513 166.3 270.962 165.914 269.102 163.423C266.131 159.458 269.187 154.417 269.718 145.701C270.105 139.439 268.68 134.483 265.829 124.558C259.222 101.493 250.635 95.2192 254.343 86.1527Z" fill="white"/>
<path d="M221.347 114.404L213.87 112.965C213.339 112.856 212.783 112.856 212.24 112.953L205.766 114.065C205.766 114.065 209.969 115.757 213.544 115.226C217.119 114.694 221.033 116.712 221.033 116.712L221.347 114.404Z" fill="url(#paint3_linear_1045_86002)"/>
<path d="M270.89 67.5486C269.634 65.6507 271.518 61.9878 272.255 60.5372C272.279 60.4888 272.315 60.4163 272.388 60.2954C273.535 58.1799 273.825 57.8897 274.368 57.5271L275.129 57.0556C275.129 57.0556 275.178 57.0435 275.214 57.0194C275.697 56.8501 277.364 56.7897 277.702 56.8622C278.777 57.0919 279.924 61.468 279.598 67.6695C279.647 67.9112 279.683 68.1409 279.731 68.3827C279.9 69.3619 280.033 70.3169 280.142 71.2598C280.238 72.1543 281.507 72.1302 282.412 72.0818C286.06 71.8521 287.848 72.1543 288.005 72.6983C288.295 73.7138 283.971 77.0502 278.62 77.7997C271.445 77.8481 265.612 77.0865 266.24 75.9623C266.518 75.4545 272.074 74.0039 273.644 72.5654C275.081 71.2477 274.96 69.8817 275.081 68.9025C274.308 68.9388 271.844 68.9992 270.89 67.5486Z" fill="url(#paint4_linear_1045_86002)"/>
<path d="M272.894 55.2905C272.303 56.5961 273.74 59.2073 274.259 59.582C274.32 59.6304 274.658 59.8842 274.948 60.3436C274.984 60.404 275.02 60.4766 275.056 60.5733C275.479 61.7821 273.559 63.2086 273.921 63.7405C274.187 64.1394 275.491 63.6075 275.648 63.946C275.793 64.2603 274.706 64.9252 274.875 65.312C274.996 65.6021 275.672 65.3362 276.095 65.7835C276.421 66.122 276.458 66.6055 276.47 66.8473C276.518 68.5639 272.629 74.7774 271.819 77.5699C270.962 80.5437 272.496 83.3724 278.088 91.1817C286.036 102.291 290.021 107.852 292.232 109.436C303.03 117.196 315.736 116.241 320.954 115.432C327.21 114.464 340.146 112.446 344.301 102.485C349.084 91.0245 339.663 75.3456 330 72.6861C325.58 71.4651 323.224 73.3147 317.487 71.3201C311.146 69.1078 311.919 65.2032 306.037 62.8943C298.21 59.8238 293.15 65.312 287.823 61.3107C284.924 59.1347 285.395 56.7412 281.832 54.9883C278.305 53.2959 273.667 53.586 272.894 55.2905Z" fill="#2F313D"/>
<path d="M274.634 63.2934C275.105 62.6527 275.926 63.2572 275.938 64.0913C275.938 64.9254 275.129 65.7958 274.344 65.6265C273.559 65.4694 273.994 64.1638 274.634 63.2934Z" fill="url(#paint5_linear_1045_86002)"/>
<path opacity="0.2" d="M287.583 158.769C285.517 154.659 290.578 149.183 287.268 142.909C284.466 137.578 279.357 138.774 277.014 133.891C274.188 127.991 280.336 123.579 280.118 114.609C279.852 103.887 270.637 93.1398 265.202 94.0827C261.687 94.6872 261.24 99.9336 258.764 105.676C260.95 110.475 263.499 116.483 265.818 124.558C268.668 134.483 270.081 139.439 269.707 145.701C269.175 154.417 266.107 159.458 269.091 163.423C270.951 165.901 274.502 166.3 281.519 167.001C287.897 167.63 298.393 168.537 310.096 163.266C311.582 162.601 312.693 162.093 313.587 161.61C295.313 164.366 289.213 162.033 287.583 158.769Z" fill="#35A7FF"/>
<path d="M219.449 116.592C219.667 115.637 219.872 114.682 220.089 113.727C234.462 116.302 240.743 113.412 243.787 110.028C246.577 106.921 245.381 105.325 249.85 93.4662C254.102 82.1754 258.921 79.2742 261.349 78.2345C262.701 77.6543 263.643 77.2553 264.767 77.5334C269.948 78.8027 271.651 92.3057 270.202 102.412C269.381 108.106 267.774 119.263 258.631 124.57C258.462 124.667 258.196 124.824 257.846 125.005C256.698 125.622 252.121 127.822 243.098 126.202C232.445 124.268 222.07 118.175 219.449 116.592Z" fill="white"/>
<path d="M287.717 210.52C286.461 210.834 285.29 210.822 284.191 210.544C283.188 210.29 282.512 209.36 282.512 208.332V172.888H289.493V208.284C289.481 209.36 288.744 210.266 287.717 210.52Z" fill="white"/>
<path d="M287.717 210.52C286.461 210.834 285.29 210.822 284.191 210.544C283.188 210.29 282.512 209.36 282.512 208.332V172.888H289.493V208.284C289.481 209.36 288.744 210.266 287.717 210.52Z" fill="#D8DEE8"/>
<path d="M249.103 157.983L259.768 151.238C260.215 148.711 265.239 122.346 285.651 114.053C293.949 110.68 302.887 111.079 307.791 111.309C317.574 111.744 324.555 112.059 327.913 116.737C332.225 122.733 324.99 128.173 326.488 145.339C327.104 152.338 328.65 155.445 326.717 160.087C324.398 165.635 319.024 168.718 314.844 170.447C309.856 173.348 301.16 177.482 289.673 178.498C270.324 180.19 255.891 171.885 250.927 168.706C248.716 168.005 247.062 166.167 246.59 163.907C246.119 161.598 247.11 159.24 249.103 157.983Z" fill="#35A7FF"/>
<path opacity="0.26" d="M254.007 162.782C254.405 160.413 261.012 162.371 267.256 157.729C276.605 150.778 271.749 139.016 279.878 127.725C287.342 117.365 302.356 112.095 307.018 116.036C313.226 121.294 298.032 140.938 307.018 153.619C311.378 159.784 318.033 159.482 318.057 163.097C318.106 168.802 301.571 175.391 285.869 175.101C268.996 174.798 253.379 166.554 254.007 162.782Z" fill="white"/>
<path d="M94.5015 198.154C92.6415 198.359 90.7814 198.565 88.9214 198.77C86.4091 195.99 82.6649 191.13 80.6599 184.3C76.819 171.22 82.834 162.625 78.7998 159.289C74.1497 155.433 64.9703 165.853 44.7151 168.803C38.1929 169.746 23.7232 171.849 17.8652 164.052C15.4858 160.885 14.121 155.554 16.0052 151.032C19.375 142.921 30.4749 143.888 67.0236 136.768C81.1068 134.024 83.3292 133.129 86.6748 134.725C103.222 142.607 96.3253 187.31 94.5015 198.154Z" fill="#181B27"/>
<path d="M95.5635 118.465L108.27 88.667C108.91 87.1801 108.052 85.4756 106.482 85.0888L83.2075 79.4313C81.9514 79.1291 80.659 79.7819 80.1638 80.9907L68.4721 109.629C67.8923 111.055 68.6533 112.675 70.1268 113.122L92.3869 119.94C93.6672 120.327 95.0442 119.686 95.5635 118.465Z" fill="#181B27"/>
<path d="M94.9963 117.027L106.869 89.1988C107.461 87.8087 106.664 86.213 105.202 85.8624L83.4616 80.5797C82.2901 80.2895 81.0822 80.9061 80.6233 82.0303L69.6925 108.77C69.149 110.1 69.8616 111.611 71.2385 112.034L92.0372 118.405C93.2208 118.768 94.5011 118.175 94.9963 117.027Z" fill="#EFF2F6"/>
<path d="M102.316 108.843L102.702 105.337L104.719 101.481C104.997 100.961 105.142 100.369 105.142 99.7764V95.9443L102.702 101.59C102.702 101.59 101.096 100.139 100.492 99.8369C99.8759 99.5347 99.9605 100.756 100.419 101.215C100.878 101.674 100.19 105.41 100.649 105.797L100.492 108.081L102.316 108.843Z" fill="url(#paint6_linear_1045_86002)"/>
<path d="M82.9549 86.4789C81.0586 81.8369 76.9882 79.1653 74.8745 77.7751C69.8742 74.4991 66.6734 75.0914 55.1991 73.3507C39.9081 71.0176 38.0722 68.8175 32.9269 70.6066C26.1752 72.9518 22.6483 79.0928 21.0299 81.8973C12.8771 96.0773 22.4068 103.282 19.967 131.509C18.9645 143.042 16.4039 153.063 22.5638 158.987C23.8562 160.232 25.3055 160.884 28.2043 162.19C39.7028 167.364 50.0055 166.469 56.2741 165.853C63.1707 165.176 66.6493 164.777 68.4731 162.347C71.396 158.455 68.3885 153.51 67.8571 144.94C67.4827 138.786 68.8717 133.915 71.6738 124.183C78.1598 101.541 86.5904 95.3762 82.9549 86.4789Z" fill="white"/>
<path d="M57.3504 64.9978C58.0509 62.5196 56.831 60.2107 56.5653 59.715C55.4421 57.6358 55.1522 57.3578 54.6207 56.9951L53.8719 56.5357C53.8719 56.5357 53.8236 56.5237 53.7873 56.4995C53.3042 56.3302 51.6737 56.2819 51.3475 56.3544C50.2967 56.5841 49.1735 60.8756 49.4875 66.9561C49.4392 67.1858 49.4029 67.4155 49.3667 67.6573C49.1976 68.6123 49.0648 69.5552 48.9681 70.4739C48.8715 71.3564 47.6274 71.3322 46.7457 71.2718C43.1585 71.0421 41.4072 71.3443 41.2501 71.8883C40.9603 72.8917 45.2118 76.1677 50.4658 76.9051C57.5074 76.9535 63.2446 76.204 62.6286 75.0918C62.3508 74.5962 56.8914 73.1697 55.3575 71.7553C53.9564 70.4619 54.0651 69.12 53.9564 68.165C54.3671 67.9595 56.831 66.8232 57.3504 64.9978Z" fill="url(#paint7_linear_1045_86002)"/>
<path d="M56.0469 54.8191C56.0348 56.7049 55.1531 58.7116 54.7062 59.038C54.6458 59.0743 54.3197 59.3402 54.0298 59.7875C53.9936 59.8479 53.9574 59.9205 53.9211 60.0051C53.5105 61.1898 55.3947 62.5921 55.0323 63.124C54.7666 63.5108 53.4863 62.991 53.3293 63.3295C53.1844 63.6438 54.2473 64.2965 54.0902 64.6713C53.9695 64.9493 53.3172 64.6955 52.8945 65.1307C52.6892 65.3483 52.7495 65.5175 52.5321 66.1824C52.4114 66.5571 52.2302 66.9681 52.0973 67.1978C51.4451 68.2979 49.6092 68.7089 49.2469 68.2616C49.1502 68.1407 49.2348 68.0319 49.1382 67.6209C49.1382 67.6209 49.0415 67.2341 48.7758 66.7989C48.3893 66.1703 47.4714 65.7109 46.5413 65.0461C44.8262 63.813 44.3552 62.7492 44.2102 62.3986C44.1619 62.2657 44.1257 62.181 44.1015 62.1085C43.6547 60.7183 43.6547 58.6753 44.2706 57.4302C45.3094 55.3268 47.6767 56.3301 49.5971 54.2509C51.8195 51.8453 50.503 48.5692 51.7108 48.2066C53.0636 47.7593 56.059 51.3254 56.0469 54.8191Z" fill="#2F313D"/>
<path d="M54.3543 62.6766C53.8954 62.048 53.0861 62.6403 53.074 63.4624C53.074 64.2844 53.8591 65.1306 54.6321 64.9734C55.4051 64.8042 54.9703 63.5228 54.3543 62.6766Z" fill="url(#paint8_linear_1045_86002)"/>
<path opacity="0.2" d="M50.3073 157.778C52.3365 153.74 47.3723 148.361 50.6093 142.208C53.3631 136.973 58.3756 138.146 60.6704 133.359C63.4484 127.568 57.4093 123.241 57.6146 114.428C57.8683 103.899 66.927 93.3575 72.2534 94.2762C75.6957 94.8686 76.1426 100.018 78.5703 105.664C76.4204 110.378 73.9202 116.278 71.6495 124.208C68.8595 133.951 67.4584 138.823 67.8328 144.964C68.3522 153.523 71.3597 158.479 68.4488 162.371C66.625 164.813 63.1344 165.2 56.2498 165.877C49.9812 166.494 39.6785 167.388 28.18 162.214C26.7307 161.562 25.6315 161.066 24.7498 160.582C42.7222 163.266 48.7009 160.981 50.3073 157.778Z" fill="#35A7FF"/>
<path d="M103.004 108.154C101.881 107.671 100.77 107.187 99.6463 106.703C97.75 108.638 95.3465 110.523 93.3173 109.907C90.2978 109 91.0466 103.427 87.3628 93.6477C83.1958 82.5624 78.4611 79.7216 76.0817 78.682C74.7531 78.1017 73.8352 77.727 72.724 77.9929C67.6391 79.2381 65.9602 92.4993 67.3854 102.424C68.1947 108.009 69.7648 118.973 78.751 124.184C80.0313 124.921 87.0488 128.995 94.0058 125.791C99.9483 123.047 103.62 116.024 103.004 108.154Z" fill="white"/>
<path d="M111.097 203.412C109.237 203.618 107.377 203.823 105.517 204.029C103.005 201.248 99.2608 196.389 97.2558 189.559C93.415 176.479 99.4299 167.884 95.3958 164.547C90.7457 160.691 81.5662 171.111 61.3111 174.061C54.7888 175.004 40.3191 177.107 34.4612 169.31C32.0818 166.143 30.7169 160.812 32.6011 156.291C35.971 148.179 47.0708 149.146 83.6195 142.026C97.7027 139.282 99.9251 138.388 103.271 139.983C119.818 147.877 112.921 192.569 111.097 203.412Z" fill="#181B27"/>
<path opacity="0.1" d="M111.097 203.412C109.237 203.618 107.377 203.823 105.517 204.029C103.005 201.248 99.2608 196.389 97.2558 189.559C93.415 176.479 99.4299 167.884 95.3958 164.547C90.7457 160.691 81.5662 171.111 61.3111 174.061C54.7888 175.004 40.3191 177.107 34.4612 169.31C32.0818 166.143 30.7169 160.812 32.6011 156.291C35.971 148.179 47.0708 149.146 83.6195 142.026C97.7027 139.282 99.9251 138.388 103.271 139.983C119.818 147.877 112.921 192.569 111.097 203.412Z" fill="white"/>
<path d="M45.7646 213.047C46.9966 213.35 48.144 213.337 49.2311 213.072C50.2094 212.818 50.8858 211.911 50.8858 210.896V176.104H44.0253V210.859C44.0253 211.899 44.75 212.794 45.7646 213.047Z" fill="white"/>
<path d="M45.7646 213.047C46.9966 213.35 48.144 213.337 49.2311 213.072C50.2094 212.818 50.8858 211.911 50.8858 210.896V176.104H44.0253V210.859C44.0253 211.899 44.75 212.794 45.7646 213.047Z" fill="#D8DEE8"/>
<path d="M83.6771 161.453L73.2052 154.828C72.7704 152.35 67.8304 126.456 47.7927 118.321C39.6399 115.008 30.8711 115.407 26.0519 115.625C16.4376 116.06 9.58928 116.362 6.29193 120.944C2.05248 126.831 9.15447 132.174 7.693 149.026C7.08909 155.892 5.56724 158.951 7.46352 163.508C9.73422 168.96 15.0124 171.982 19.119 173.687C24.0228 176.54 32.562 180.601 43.831 181.581C62.8301 183.249 77.0099 175.089 81.8774 171.97C84.0515 171.281 85.67 169.48 86.141 167.256C86.6121 164.995 85.6337 162.686 83.6771 161.453Z" fill="#35A7FF"/>
<path opacity="0.26" d="M78.8698 166.167C78.4833 163.834 71.9973 165.768 65.8616 161.211C56.6822 154.393 61.453 142.836 53.4693 131.751C46.15 121.572 31.4025 116.398 26.8248 120.279C20.7374 125.44 35.6419 144.734 26.8248 157.185C22.537 163.23 16.0148 162.939 15.9786 166.493C15.9303 172.103 32.1755 178.558 47.5873 178.28C64.1344 177.953 79.4737 169.866 78.8698 166.167Z" fill="white"/>
</g>
<defs>
<linearGradient id="paint0_linear_1045_86002" x1="149.357" y1="72.0876" x2="136.121" y2="72.0876" gradientUnits="userSpaceOnUse">
<stop stop-color="#FFC444"/>
<stop offset="0.9964" stop-color="#F36F56"/>
</linearGradient>
<linearGradient id="paint1_linear_1045_86002" x1="203.77" y1="78.2396" x2="194.841" y2="78.2396" gradientUnits="userSpaceOnUse">
<stop stop-color="#FFC444"/>
<stop offset="0.9964" stop-color="#F36F56"/>
</linearGradient>
<linearGradient id="paint2_linear_1045_86002" x1="147.357" y1="12.8357" x2="144.84" y2="12.8357" gradientUnits="userSpaceOnUse">
<stop stop-color="#FFC444"/>
<stop offset="0.9964" stop-color="#F36F56"/>
</linearGradient>
<linearGradient id="paint3_linear_1045_86002" x1="213.89" y1="113.164" x2="212.946" y2="117.469" gradientUnits="userSpaceOnUse">
<stop stop-color="#FFC444"/>
<stop offset="0.9964" stop-color="#F36F56"/>
</linearGradient>
<linearGradient id="paint4_linear_1045_86002" x1="268.656" y1="55.0934" x2="285.234" y2="93.0929" gradientUnits="userSpaceOnUse">
<stop stop-color="#FFC444"/>
<stop offset="0.9964" stop-color="#F36F56"/>
</linearGradient>
<linearGradient id="paint5_linear_1045_86002" x1="270.268" y1="53.8332" x2="288.777" y2="96.2594" gradientUnits="userSpaceOnUse">
<stop stop-color="#FFC444"/>
<stop offset="0.9964" stop-color="#F36F56"/>
</linearGradient>
<linearGradient id="paint6_linear_1045_86002" x1="101.964" y1="98.1168" x2="105.478" y2="114.145" gradientUnits="userSpaceOnUse">
<stop stop-color="#FFC444"/>
<stop offset="0.9964" stop-color="#F36F56"/>
</linearGradient>
<linearGradient id="paint7_linear_1045_86002" x1="60.2184" y1="54.6172" x2="43.9411" y2="91.9277" gradientUnits="userSpaceOnUse">
<stop stop-color="#FFC444"/>
<stop offset="0.9964" stop-color="#F36F56"/>
</linearGradient>
<linearGradient id="paint8_linear_1045_86002" x1="58.6343" y1="53.3793" x2="40.4607" y2="95.0367" gradientUnits="userSpaceOnUse">
<stop stop-color="#FFC444"/>
<stop offset="0.9964" stop-color="#F36F56"/>
</linearGradient>
<clipPath id="clip0_1045_86002">
<rect width="350" height="185" fill="white"/>
</clipPath>
</defs>
</svg>
