<svg width="592" height="340" viewBox="0 0 592 340" fill="none" xmlns="http://www.w3.org/2000/svg">
<path d="M303.947 89.2179C309.739 83.0125 293.688 59.7422 285.102 49.536C277.597 40.6157 269.887 31.4709 260.404 32.6344C252.083 33.655 243.986 42.4324 243.517 50.8424C242.211 73.4799 295.707 98.0361 303.947 89.2179Z" fill="white"/>
<path d="M234.318 328.432C233.217 329.331 233.033 331.535 232.89 332.984C232.829 333.638 232.809 333.964 232.87 334.189C233.4 335.863 236.623 336.026 241.701 336.557C249.716 337.373 252.102 338.006 252.714 336.822C253.306 335.699 251.878 333.883 251.715 333.678C250.858 332.597 249.798 332.209 247.758 331.535C243.985 330.29 241.416 329.616 240.661 329.392C235.848 328.085 235.032 327.84 234.318 328.432Z" fill="url(#paint0_linear_1308_97041)"/>
<path d="M239.09 321.104L239.885 330.249C239.661 330.698 236.948 332.005 234.786 330.882L232.726 321.9L239.09 321.104Z" fill="url(#paint1_linear_1308_97041)"/>
<path d="M297.848 327.249C296.543 328.698 296.237 331.352 297.379 332.678C298.501 333.964 300.173 333.005 304.946 333.148C310.044 333.291 311.39 334.515 314.857 333.556C316.265 333.168 318.732 332.229 318.692 331.229C318.651 330.515 317.407 330.168 313.185 328.739C307.209 326.738 307.23 326.616 305.965 326.412C302.784 325.881 299.582 325.35 297.848 327.249Z" fill="url(#paint2_linear_1308_97041)"/>
<path d="M301.131 318.92L303.701 327.453C303.518 327.902 300.907 329.433 298.664 328.473L294.85 320.186L301.131 318.92Z" fill="url(#paint3_linear_1308_97041)"/>
<path d="M278.35 132.105C278.718 160.764 280.675 192.995 285.366 228.023C289.996 262.622 296.502 293.894 303.579 321.39C300.316 322.268 297.032 323.145 293.769 324.023C285.468 316.287 275.006 304.101 269.968 286.893C266.827 276.217 267.888 270.726 265.889 257.58C262.728 236.658 256.324 225.696 249.696 208.815C243.74 193.648 236.704 171.399 232.931 141.658C248.084 138.473 263.217 135.289 278.35 132.105Z" fill="#181B27"/>
<path d="M248.86 129.369C246.861 165.826 245.209 202.957 243.965 240.761C243.027 269.114 242.333 297.12 241.885 324.758C238.54 325.166 235.215 325.575 231.871 326.003C228.648 319.982 224.365 310.796 221.428 299.018C217.859 284.709 218.695 276.217 217.125 261.377C215.371 244.741 212.822 241.128 208.314 220.144C199.157 177.563 194.568 156.273 204.786 143.025C208.09 138.718 218.492 127.941 248.86 129.369Z" fill="#181B27"/>
<path d="M200.197 37.7581C208.008 35.5536 219.47 32.9816 233.502 32.1855C253.509 31.0628 263.523 30.4913 270.621 35.2678C286.998 46.2906 274.312 71.7246 281.022 134.758C281.98 143.76 282.184 152.824 282.878 161.866C284.02 176.808 284.285 177.625 283.245 179.135C276.719 188.627 252.408 174.297 216.778 179.972C196.832 183.136 187.797 190.444 182.331 185.177C175.968 179.033 181.433 162.519 186.124 148.312C191.529 132.003 194.853 131.778 197.933 119.49C201.135 106.65 199.197 100.037 198.708 79.7671C198.484 70.0507 198.545 55.6395 200.197 37.7581Z" fill="white"/>
<g opacity="0.2">
<path d="M248.657 156.11C239.337 155.375 233.3 160.641 225.264 156.539C214.23 150.905 210.702 133.391 211.396 120.98C212.456 102.139 223.204 97.1789 221.369 84.9927C220.369 78.3994 215.658 69.6629 198.792 60.7222C198.567 68.234 198.608 74.6435 198.73 79.7467C199.22 99.9959 201.157 106.61 197.955 119.469C194.896 131.758 191.551 131.962 186.147 148.292C181.435 162.499 175.97 179.033 182.353 185.157C187.819 190.423 196.854 183.116 216.8 179.952C247.495 175.073 269.786 185.014 279.535 181.789C267.767 162.315 257.08 156.763 248.657 156.11Z" fill="#35A7FF"/>
</g>
<path d="M212.903 39.0441C206.255 33.5736 192.876 39.7585 189.306 41.412C169.36 50.6384 151.474 75.5213 155.9 101.792C156.573 105.732 159.652 124.164 175.254 133.105C189.327 141.168 208.335 139.086 223.57 127.675C225.65 125.818 227.731 123.981 229.811 122.123C231.85 119.898 233.91 117.694 235.95 115.469C232.727 112.795 227.261 108.916 219.573 106.446C209.457 103.18 202.074 109.039 197.383 104.589C194.14 101.506 194.14 96.0767 194.935 92.7699C196.547 86.1358 202.4 84.2578 207.274 79.5426C218.757 68.4994 220.857 45.5965 212.903 39.0441Z" fill="white"/>
<path d="M307.291 124.634L226.751 123.429L248.166 133.779L307.495 129.9L307.291 124.634Z" fill="#444B8C"/>
<path d="M223.916 125.573C223.916 127.083 224.854 128.431 226.282 128.941L252.02 139.045L252.143 132.044L226.772 123.429C225.324 123.021 223.916 124.103 223.916 125.573Z" fill="#181B27"/>
<path d="M229.913 120.613C229.362 120.49 232.585 114.081 235.093 114.815C237.622 115.55 249.941 122.715 251.063 125.655C252.184 128.594 252.184 128.594 252.184 128.594C252.184 128.594 246.8 129.023 243.476 127.9C240.151 126.777 234.359 121.613 229.913 120.613Z" fill="url(#paint4_linear_1308_97041)"/>
<path d="M254.264 82.931L248.594 134.656C248.39 136.432 250.899 139.106 252.693 139.025L335.966 133.901C337.332 133.84 338.475 132.819 338.699 131.472L349.161 81.5022C349.467 79.6854 346.204 77.8075 344.369 77.8483L257.099 80.2978C255.61 80.3795 254.407 81.4817 254.264 82.931Z" fill="#181B27"/>
<path d="M256.161 84.4415L250.491 136.167C250.287 137.943 251.735 139.494 253.53 139.412L337.863 135.412C339.229 135.35 340.372 134.33 340.596 132.982L349.203 82.7881C349.509 80.9714 348.081 79.318 346.245 79.3792L258.975 81.8287C257.527 81.8695 256.324 82.9922 256.161 84.4415Z" fill="#E84855"/>
<path opacity="0.2" d="M305.679 123.287C298.316 120.164 300.907 114.203 292.218 106.793C280.756 96.9953 269.05 101.241 264.971 93.6681C263.706 91.3002 263.094 87.626 265.317 81.6655L258.995 81.8492C257.547 81.89 256.344 82.9923 256.181 84.4416L250.511 136.167C250.307 137.943 251.755 139.494 253.55 139.413L337.883 135.412C339.249 135.35 340.391 134.33 340.616 132.983L341.798 126.063C339.249 124.634 336.19 123.348 332.621 122.613C320.221 120.102 314.163 126.9 305.679 123.287Z" fill="white"/>
<path d="M344.042 127.716C344.185 127.247 343.879 126.777 343.39 126.757C341.411 126.655 336.843 126.614 334.314 128.165C331.03 130.186 326.788 133.84 330.357 135.697L333.702 137.433C333.865 137.514 334.028 137.535 334.192 137.494C335.375 137.228 340.371 136.126 340.922 135.84C341.411 135.595 343.308 129.941 344.042 127.716Z" fill="url(#paint5_linear_1308_97041)"/>
<path d="M235.013 10.3033C235.053 16.2434 234.401 20.9587 233.769 24.1839C233.055 27.8785 232.525 28.8379 231.872 29.6136C230.873 30.7771 229.384 31.7569 220.879 33.8594C216.249 35.0025 215.658 34.9821 215.556 35.4312C215.066 37.6766 227.671 45.3108 240.703 43.4737C248.677 42.351 255.938 37.799 255.489 35.3903C255.041 32.9817 247.066 34.2677 244.7 29.9198C243.048 26.8987 244.904 22.5917 247.086 19.0195C244.965 15.0595 237.134 14.2634 235.013 10.3033Z" fill="#FFC980"/>
<path d="M249.819 12.6507C251.695 10.14 251.818 5.77168 249.656 3.01599C247.78 0.64814 244.843 0.301117 243.089 0.096992C237.99 -0.494971 231.566 1.62793 229.322 6.32281C227.997 9.09891 230.872 14.8961 231.321 15.9167C231.831 17.1006 232.749 17.4885 233.605 18.3866C234.788 19.6114 236.644 21.571 239.662 24.8574C239.907 23.898 240.254 22.6937 240.825 21.3873C241.049 20.8974 241.926 18.9378 243.252 17.3252C245.862 14.0796 248.024 15.0185 249.819 12.6507Z" fill="#2F313D"/>
<path d="M235.338 22.1017C235.338 22.1017 238.683 27.6131 245.352 27.164C251.328 26.7761 252.205 13.3651 248.391 10.5278C247.127 9.5888 244.577 9.18053 242.497 9.77249C241.273 10.1195 240.865 10.6298 238.846 11.1401C236.99 11.63 236.46 11.4259 235.909 11.8954C235.216 12.4874 234.686 13.9366 235.869 17.8558C234.726 16.6923 233.36 16.2637 232.401 16.7127C232.238 16.7944 231.83 17.0598 231.606 17.4884C230.749 19.0194 232.136 20.979 235.338 22.1017Z" fill="#FFC980"/>
<path d="M235.624 11.0995C235.909 11.324 235.032 12.3855 234.971 13.9164C234.849 16.8762 237.826 20.428 240.886 20.7137C242.68 20.8975 243.19 19.7952 246.168 19.489C248.003 19.2849 249.553 19.5298 250.512 19.734C251.45 22.9796 250.573 26.2047 248.411 27.7153C246.086 29.3278 243.109 28.348 241.865 27.9398C241.028 27.6744 238.357 26.7967 236.97 24.3472C235.522 21.7956 236.949 20.2647 235.277 18.5296C234.441 17.6519 233.34 17.2844 232.259 15.5902C231.973 15.1411 231.769 14.7329 231.647 14.4471C233.176 12.8141 235.216 10.7729 235.624 11.0995Z" fill="#2F313D"/>
<path d="M248.331 20.9382C248.331 20.9382 247.046 21.6118 244.802 21.4894C244.7 21.4894 244.578 21.5098 244.558 21.571C244.496 21.7751 245.945 22.7345 247.25 22.3671C248.188 22.1017 248.922 21.224 248.779 20.9995C248.759 20.877 248.555 20.8974 248.331 20.9382Z" fill="url(#paint6_linear_1308_97041)"/>
<path d="M364.134 353.204C363.706 353.204 363.318 352.877 363.277 352.428L347.838 185.392C347.798 184.923 348.144 184.515 348.613 184.474C349.082 184.433 349.49 184.78 349.531 185.25L363.277 333.894V181.637C363.277 181.167 363.665 180.779 364.134 180.779C364.603 180.779 364.99 181.167 364.99 181.637V352.367C364.99 352.816 364.623 353.204 364.175 353.224C364.154 353.204 364.154 353.204 364.134 353.204Z" fill="#B7C0CE"/>
<path d="M536.328 199.885L366.928 181.31L41.4454 196.129L211.906 216.542L536.328 199.885Z" fill="#D8DEE8"/>
<path d="M211.906 216.562L536.328 199.885V207.948L211.906 224.605L41.4454 204.172V196.13L211.906 216.562Z" fill="#B7C0CE"/>
<path d="M213.068 411.461C213.047 411.461 213.047 411.461 213.027 411.461C212.578 411.441 212.211 411.073 212.211 410.604V222.645C212.211 222.176 212.599 221.788 213.068 221.788C213.537 221.788 213.924 222.176 213.924 222.645V388.763L226.916 222.584C226.957 222.115 227.364 221.768 227.834 221.809C228.303 221.849 228.649 222.258 228.609 222.727L213.924 410.686C213.883 411.114 213.516 411.461 213.068 411.461Z" fill="#B7C0CE"/>
<path d="M43.3206 378.066C43.3002 378.066 43.3002 378.066 43.2798 378.066C42.8311 378.046 42.464 377.679 42.464 377.209V203.723C42.464 203.254 42.8515 202.866 43.3206 202.866C43.7897 202.866 44.1772 203.254 44.1772 203.723V355.47L56.0878 203.662C56.1286 203.192 56.5365 202.845 57.0056 202.886C57.4747 202.927 57.8214 203.335 57.7806 203.805L44.1772 377.291C44.1364 377.719 43.7489 378.066 43.3206 378.066Z" fill="#B7C0CE"/>
<path d="M534.717 378.066C534.268 378.066 533.901 377.719 533.86 377.291L519.4 203.805C519.359 203.335 519.706 202.927 520.175 202.886C520.644 202.845 521.052 203.192 521.093 203.662L533.84 356.735V207.948C533.84 207.479 534.227 207.091 534.696 207.091C535.165 207.091 535.553 207.479 535.553 207.948V377.229C535.553 377.678 535.186 378.066 534.737 378.087C534.757 378.066 534.737 378.066 534.717 378.066Z" fill="#B7C0CE"/>
<path d="M435.575 194.037L319.181 193.179V195.751C319.181 196.445 319.691 197.037 320.384 197.139L353.301 202.181C353.689 202.242 354.097 202.263 354.484 202.222L434.33 196.466C435.044 196.404 435.595 195.813 435.595 195.098V194.037H435.575Z" fill="#181B27"/>
<path d="M393.337 189.811L320.384 194.506C319.079 194.588 318.019 193.69 318.019 192.506V145.047C318.019 143.863 319.079 142.903 320.384 142.903H393.337C394.418 142.903 395.275 143.781 395.275 144.842V187.749C395.275 188.811 394.418 189.73 393.337 189.811Z" fill="#444B8C"/>
<path d="M394.499 189.811L321.546 194.506C320.241 194.588 319.181 193.69 319.181 192.506V145.047C319.181 143.863 320.241 142.903 321.546 142.903H394.499C395.58 142.903 396.437 143.781 396.437 144.842V187.749C396.437 188.811 395.58 189.73 394.499 189.811Z" fill="#181B27"/>
<path d="M392.235 186.79L324.279 190.873C323.219 190.934 322.362 190.199 322.362 189.24V147.68C322.362 146.72 323.219 145.924 324.279 145.924L392.235 145.659C393.112 145.659 393.847 146.373 393.847 147.251V185.096C393.826 185.974 393.112 186.729 392.235 186.79Z" fill="#EFF2F6"/>
<path d="M360.603 144.189C360.603 144.638 360.236 144.985 359.767 144.985C359.298 144.985 358.931 144.638 358.931 144.189C358.931 143.74 359.298 143.393 359.767 143.393C360.216 143.393 360.603 143.74 360.603 144.189Z" fill="white"/>
<path opacity="0.48" d="M377.225 176.808C371.575 174.053 367.129 177.543 362.846 174.094C360.236 172.012 361.521 170.44 358.319 167.317C354.77 163.867 352.465 165.03 348.896 161.907C344.389 157.968 346.653 154.906 342.757 152.089C338.046 148.66 332.968 151.844 328.501 148.537C326.564 147.129 325.503 145.067 324.952 142.862H320.568C319.793 142.862 319.181 143.434 319.181 144.128V193.363C319.181 194.057 319.813 194.588 320.568 194.527L395.295 189.73C395.662 189.709 395.988 189.505 396.192 189.24C390.726 189.056 387.361 187.403 385.219 185.688C381.018 182.34 381.752 179.013 377.225 176.808Z" fill="white"/>
<path d="M397.416 189.668L319.181 194.608L353.281 199.834C353.669 199.895 354.076 199.916 354.464 199.875L435.575 194.016L398.639 189.689C398.231 189.669 397.824 189.648 397.416 189.668Z" fill="#181B27"/>
<path opacity="0.47" d="M330.603 194.649L395.724 190.485L415.874 192.832L351.303 197.303L330.603 194.649Z" fill="#D8DEE8"/>
<path d="M411.427 336.393L411.121 344.477C411.121 344.477 413.731 345.946 415.791 345.11L418.096 336.577L411.427 336.393Z" fill="url(#paint7_linear_1308_97041)"/>
<path d="M364.376 340.741C364.376 340.741 347.265 341.925 347.02 343.048C346.776 344.17 358.625 348.498 362.786 348.641C366.926 348.804 370.352 347.579 369.965 345.824C369.598 344.068 368.129 339.639 368.129 339.639L364.376 340.741Z" fill="url(#paint8_linear_1308_97041)"/>
<path d="M363.561 333.127L363.255 341.211C363.255 341.211 365.865 342.68 367.925 341.844L370.23 333.311L363.561 333.127Z" fill="url(#paint9_linear_1308_97041)"/>
<path d="M409.591 337.537C412.793 337.884 415.995 338.251 419.177 338.598C423.5 333.801 429.945 325.452 433.392 313.715C440.041 291.078 430.414 274.748 436.594 270.686C445.343 264.929 464.27 298.038 494.679 297.181C507.161 296.834 523.436 290.71 529.697 277.401C530.635 275.401 535.285 264.868 530.757 255.009C526.087 244.823 502.939 240.393 456.846 231.943C437.063 228.309 427.07 226.513 423.052 228.432C394.601 242.006 406.471 318.879 409.591 337.537Z" fill="#181B27"/>
<path d="M360.787 337.659C364.091 338.231 367.395 338.802 370.699 339.394C374.716 333.474 380.794 324.187 387.586 312.429C401.76 287.893 401.495 282.913 408.042 279.749C421.91 273.053 432.373 291.119 466.657 296.099C477.874 297.732 502.776 301.345 512.831 287.914C516.91 282.464 519.255 273.298 516.033 265.521C510.241 251.559 491.151 253.233 428.294 240.985C403.779 236.209 400.434 235.352 394.499 237.474C361.337 249.273 360.705 321.554 360.787 337.659Z" fill="#181B27"/>
<path opacity="0.1" d="M360.787 337.659C364.091 338.231 367.395 338.802 370.699 339.394C374.716 333.474 380.794 324.187 387.586 312.429C401.76 287.893 401.495 282.913 408.042 279.749C421.91 273.053 432.373 291.119 466.657 296.099C477.874 297.732 502.776 301.345 512.831 287.914C516.91 282.464 519.255 273.298 516.033 265.521C510.241 251.559 491.151 253.233 428.294 240.985C403.779 236.209 400.434 235.352 394.499 237.474C361.337 249.273 360.705 321.554 360.787 337.659Z" fill="white"/>
<path d="M429.476 145.475C432.739 137.494 439.755 132.901 443.385 130.513C445.201 129.329 446.893 128.431 448.586 127.737C461.741 122.368 474.875 122.736 477.221 122.899C482.911 123.328 496.943 124.369 507.324 133.391C512.361 137.759 516.379 143.842 522.253 178.196C530.431 226.084 523.803 221.185 530.247 240.597C533.653 250.865 538.976 262.663 533.347 270.175C531.532 272.604 528.942 273.298 523.639 275.687C503.877 284.586 486.154 283.055 475.385 281.994C463.536 280.81 457.54 280.157 454.399 275.952C449.382 269.257 454.541 260.745 455.439 246.027C456.091 235.453 453.685 227.084 448.872 210.326C437.716 171.379 423.215 160.784 429.476 145.475Z" fill="white"/>
<path d="M373.759 193.179L361.134 190.75C360.237 190.566 359.299 190.566 358.381 190.73L347.449 192.608C347.449 192.608 354.547 195.465 360.584 194.567C366.62 193.669 373.228 197.078 373.228 197.078L373.759 193.179Z" fill="url(#paint10_linear_1308_97041)"/>
<path d="M457.418 114.06C455.296 110.856 458.478 104.671 459.722 102.221C459.763 102.139 459.824 102.017 459.947 101.813C461.884 98.2407 462.374 97.7507 463.291 97.1384L464.576 96.3423C464.576 96.3423 464.658 96.3219 464.719 96.2811C465.535 95.9953 468.349 95.8932 468.92 96.0157C470.735 96.4035 472.673 103.793 472.122 114.264C472.204 114.673 472.265 115.061 472.347 115.469C472.632 117.122 472.857 118.735 473.04 120.327C473.203 121.838 475.345 121.797 476.874 121.715C483.034 121.327 486.052 121.838 486.317 122.756C486.807 124.471 479.505 130.105 470.47 131.37C458.356 131.452 448.505 130.166 449.566 128.267C450.035 127.41 459.416 124.961 462.068 122.532C464.495 120.307 464.291 118 464.495 116.347C463.189 116.408 459.029 116.51 457.418 114.06Z" fill="url(#paint11_linear_1308_97041)"/>
<path d="M460.803 93.3621C459.804 95.5666 462.231 99.9758 463.108 100.609C463.21 100.69 463.781 101.119 464.27 101.895C464.331 101.997 464.392 102.119 464.454 102.282C465.167 104.324 461.925 106.732 462.537 107.63C462.985 108.304 465.188 107.406 465.453 107.977C465.698 108.508 463.862 109.631 464.148 110.284C464.352 110.774 465.494 110.325 466.208 111.08C466.758 111.652 466.82 112.468 466.84 112.876C466.921 115.775 460.354 126.267 458.988 130.982C457.54 136.004 460.13 140.78 469.573 153.967C482.993 172.726 489.723 182.116 493.455 184.79C511.688 197.895 533.144 196.282 541.954 194.914C552.519 193.281 574.362 189.872 581.378 173.053C589.454 153.702 573.546 127.226 557.23 122.736C549.766 120.674 545.789 123.797 536.101 120.429C525.394 116.694 526.699 110.1 516.767 106.202C503.551 101.017 495.005 110.284 486.011 103.528C481.116 99.8533 481.912 95.8116 475.895 92.8518C469.94 89.994 462.108 90.4839 460.803 93.3621Z" fill="#2F313D"/>
<path d="M463.741 106.875C464.536 105.793 465.923 106.814 465.943 108.222C465.943 109.631 464.577 111.101 463.251 110.815C461.925 110.549 462.66 108.345 463.741 106.875Z" fill="url(#paint12_linear_1308_97041)"/>
<path opacity="0.2" d="M485.604 268.093C482.116 261.153 490.662 251.906 485.073 241.312C480.342 232.31 471.715 234.331 467.758 226.084C462.986 216.123 473.367 208.672 473 193.526C472.551 175.42 456.99 157.274 447.812 158.866C441.877 159.886 441.122 168.745 436.941 178.441C440.633 186.545 444.936 196.69 448.852 210.326C453.665 227.084 456.051 235.454 455.419 246.027C454.522 260.745 449.342 269.257 454.379 275.952C457.52 280.137 463.516 280.81 475.365 281.994C486.134 283.056 503.857 284.586 523.62 275.687C526.128 274.564 528.005 273.707 529.514 272.89C498.656 277.544 488.357 273.605 485.604 268.093Z" fill="#35A7FF"/>
<path d="M370.556 196.874C370.923 195.261 371.27 193.649 371.637 192.036C395.907 196.384 406.512 191.505 411.652 185.79C416.363 180.544 414.344 177.849 421.89 157.825C429.069 138.759 437.206 133.86 441.306 132.105C443.59 131.125 445.181 130.452 447.078 130.921C455.827 133.064 458.703 155.865 456.255 172.93C454.868 182.544 452.156 201.385 436.717 210.346C436.431 210.509 435.983 210.775 435.391 211.081C433.454 212.122 425.724 215.837 410.489 213.102C392.501 209.836 374.981 199.548 370.556 196.874Z" fill="white"/>
<path d="M485.829 355.479C483.708 356.009 481.73 355.989 479.874 355.52C478.181 355.091 477.039 353.519 477.039 351.784V291.935H488.827V351.702C488.807 353.519 487.563 355.05 485.829 355.479Z" fill="white"/>
<path d="M485.829 355.479C483.708 356.009 481.73 355.989 479.874 355.52C478.181 355.091 477.039 353.519 477.039 351.784V291.935H488.827V351.702C488.807 353.519 487.563 355.05 485.829 355.479Z" fill="#D8DEE8"/>
<path d="M420.626 266.766L438.635 255.376C439.39 251.11 447.874 206.59 482.341 192.587C496.353 186.892 511.445 187.565 519.725 187.953C536.245 188.688 548.033 189.219 553.703 197.118C560.984 207.243 548.767 216.429 551.296 245.415C552.337 257.233 554.947 262.479 551.684 270.318C547.768 279.687 538.692 284.892 531.636 287.811C523.213 292.71 508.528 299.691 489.133 301.406C456.46 304.264 432.088 290.24 423.706 284.872C419.974 283.688 417.179 280.585 416.384 276.768C415.589 272.869 417.261 268.889 420.626 266.766Z" fill="#35A7FF"/>
<path opacity="0.26" d="M428.906 274.87C429.579 270.869 440.735 274.176 451.279 266.337C467.065 254.6 458.866 234.739 472.592 215.673C485.196 198.18 510.547 189.28 518.419 195.935C528.902 204.814 503.245 237.984 518.419 259.397C525.782 269.807 537.019 269.297 537.06 275.4C537.142 285.035 509.221 296.16 482.708 295.67C454.216 295.16 427.845 281.238 428.906 274.87Z" fill="white"/>
<path d="M156.246 345.579L151.147 345.824C152.901 342.619 150.801 333.883 150.801 333.883L156.287 334.046C156.287 334.046 156.144 336.577 155.818 340.333C155.716 341.639 155.92 343.579 156.246 345.579Z" fill="url(#paint13_linear_1308_97041)"/>
<path d="M159.57 334.597C156.429 334.944 153.288 335.291 150.148 335.638C145.905 330.943 139.583 322.737 136.198 311.204C129.712 289.118 139.869 274.605 133.057 268.971C125.205 262.459 109.704 280.055 75.5022 285.035C64.4889 286.628 40.0558 290.179 30.1643 277.013C26.1465 271.665 23.8418 262.663 27.0234 255.029C32.7136 241.332 51.4566 242.965 113.172 230.942C136.952 226.309 140.705 224.798 146.354 227.493C174.295 240.802 162.65 316.287 159.57 334.597Z" fill="#181B27"/>
<path d="M161.364 200.038L182.82 149.721C183.901 147.21 182.452 144.332 179.801 143.679L140.5 134.126C138.379 133.615 136.197 134.718 135.361 136.759L115.618 185.116C114.639 187.525 115.924 190.26 118.412 191.015L156 202.528C158.162 203.181 160.487 202.099 161.364 200.038Z" fill="#181B27"/>
<path d="M160.405 197.609L180.454 150.619C181.453 148.271 180.107 145.577 177.639 144.985L140.928 136.065C138.95 135.575 136.91 136.616 136.135 138.514L117.678 183.667C116.76 185.912 117.964 188.464 120.289 189.178L155.409 199.936C157.407 200.548 159.569 199.548 160.405 197.609Z" fill="#EFF2F6"/>
<path d="M172.765 183.789L173.418 177.87L176.823 171.358C177.293 170.48 177.537 169.48 177.537 168.48V162.009L173.418 171.542C173.418 171.542 170.705 169.092 169.685 168.582C168.645 168.072 168.788 170.133 169.563 170.909C170.338 171.685 169.175 177.992 169.95 178.645L169.685 182.503L172.765 183.789Z" fill="url(#paint14_linear_1308_97041)"/>
<path d="M140.073 146.026C136.871 138.188 129.998 133.677 126.429 131.329C117.985 125.797 112.58 126.798 93.2052 123.858C67.3852 119.919 64.2852 116.204 55.5969 119.225C44.1962 123.185 38.2409 133.554 35.5079 138.29C21.7414 162.234 37.833 174.4 33.7132 222.063C32.0204 241.536 27.6967 258.458 38.0981 268.461C40.2804 270.563 42.7277 271.665 47.6225 273.87C67.0385 282.606 84.4354 281.096 95.0203 280.055C106.666 278.912 112.54 278.238 115.619 274.135C120.555 267.562 115.476 259.214 114.579 244.741C113.947 234.351 116.292 226.125 121.024 209.693C131.976 171.46 146.212 161.05 140.073 146.026Z" fill="white"/>
<path d="M96.8351 109.753C98.018 105.569 95.9581 101.67 95.5094 100.833C93.6127 97.3221 93.1232 96.8526 92.2258 96.2402L90.9613 95.4646C90.9613 95.4646 90.8798 95.4442 90.8186 95.4033C90.0028 95.1176 87.2495 95.0359 86.6988 95.1584C84.9244 95.5462 83.0277 102.793 83.558 113.06C83.4764 113.448 83.4152 113.836 83.354 114.244C83.0685 115.857 82.8442 117.449 82.681 119C82.5178 120.49 80.4172 120.45 78.9283 120.347C72.871 119.96 69.9138 120.47 69.6486 121.388C69.1592 123.083 76.3382 128.615 85.21 129.86C97.1002 129.941 106.788 128.676 105.748 126.798C105.279 125.961 96.0601 123.552 93.4699 121.164C91.1041 118.98 91.2877 116.714 91.1041 115.101C91.7975 114.754 95.9581 112.836 96.8351 109.753Z" fill="url(#paint15_linear_1308_97041)"/>
<path d="M94.6321 92.566C94.6117 95.7503 93.1229 99.1388 92.3683 99.6899C92.2663 99.7512 91.7157 100.2 91.2262 100.956C91.165 101.058 91.1038 101.18 91.0426 101.323C90.3492 103.323 93.5308 105.691 92.919 106.589C92.4703 107.243 90.3084 106.365 90.0433 106.936C89.7985 107.467 91.5933 108.569 91.3282 109.202C91.1242 109.672 90.0229 109.243 89.3091 109.978C88.9623 110.345 89.0643 110.631 88.6972 111.754C88.4933 112.387 88.1873 113.081 87.963 113.468C86.8617 115.326 83.7616 116.02 83.1498 115.265C82.9866 115.061 83.1294 114.877 82.9662 114.183C82.9662 114.183 82.8031 113.53 82.3544 112.795C81.7018 111.733 80.1517 110.958 78.5813 109.835C75.6852 107.753 74.8898 105.957 74.6451 105.365C74.5635 105.14 74.5023 104.997 74.4616 104.875C73.7069 102.527 73.7069 99.0776 74.7471 96.9751C76.501 93.4233 80.4984 95.1175 83.7412 91.6066C87.4939 87.5445 85.2709 82.0127 87.3104 81.4003C89.5946 80.6451 94.6525 86.6667 94.6321 92.566Z" fill="#2F313D"/>
<path d="M91.777 105.834C91.002 104.773 89.6355 105.773 89.6151 107.161C89.6151 108.549 90.9408 109.978 92.2461 109.712C93.5513 109.427 92.8171 107.263 91.777 105.834Z" fill="url(#paint16_linear_1308_97041)"/>
<path opacity="0.2" d="M84.9447 266.419C88.3711 259.601 79.9888 250.518 85.4546 240.128C90.1046 231.289 98.5685 233.269 102.444 225.186C107.134 215.408 96.9369 208.101 97.2837 193.22C97.712 175.441 113.008 157.641 122.002 159.192C127.815 160.192 128.569 168.888 132.669 178.421C129.039 186.382 124.817 196.343 120.983 209.734C116.271 226.186 113.906 234.412 114.538 244.782C115.415 259.234 120.493 267.603 115.578 274.176C112.498 278.299 106.604 278.952 94.979 280.096C84.3941 281.137 66.9972 282.647 47.5812 273.911C45.1338 272.808 43.2779 271.971 41.7891 271.155C72.1367 275.687 82.2322 271.828 84.9447 266.419Z" fill="#35A7FF"/>
<path d="M173.928 182.626C172.032 181.809 170.155 180.993 168.258 180.176C165.056 183.442 160.998 186.627 157.572 185.586C152.473 184.055 153.737 174.644 147.517 158.131C140.481 139.412 132.486 134.615 128.468 132.86C126.225 131.88 124.674 131.247 122.798 131.697C114.212 133.799 111.377 156.192 113.784 172.95C115.15 182.381 117.801 200.895 132.975 209.693C135.137 210.938 146.987 217.817 158.734 212.408C168.768 207.774 174.968 195.914 173.928 182.626Z" fill="white"/>
<path d="M187.593 343.476C184.452 343.823 181.311 344.17 178.17 344.517C173.928 339.823 167.606 331.617 164.22 320.084C157.734 297.997 167.891 283.484 161.079 277.85C153.227 271.339 137.727 288.934 103.525 293.915C92.5114 295.507 68.0783 299.059 58.1867 285.893C54.1689 280.545 51.8643 271.543 55.0459 263.908C60.7361 250.212 79.479 251.845 141.194 239.822C164.975 235.188 168.727 233.677 174.377 236.372C202.318 249.701 190.672 325.166 187.593 343.476Z" fill="#181B27"/>
<path opacity="0.1" d="M187.593 343.476C184.452 343.823 181.311 344.17 178.17 344.517C173.928 339.823 167.606 331.617 164.22 320.084C157.734 297.997 167.891 283.484 161.079 277.85C153.227 271.339 137.727 288.934 103.525 293.915C92.5114 295.507 68.0783 299.059 58.1867 285.893C54.1689 280.545 51.8643 271.543 55.0459 263.908C60.7361 250.212 79.479 251.845 141.194 239.822C164.975 235.188 168.727 233.677 174.377 236.372C202.318 249.701 190.672 325.166 187.593 343.476Z" fill="white"/>
<path d="M77.2767 359.745C79.357 360.255 81.2945 360.235 83.1301 359.786C84.7821 359.357 85.9242 357.826 85.9242 356.112V297.364H74.3398V356.05C74.3398 357.806 75.5635 359.316 77.2767 359.745Z" fill="white"/>
<path d="M77.2767 359.745C79.357 360.255 81.2945 360.235 83.1301 359.786C84.7821 359.357 85.9242 357.826 85.9242 356.112V297.364H74.3398V356.05C74.3398 357.806 75.5635 359.316 77.2767 359.745Z" fill="#D8DEE8"/>
<path d="M141.297 272.625L123.615 261.438C122.88 257.254 114.539 213.53 80.7036 199.793C66.937 194.2 52.1303 194.873 43.9927 195.241C27.7584 195.976 16.1944 196.486 10.6266 204.222C3.46801 214.163 15.4602 223.185 12.9924 251.64C11.9727 263.235 9.40293 268.399 12.6049 276.095C16.4392 285.301 25.3518 290.404 32.286 293.282C40.5664 298.099 54.9856 304.958 74.0141 306.611C106.095 309.428 130.039 295.65 138.258 290.383C141.929 289.22 144.662 286.178 145.458 282.423C146.253 278.605 144.601 274.707 141.297 272.625Z" fill="#35A7FF"/>
<path opacity="0.26" d="M133.179 280.585C132.526 276.646 121.574 279.912 111.214 272.216C95.7136 260.704 103.77 241.189 90.2886 222.471C77.9293 205.284 53.027 196.547 45.2974 203.099C35.0183 211.816 60.1857 244.394 45.2974 265.419C38.0572 275.625 27.0439 275.135 26.9827 281.137C26.9011 290.608 54.3323 301.508 80.3562 301.039C108.297 300.488 134.199 286.832 133.179 280.585Z" fill="white"/>
<rect y="130" width="592" height="248" fill="url(#paint17_linear_1308_97041)"/>
<defs>
<linearGradient id="paint0_linear_1308_97041" x1="252.769" y1="332.518" x2="232.816" y2="333.094" gradientUnits="userSpaceOnUse">
<stop stop-color="#444B8C"/>
<stop offset="0.9964" stop-color="#26264F"/>
</linearGradient>
<linearGradient id="paint1_linear_1308_97041" x1="239.885" y1="326.214" x2="232.73" y2="326.214" gradientUnits="userSpaceOnUse">
<stop stop-color="#FFC444"/>
<stop offset="0.9964" stop-color="#F36F56"/>
</linearGradient>
<linearGradient id="paint2_linear_1308_97041" x1="317.557" y1="327.019" x2="297.108" y2="332.636" gradientUnits="userSpaceOnUse">
<stop stop-color="#444B8C"/>
<stop offset="0.9964" stop-color="#26264F"/>
</linearGradient>
<linearGradient id="paint3_linear_1308_97041" x1="303.686" y1="323.849" x2="294.847" y2="323.849" gradientUnits="userSpaceOnUse">
<stop stop-color="#FFC444"/>
<stop offset="0.9964" stop-color="#F36F56"/>
</linearGradient>
<linearGradient id="paint4_linear_1308_97041" x1="252.201" y1="121.725" x2="229.851" y2="121.725" gradientUnits="userSpaceOnUse">
<stop stop-color="#FFC444"/>
<stop offset="0.9964" stop-color="#F36F56"/>
</linearGradient>
<linearGradient id="paint5_linear_1308_97041" x1="344.078" y1="132.113" x2="329" y2="132.113" gradientUnits="userSpaceOnUse">
<stop stop-color="#FFC444"/>
<stop offset="0.9964" stop-color="#F36F56"/>
</linearGradient>
<linearGradient id="paint6_linear_1308_97041" x1="248.827" y1="21.6738" x2="244.576" y2="21.6738" gradientUnits="userSpaceOnUse">
<stop stop-color="#FFC444"/>
<stop offset="0.9964" stop-color="#F36F56"/>
</linearGradient>
<linearGradient id="paint7_linear_1308_97041" x1="413.128" y1="346.666" x2="422.311" y2="289.095" gradientUnits="userSpaceOnUse">
<stop stop-color="#FFC444"/>
<stop offset="0.9964" stop-color="#F36F56"/>
</linearGradient>
<linearGradient id="paint8_linear_1308_97041" x1="356.289" y1="316.483" x2="360.122" y2="365.218" gradientUnits="userSpaceOnUse">
<stop offset="0.003597" stop-color="#26264F"/>
<stop offset="1" stop-color="#444B8C"/>
</linearGradient>
<linearGradient id="paint9_linear_1308_97041" x1="365.275" y1="343.406" x2="374.458" y2="285.836" gradientUnits="userSpaceOnUse">
<stop stop-color="#FFC444"/>
<stop offset="0.9964" stop-color="#F36F56"/>
</linearGradient>
<linearGradient id="paint10_linear_1308_97041" x1="361.168" y1="191.086" x2="359.574" y2="198.355" gradientUnits="userSpaceOnUse">
<stop stop-color="#FFC444"/>
<stop offset="0.9964" stop-color="#F36F56"/>
</linearGradient>
<linearGradient id="paint11_linear_1308_97041" x1="453.645" y1="93.0289" x2="481.638" y2="157.194" gradientUnits="userSpaceOnUse">
<stop stop-color="#FFC444"/>
<stop offset="0.9964" stop-color="#F36F56"/>
</linearGradient>
<linearGradient id="paint12_linear_1308_97041" x1="456.369" y1="90.9009" x2="487.623" y2="162.541" gradientUnits="userSpaceOnUse">
<stop stop-color="#FFC444"/>
<stop offset="0.9964" stop-color="#F36F56"/>
</linearGradient>
<linearGradient id="paint13_linear_1308_97041" x1="154.144" y1="348.338" x2="153.302" y2="331.461" gradientUnits="userSpaceOnUse">
<stop stop-color="#FFC444"/>
<stop offset="0.9964" stop-color="#F36F56"/>
</linearGradient>
<linearGradient id="paint14_linear_1308_97041" x1="172.171" y1="165.678" x2="178.104" y2="192.742" gradientUnits="userSpaceOnUse">
<stop stop-color="#FFC444"/>
<stop offset="0.9964" stop-color="#F36F56"/>
</linearGradient>
<linearGradient id="paint15_linear_1308_97041" x1="101.678" y1="92.2249" x2="74.1926" y2="155.226" gradientUnits="userSpaceOnUse">
<stop stop-color="#FFC444"/>
<stop offset="0.9964" stop-color="#F36F56"/>
</linearGradient>
<linearGradient id="paint16_linear_1308_97041" x1="99.004" y1="90.1349" x2="68.3166" y2="160.476" gradientUnits="userSpaceOnUse">
<stop stop-color="#FFC444"/>
<stop offset="0.9964" stop-color="#F36F56"/>
</linearGradient>
<linearGradient id="paint17_linear_1308_97041" x1="296" y1="130" x2="296" y2="378" gradientUnits="userSpaceOnUse">
<stop stop-color="#EBF6FF" stop-opacity="0"/>
<stop offset="1" stop-color="#EBF6FF"/>
</linearGradient>
</defs>
</svg>
