<svg width="49" height="48" viewBox="0 0 49 48" fill="none" xmlns="http://www.w3.org/2000/svg">
<path fill-rule="evenodd" clip-rule="evenodd" d="M24.4902 6V6C34.4322 6 42.4902 14.058 42.4902 24V24C42.4902 33.942 34.4322 42 24.4902 42V42C14.5482 42 6.49023 33.942 6.49023 24V24C6.49023 14.058 14.5482 6 24.4902 6Z" stroke="white" stroke-width="1.5" stroke-linecap="round" stroke-linejoin="round"/>
<path d="M24.4902 25V15" stroke="white" stroke-width="1.5" stroke-linecap="round" stroke-linejoin="round"/>
<path d="M24.4882 32C24.2122 32 23.9882 32.224 23.9902 32.5C23.9902 32.776 24.2142 33 24.4902 33C24.7662 33 24.9902 32.776 24.9902 32.5C24.9902 32.224 24.7662 32 24.4882 32" stroke="white" stroke-width="1.5" stroke-linecap="round" stroke-linejoin="round"/>
</svg>
