<svg width="48" height="48" viewBox="0 0 48 48" fill="none" xmlns="http://www.w3.org/2000/svg">
<path d="M38 30V15.656C38 14.596 37.578 13.578 36.828 12.828L31.172 7.172C30.422 6.422 29.404 6 28.344 6H14C11.79 6 10 7.79 10 10V38C10 40.21 11.79 42 14 42H26" stroke="#139673" stroke-width="1.5" stroke-linecap="round" stroke-linejoin="round"/>
<path d="M42 36L36 42L32 38" stroke="#139673" stroke-width="1.5" stroke-linecap="round" stroke-linejoin="round"/>
<path d="M16 28H28" stroke="#139673" stroke-width="1.5" stroke-linecap="round" stroke-linejoin="round"/>
<path d="M16 18.0023H24.0045" stroke="#139673" stroke-width="1.5" stroke-linecap="round" stroke-linejoin="round"/>
<path d="M20.0021 22.0045V14" stroke="#139673" stroke-width="1.5" stroke-linecap="round" stroke-linejoin="round"/>
<path d="M16 34H24.66" stroke="#139673" stroke-width="1.5" stroke-linecap="round" stroke-linejoin="round"/>
<path d="M38 16H30C28.896 16 28 15.104 28 14V6" stroke="#139673" stroke-width="1.5" stroke-linecap="round" stroke-linejoin="round"/>
</svg>
