<svg width="48" height="48" viewBox="0 0 48 48" fill="none" xmlns="http://www.w3.org/2000/svg">
<path d="M18.9618 39.4884C19.5521 39.4104 20.1483 39.5704 20.6185 39.9326L22.7854 41.5953C23.5017 42.1455 24.4982 42.1455 25.2124 41.5953L27.4614 39.8686C27.8816 39.5464 28.4118 39.4044 28.936 39.4744L31.7492 39.8445C32.6435 39.9626 33.5059 39.4644 33.852 38.63L34.9345 36.0129C35.1366 35.5227 35.5247 35.1346 36.0149 34.9325L38.632 33.85C39.4664 33.5059 39.9646 32.6415 39.8465 31.7472L39.4904 29.036C39.4124 28.4458 39.5724 27.8495 39.9346 27.3794L41.5973 25.2124C42.1475 24.4961 42.1475 23.4997 41.5973 22.7854L39.8706 20.5365C39.5484 20.1163 39.4064 19.5861 39.4764 19.0619L39.8465 16.2487C39.9646 15.3543 39.4664 14.492 38.632 14.1458L36.0149 13.0634C35.5247 12.8613 35.1366 12.4731 34.9345 11.9829L33.852 9.36585C33.5079 8.5315 32.6435 8.03329 31.7492 8.15134L28.936 8.5215C28.4118 8.59353 27.8816 8.45147 27.4634 8.13133L25.2144 6.40462C24.4982 5.85439 23.5017 5.85439 22.7874 6.40462L20.5385 8.13133C20.1183 8.45147 19.5881 8.59353 19.0639 8.5255L16.2507 8.15534C15.3563 8.0373 14.494 8.5355 14.1478 9.36985L13.0674 11.9869C12.8633 12.4751 12.4751 12.8633 11.9869 13.0674L9.36985 14.1478C8.5355 14.494 8.0373 15.3563 8.15534 16.2507L8.5255 19.0639C8.59353 19.5881 8.45147 20.1183 8.13133 20.5365L6.40462 22.7854C5.85439 23.5017 5.85439 24.4982 6.40462 25.2124L8.13133 27.4614C8.45347 27.8816 8.59553 28.4118 8.5255 28.936L8.15534 31.7492C8.0373 32.6435 8.5355 33.5059 9.36985 33.852L11.9869 34.9345C12.4771 35.1366 12.8653 35.5247 13.0674 36.0149L14.1498 38.632C14.494 39.4664 15.3583 39.9646 16.2527 39.8465L18.9618 39.4884" stroke="#FF9F1C" stroke-width="1.5" stroke-linecap="round" stroke-linejoin="round"/>
<path d="M29.6002 21.2008L22.5953 28.2057L18.3955 24.004" stroke="#FF9F1C" stroke-width="1.5" stroke-linecap="round" stroke-linejoin="round"/>
</svg>
