<svg width="214" height="40" viewBox="0 0 214 40" fill="none" xmlns="http://www.w3.org/2000/svg">
<path fill-rule="evenodd" clip-rule="evenodd" d="M16.106 3.66948C9.23763 3.66948 3.66972 9.23738 3.66972 16.1058C3.66972 19.1996 5.07749 22.5662 7.15062 25.7981L4.06177 27.7794C1.8352 24.3084 0 20.2276 0 16.1058C0 7.21065 7.21089 -0.000244141 16.106 -0.000244141C25.0011 -0.000244141 32.212 7.21065 32.212 16.1058C32.212 22.1586 28.2458 28.2065 24.6494 32.5093C22.8078 34.7126 20.9714 36.565 19.5971 37.8656C18.9088 38.517 18.3335 39.0329 17.9275 39.3881C17.7244 39.5658 17.5635 39.7035 17.4517 39.7981C17.3958 39.8454 17.3522 39.882 17.3218 39.9074L17.286 39.937L17.2758 39.9455L17.2715 39.9491C17.2715 39.9491 17.2707 39.9497 16.106 38.5319C14.9414 37.114 14.9409 37.1144 14.9409 37.1144L14.9467 37.1096L14.9721 37.0885C14.9957 37.0688 15.0322 37.0382 15.0808 36.9971C15.1781 36.9147 15.3238 36.7901 15.511 36.6264C15.8854 36.2987 16.425 35.8151 17.0746 35.2003C18.3762 33.9684 20.1076 32.2211 21.8337 30.1559C25.373 25.9214 28.5423 20.7563 28.5423 16.1058C28.5423 9.23738 22.9744 3.66948 16.106 3.66948Z" fill="#E84855"/>
<path fill-rule="evenodd" clip-rule="evenodd" d="M16.1468 24.9539C21.0109 24.9539 24.9541 21.0107 24.9541 16.1465C24.9541 11.2824 21.0109 7.3392 16.1468 7.3392C11.2826 7.3392 7.33945 11.2824 7.33945 16.1465C7.33945 21.0107 11.2826 24.9539 16.1468 24.9539ZM17.6147 14.6787V11.7429H14.6789V14.6787H11.7431V17.6144H14.6789V20.5502H17.6147V17.6144H20.5505V14.6787H17.6147Z" fill="#E84855"/>
<path d="M42.6422 24.5871V8.73386H45.3284L50.5688 19.2586L55.8092 8.73386H58.4954V24.5871H55.6991V15.1192L51.0972 24.5871H50.0404L45.4385 15.1192V24.5871H42.6422Z" fill="#181B27"/>
<path d="M66.9362 24.9173C65.7398 24.9173 64.6903 24.6495 63.7876 24.1137C62.8848 23.5779 62.1802 22.8403 61.6738 21.9008C61.1747 20.954 60.9252 19.8678 60.9252 18.6421C60.9252 17.4017 61.182 16.3118 61.6958 15.3724C62.2096 14.4256 62.9178 13.688 63.8206 13.1595C64.7233 12.6311 65.7619 12.3669 66.9362 12.3669C68.1325 12.3669 69.1821 12.6348 70.0848 13.1706C70.9949 13.7063 71.7031 14.4476 72.2096 15.3944C72.716 16.3339 72.9692 17.4164 72.9692 18.6421C72.9692 19.8751 72.7123 20.965 72.1986 21.9118C71.6921 22.8513 70.9839 23.5889 70.0738 24.1247C69.171 24.6531 68.1252 24.9173 66.9362 24.9173ZM66.9362 22.121C67.8976 22.121 68.6132 21.7981 69.083 21.1522C69.56 20.499 69.7986 19.6623 69.7986 18.6421C69.7986 17.5852 69.5564 16.7412 69.072 16.11C68.5949 15.4788 67.883 15.1632 66.9362 15.1632C66.283 15.1632 65.7472 15.31 65.3288 15.6036C64.9105 15.8972 64.5986 16.3045 64.3931 16.8256C64.1949 17.3467 64.0958 17.9522 64.0958 18.6421C64.0958 19.7063 64.3343 20.554 64.8114 21.1852C65.2958 21.8091 66.0041 22.121 66.9362 22.121Z" fill="#181B27"/>
<path d="M80.6306 24.9173C79.3975 24.9173 78.3407 24.6421 77.4599 24.0917C76.5792 23.5412 75.904 22.7926 75.4342 21.8458C74.9645 20.899 74.7296 19.8311 74.7296 18.6421C74.7296 17.4384 74.9718 16.3632 75.4562 15.4164C75.948 14.4696 76.6379 13.7247 77.526 13.1816C78.414 12.6384 79.4636 12.3669 80.6746 12.3669C82.0764 12.3669 83.2507 12.7228 84.1975 13.4348C85.1517 14.1394 85.7608 15.1045 86.0251 16.3302L83.0306 17.1228C82.8544 16.5063 82.5462 16.0256 82.1058 15.6806C81.6728 15.3357 81.181 15.1632 80.6306 15.1632C79.9994 15.1632 79.4819 15.3173 79.0783 15.6256C78.6746 15.9265 78.3773 16.3412 78.1865 16.8696C77.9957 17.3907 77.9003 17.9816 77.9003 18.6421C77.9003 19.677 78.1278 20.5173 78.5829 21.1632C79.0452 21.8017 79.7278 22.121 80.6306 22.121C81.3058 22.121 81.8196 21.9669 82.1718 21.6586C82.5241 21.3504 82.7884 20.91 82.9645 20.3375L86.0251 20.9761C85.6874 22.2384 85.0489 23.2109 84.1095 23.8935C83.17 24.5761 82.0104 24.9173 80.6306 24.9173Z" fill="#181B27"/>
<path d="M88.2271 24.5871V8.73386H90.9133L96.1537 19.2586L101.394 8.73386H104.08V24.5871H101.284V15.1192L96.6821 24.5871H95.6252L91.0234 15.1192V24.5871H88.2271Z" fill="#181B27"/>
<path d="M112.697 24.9173C111.479 24.9173 110.404 24.6568 109.472 24.1357C108.547 23.6073 107.82 22.8843 107.292 21.9669C106.771 21.0421 106.51 19.9852 106.51 18.7962C106.51 17.4972 106.767 16.3669 107.281 15.4054C107.794 14.4439 108.503 13.699 109.405 13.1706C110.308 12.6348 111.347 12.3669 112.521 12.3669C113.769 12.3669 114.829 12.6605 115.703 13.2476C116.576 13.8348 117.222 14.6605 117.64 15.7247C118.059 16.7889 118.205 18.0403 118.081 19.4788H115.119V18.3779C115.119 17.1669 114.925 16.2972 114.536 15.7687C114.154 15.2329 113.527 14.965 112.653 14.965C111.633 14.965 110.881 15.277 110.396 15.9008C109.919 16.5173 109.681 17.4311 109.681 18.6421C109.681 19.7504 109.919 20.6091 110.396 21.2183C110.881 21.8201 111.589 22.121 112.521 22.121C113.108 22.121 113.611 21.9926 114.029 21.7357C114.448 21.4788 114.767 21.1082 114.987 20.6238L117.982 21.4825C117.534 22.5687 116.826 23.4128 115.857 24.0146C114.895 24.6164 113.842 24.9173 112.697 24.9173ZM108.756 19.4788V17.255H116.638V19.4788H108.756Z" fill="#181B27"/>
<path d="M119.686 27.2293V22.2751C120.317 22.2751 120.765 22.055 121.029 21.6146C121.3 21.1742 121.513 20.3889 121.667 19.2586C121.756 18.6054 121.829 17.9192 121.888 17.1999C121.954 16.4806 122.009 15.743 122.053 14.9871C122.097 14.2311 122.137 13.4678 122.174 12.6972H131.356V22.2751H132.567V27.2293H129.748V24.5871H122.504V27.2293H119.686ZM123.517 22.2751H128.361V15.0091H124.772C124.75 15.4128 124.724 15.8164 124.695 16.2201C124.673 16.6238 124.644 17.0238 124.607 17.4201C124.578 17.8164 124.548 18.2017 124.519 18.5761C124.489 18.943 124.456 19.2953 124.42 19.6329C124.354 20.2788 124.262 20.8036 124.144 21.2073C124.027 21.6109 123.818 21.9669 123.517 22.2751Z" fill="#181B27"/>
<path d="M134.758 24.5871V8.73386H147.837V24.5871H144.842V11.5302H137.753V24.5871H134.758Z" fill="#181B27"/>
<path d="M156.278 24.9173C155.082 24.9173 154.032 24.6495 153.13 24.1137C152.227 23.5779 151.522 22.8403 151.016 21.9008C150.517 20.954 150.267 19.8678 150.267 18.6421C150.267 17.4017 150.524 16.3118 151.038 15.3724C151.552 14.4256 152.26 13.688 153.163 13.1595C154.065 12.6311 155.104 12.3669 156.278 12.3669C157.475 12.3669 158.524 12.6348 159.427 13.1706C160.337 13.7063 161.045 14.4476 161.552 15.3944C162.058 16.3339 162.311 17.4164 162.311 18.6421C162.311 19.8751 162.054 20.965 161.541 21.9118C161.034 22.8513 160.326 23.5889 159.416 24.1247C158.513 24.6531 157.467 24.9173 156.278 24.9173ZM156.278 22.121C157.24 22.121 157.955 21.7981 158.425 21.1522C158.902 20.499 159.141 19.6623 159.141 18.6421C159.141 17.5852 158.898 16.7412 158.414 16.11C157.937 15.4788 157.225 15.1632 156.278 15.1632C155.625 15.1632 155.089 15.31 154.671 15.6036C154.253 15.8972 153.941 16.3045 153.735 16.8256C153.537 17.3467 153.438 17.9522 153.438 18.6421C153.438 19.7063 153.676 20.554 154.153 21.1852C154.638 21.8091 155.346 22.121 156.278 22.121Z" fill="#181B27"/>
<path d="M170.567 24.9173C169.385 24.9173 168.398 24.6421 167.606 24.0917C166.813 23.5412 166.215 22.7926 165.811 21.8458C165.415 20.899 165.217 19.8311 165.217 18.6421C165.217 17.4531 165.415 16.3852 165.811 15.4384C166.207 14.4917 166.791 13.743 167.562 13.1926C168.332 12.6421 169.283 12.3669 170.413 12.3669C171.551 12.3669 172.541 12.6384 173.385 13.1816C174.229 13.7247 174.883 14.4696 175.345 15.4164C175.815 16.3559 176.05 17.4311 176.05 18.6421C176.05 19.8311 175.818 20.899 175.356 21.8458C174.901 22.7926 174.263 23.5412 173.44 24.0917C172.618 24.6421 171.661 24.9173 170.567 24.9173ZM164.71 29.8715V12.6972H167.352V20.8439H167.727V29.8715H164.71ZM170.083 22.2531C170.729 22.2531 171.257 22.0917 171.668 21.7687C172.079 21.4458 172.384 21.0128 172.582 20.4696C172.78 19.9192 172.879 19.31 172.879 18.6421C172.879 17.9816 172.776 17.3797 172.571 16.8366C172.365 16.2861 172.046 15.8495 171.613 15.5265C171.187 15.1962 170.64 15.0311 169.973 15.0311C169.349 15.0311 168.842 15.1816 168.453 15.4825C168.072 15.7834 167.793 16.2054 167.617 16.7485C167.44 17.2917 167.352 17.9228 167.352 18.6421C167.352 19.3614 167.44 19.9926 167.617 20.5357C167.793 21.0788 168.079 21.5008 168.475 21.8017C168.879 22.1027 169.415 22.2531 170.083 22.2531Z" fill="#181B27"/>
<path d="M181.379 24.5871V15.3394H177.481V12.6972H188.27V15.3394H184.373V24.5871H181.379Z" fill="#181B27"/>
<path d="M193.429 24.9173C192.578 24.9173 191.855 24.7559 191.26 24.4329C190.673 24.1027 190.226 23.666 189.917 23.1228C189.616 22.5724 189.466 21.9669 189.466 21.3063C189.466 20.7559 189.55 20.2531 189.719 19.7981C189.888 19.343 190.159 18.943 190.534 18.5981C190.915 18.2458 191.426 17.9522 192.064 17.7173C192.504 17.5559 193.029 17.4128 193.638 17.288C194.248 17.1632 194.937 17.0458 195.708 16.9357C196.479 16.8183 197.326 16.6898 198.251 16.5504L197.172 17.1449C197.172 16.4403 197.004 15.9228 196.666 15.5926C196.328 15.2623 195.763 15.0972 194.97 15.0972C194.53 15.0972 194.071 15.2036 193.594 15.4164C193.117 15.6293 192.783 16.0073 192.592 16.5504L189.884 15.6917C190.185 14.7082 190.75 13.9082 191.58 13.2917C192.409 12.6751 193.539 12.3669 194.97 12.3669C196.02 12.3669 196.952 12.5284 197.767 12.8513C198.581 13.1742 199.198 13.732 199.616 14.5247C199.851 14.965 199.991 15.4054 200.035 15.8458C200.079 16.2861 200.101 16.7779 200.101 17.321V24.5871H197.481V22.143L197.855 22.6495C197.275 23.4495 196.648 24.0293 195.972 24.3889C195.304 24.7412 194.457 24.9173 193.429 24.9173ZM194.068 22.5614C194.618 22.5614 195.081 22.466 195.455 22.2751C195.837 22.077 196.137 21.8531 196.358 21.6036C196.585 21.354 196.739 21.1449 196.82 20.9761C196.974 20.6531 197.062 20.2788 197.084 19.8531C197.114 19.4201 197.128 19.0605 197.128 18.7742L198.009 18.9944C197.121 19.1412 196.402 19.266 195.851 19.3687C195.301 19.4641 194.857 19.5522 194.519 19.6329C194.181 19.7137 193.884 19.8017 193.627 19.8972C193.334 20.0146 193.095 20.143 192.912 20.2825C192.736 20.4146 192.604 20.5614 192.515 20.7228C192.435 20.8843 192.394 21.0641 192.394 21.2623C192.394 21.5339 192.46 21.7687 192.592 21.9669C192.732 22.1577 192.926 22.3045 193.176 22.4073C193.426 22.51 193.723 22.5614 194.068 22.5614Z" fill="#181B27"/>
<path d="M201.862 24.5871V22.099C202.295 22.1797 202.629 22.1761 202.864 22.088C203.099 21.9926 203.275 21.8091 203.393 21.5375C203.517 21.2586 203.624 20.8806 203.712 20.4036C203.829 19.7724 203.932 19.0348 204.02 18.1907C204.116 17.3467 204.196 16.455 204.262 15.5155C204.328 14.5687 204.387 13.6293 204.439 12.6972H213.422V24.5871H210.428V15.4935H207.059C207.029 15.8751 206.989 16.3302 206.938 16.8586C206.894 17.3871 206.842 17.9375 206.783 18.51C206.732 19.0751 206.673 19.6183 206.607 20.1394C206.541 20.6531 206.472 21.0935 206.398 21.4605C206.222 22.3926 205.961 23.1265 205.617 23.6623C205.272 24.1981 204.798 24.5394 204.196 24.6862C203.594 24.8403 202.817 24.8073 201.862 24.5871Z" fill="#181B27"/>
</svg>
