<svg width="32" height="32" viewBox="0 0 32 32" fill="none" xmlns="http://www.w3.org/2000/svg">
<path d="M25.3334 20V10.4373C25.3334 9.73067 25.052 9.052 24.552 8.552L20.7814 4.78133C20.2814 4.28133 19.6027 4 18.896 4H9.33335C7.86002 4 6.66669 5.19333 6.66669 6.66667V25.3333C6.66669 26.8067 7.86002 28 9.33335 28H17.3334" stroke="#181B27" stroke-width="1.5" stroke-linecap="round" stroke-linejoin="round"/>
<path d="M28 24L24 28L21.3333 25.3333" stroke="#181B27" stroke-width="1.5" stroke-linecap="round" stroke-linejoin="round"/>
<path d="M10.6667 18.6667H18.6667" stroke="#181B27" stroke-width="1.5" stroke-linecap="round" stroke-linejoin="round"/>
<path d="M10.6667 12.0015H16.003" stroke="#181B27" stroke-width="1.5" stroke-linecap="round" stroke-linejoin="round"/>
<path d="M13.3349 14.6697V9.33334" stroke="#181B27" stroke-width="1.5" stroke-linecap="round" stroke-linejoin="round"/>
<path d="M10.6667 22.6667H16.44" stroke="#181B27" stroke-width="1.5" stroke-linecap="round" stroke-linejoin="round"/>
<path d="M25.3334 10.6667H20C19.264 10.6667 18.6667 10.0693 18.6667 9.33333V4" stroke="#181B27" stroke-width="1.5" stroke-linecap="round" stroke-linejoin="round"/>
</svg>
