<svg width="32" height="32" viewBox="0 0 32 32" fill="none" xmlns="http://www.w3.org/2000/svg">
<path d="M28.357 15.6429C29.6588 16.9447 29.6588 19.0552 28.357 20.357C27.0553 21.6587 24.9447 21.6587 23.643 20.357C22.3412 19.0552 22.3412 16.9447 23.643 15.6429C24.9447 14.3412 27.0553 14.3412 28.357 15.6429" stroke="#181B27" stroke-width="1.5" stroke-linecap="round" stroke-linejoin="round"/>
<path d="M8.00002 4H5.33335C3.86002 4 2.66669 5.19333 2.66669 6.66667V12C2.66669 16.4187 6.24802 20 10.6667 20C15.0854 20 18.6667 16.4187 18.6667 12V6.66667C18.6667 5.19333 17.4734 4 16 4H13.3334" stroke="#181B27" stroke-width="1.5" stroke-linecap="round" stroke-linejoin="round"/>
<path d="M26 21.3333V21.6667C26 25.9013 22.568 29.3333 18.3334 29.3333C14.0987 29.3333 10.6667 25.9013 10.6667 21.6667V20" stroke="#181B27" stroke-width="1.5" stroke-linecap="round" stroke-linejoin="round"/>
<path d="M7.99998 2.66666V5.33332" stroke="#181B27" stroke-width="1.5" stroke-linecap="round" stroke-linejoin="round"/>
<path d="M13.3334 2.66666V5.33332" stroke="#181B27" stroke-width="1.5" stroke-linecap="round" stroke-linejoin="round"/>
</svg>
