<svg width="32" height="32" viewBox="0 0 32 32" fill="none" xmlns="http://www.w3.org/2000/svg">
<path d="M22.1267 17.5C21.8507 17.5013 21.628 17.7253 21.628 18.0013C21.628 18.2773 21.852 18.5013 22.128 18.5C22.404 18.5 22.628 18.276 22.628 18C22.628 17.724 22.404 17.5 22.1267 17.5" stroke="#181B27" stroke-width="1.5" stroke-linecap="round" stroke-linejoin="round"/>
<path d="M4 6.66666V24.6667C4 26.14 5.19333 27.3333 6.66667 27.3333H25.3333C26.8067 27.3333 28 26.14 28 24.6667V11.3333C28 9.85999 26.8067 8.66666 25.3333 8.66666H6C4.896 8.66666 4 7.77066 4 6.66666V6.66666C4 5.56266 4.896 4.66666 6 4.66666H22.6667" stroke="#181B27" stroke-width="1.5" stroke-linecap="round" stroke-linejoin="round"/>
</svg>
