<svg width="812" height="744" viewBox="0 0 812 744" fill="none" xmlns="http://www.w3.org/2000/svg">
<path fill-rule="evenodd" clip-rule="evenodd" d="M259.996 506.108C237.563 470.06 236.879 404.329 194.494 402.558C151.892 400.778 146.3 466.859 119.837 500.251C101.415 523.497 70.9825 536.9 64.9939 565.968C58.2533 598.686 65.6114 634.154 86.9441 659.908C108.898 686.413 142.78 701.949 177.157 701.381C209.487 700.847 235.733 679.268 259.205 657.062C281.712 635.769 304.955 611.335 305.117 580.322C305.275 550.247 275.897 531.661 259.996 506.108Z" fill="#17B389"/>
<path fill-rule="evenodd" clip-rule="evenodd" d="M469.941 -316.225C517.062 -350.538 580.42 -335.508 637.847 -325.678C696.751 -315.596 767.607 -311.986 797.345 -260.185C826.49 -209.418 780.281 -151.069 771.314 -93.1957C761.714 -31.24 795.62 50.3256 743.764 85.6209C691.906 120.917 627.995 61.3673 567.298 45.6659C513.928 31.86 447.869 44.5607 414.76 0.513272C381.112 -44.2526 402.248 -105.923 411.865 -161.12C421.713 -217.65 423.532 -282.43 469.941 -316.225Z" fill="#35A7FF"/>
<path fill-rule="evenodd" clip-rule="evenodd" d="M471 133.127C377.181 133.127 301.127 209.181 301.127 303C301.127 345.26 320.356 391.246 348.674 435.392L306.482 462.456C276.068 415.043 251 359.302 251 303C251 181.497 349.497 83 471 83C592.503 83 691 181.497 691 303C691 385.679 636.823 468.29 587.699 527.064C562.544 557.16 537.459 582.462 518.687 600.228C509.285 609.126 501.426 616.172 495.88 621.025C493.107 623.452 490.908 625.333 489.382 626.625C488.618 627.271 488.023 627.77 487.607 628.117L487.118 628.523L486.978 628.639L486.919 628.687C486.919 628.687 486.909 628.696 471 609.329C455.091 589.962 455.085 589.967 455.085 589.967L455.164 589.902L455.512 589.613C455.833 589.345 456.332 588.927 456.997 588.364C458.326 587.24 460.316 585.538 462.872 583.301C467.987 578.825 475.357 572.219 484.231 563.821C502.01 546.995 525.659 523.127 549.238 494.917C597.582 437.077 640.873 366.523 640.873 303C640.873 209.181 564.819 133.127 471 133.127Z" fill="#E84855"/>
<path fill-rule="evenodd" clip-rule="evenodd" d="M471.557 423.861C537.999 423.861 591.861 369.999 591.861 303.557C591.861 237.115 537.999 183.253 471.557 183.253C405.115 183.253 351.253 237.115 351.253 303.557C351.253 369.999 405.115 423.861 471.557 423.861ZM491.608 283.506V243.405H451.506V283.506H411.405V323.607H451.506V363.709H491.608V323.607H531.709V283.506H491.608Z" fill="#E84855"/>
</svg>
