<svg width="382" height="148" viewBox="0 0 382 148" fill="none" xmlns="http://www.w3.org/2000/svg">
<g clip-path="url(#clip0_1135_92941)">
<path fill-rule="evenodd" clip-rule="evenodd" d="M84.1523 131.516C74.5901 116.143 74.2986 88.1137 56.2316 87.3584C38.0721 86.5992 35.6883 114.779 24.4086 129.018C16.5558 138.931 3.5837 144.647 1.031 157.042C-1.84225 170.994 1.29422 186.119 10.3875 197.101C19.7454 208.404 34.1883 215.029 48.8414 214.787C62.6227 214.559 73.8102 205.357 83.8152 195.888C93.409 186.808 103.316 176.388 103.386 163.163C103.453 150.338 90.9306 142.412 84.1523 131.516Z" fill="#17B389"/>
<path fill-rule="evenodd" clip-rule="evenodd" d="M326.787 208.606C345.35 203.519 354.508 184.074 363.789 167.231C373.309 149.954 386.961 130.928 379.699 112.579C372.583 94.5963 347.997 94.4938 331.2 84.8802C313.218 74.5885 299.124 49.0299 279.332 55.1357C259.539 61.2418 261.769 90.0051 253.332 108.902C245.913 125.518 229.035 139.945 233.6 157.566C238.239 175.474 258.522 182.73 274.761 191.625C291.393 200.734 308.503 213.616 326.787 208.606Z" fill="#35A7FF"/>
<path fill-rule="evenodd" clip-rule="evenodd" d="M162.655 16.6197C131.678 16.6197 106.567 41.8361 106.567 72.9421C106.567 86.9537 112.916 102.201 122.266 116.837L108.336 125.811C98.2938 110.091 90.0171 91.6095 90.0171 72.9421C90.0171 32.6572 122.538 0 162.655 0C202.771 0 235.292 32.6572 235.292 72.9421C235.292 100.355 217.405 127.745 201.185 147.232C192.88 157.21 184.597 165.599 178.4 171.49C175.295 174.44 172.701 176.776 170.869 178.385C169.954 179.19 169.228 179.813 168.724 180.242C168.472 180.456 168.275 180.622 168.138 180.737L167.977 180.871L167.93 180.909L167.911 180.925C167.911 180.925 167.907 180.928 162.655 174.507C157.402 168.086 157.4 168.088 157.4 168.088L157.426 168.066L157.541 167.97C157.647 167.881 157.812 167.743 158.031 167.556C158.47 167.183 159.127 166.619 159.971 165.877C161.66 164.394 164.093 162.203 167.023 159.419C172.893 153.84 180.701 145.927 188.486 136.573C204.448 117.396 218.742 94.0036 218.742 72.9421C218.742 41.8361 193.631 16.6197 162.655 16.6197Z" fill="#E84855"/>
<path fill-rule="evenodd" clip-rule="evenodd" d="M162.839 113.014C184.776 113.014 202.559 95.156 202.559 73.1268C202.559 51.0976 184.776 33.2395 162.839 33.2395C140.901 33.2395 123.118 51.0976 123.118 73.1268C123.118 95.156 140.901 113.014 162.839 113.014ZM169.459 66.4789V53.1831H156.218V66.4789H142.978V79.7747H156.218V93.0705H169.459V79.7747H182.699V66.4789H169.459Z" fill="#E84855"/>
</g>
<defs>
<clipPath id="clip0_1135_92941">
<rect width="382" height="148" fill="white"/>
</clipPath>
</defs>
</svg>
