<svg width="24" height="24" viewBox="0 0 24 24" fill="none" xmlns="http://www.w3.org/2000/svg">
<path d="M15.8906 11.994C15.6113 12.3579 15.1818 12.5754 14.7231 12.5852C14.2654 12.5727 13.8374 12.3557 13.5566 11.994" stroke="#FF9F1C" stroke-width="1.5" stroke-linecap="round" stroke-linejoin="round"/>
<path d="M10.4433 11.994C10.1642 12.3577 9.7352 12.5751 9.27686 12.5852C8.81882 12.5728 8.39042 12.3559 8.10938 11.994" stroke="#FF9F1C" stroke-width="1.5" stroke-linecap="round" stroke-linejoin="round"/>
<path fill-rule="evenodd" clip-rule="evenodd" d="M12 21.4779C15.7557 21.476 19.0459 18.9617 20.0343 15.3384C21.1541 15.214 22.0012 14.2676 22.0012 13.141C22.0012 12.0143 21.1541 11.0679 20.0343 10.9435C19.048 7.31872 15.7566 4.80325 12 4.80325C8.24336 4.80325 4.95196 7.31872 3.96564 10.9435C2.84589 11.0679 1.99872 12.0143 1.99872 13.141C1.99872 14.2676 2.84589 15.214 3.96564 15.3384C4.95405 18.9617 8.24427 21.476 12 21.4779Z" stroke="#FF9F1C" stroke-width="1.5" stroke-linecap="round" stroke-linejoin="round"/>
<path d="M14.2229 16.1487C12.9493 17.2599 11.0507 17.2599 9.77707 16.1487" stroke="#FF9F1C" stroke-width="1.5" stroke-linecap="round" stroke-linejoin="round"/>
<path d="M9.71805 2.52203C10.3233 2.52203 10.9037 2.76245 11.3316 3.1904C11.7596 3.61835 12 4.19877 12 4.80398" stroke="#FF9F1C" stroke-width="1.5" stroke-linecap="round" stroke-linejoin="round"/>
<path d="M12 4.80398C12 4.19877 12.2404 3.61835 12.6684 3.1904C13.0963 2.76245 13.6767 2.52203 14.282 2.52203" stroke="#FF9F1C" stroke-width="1.5" stroke-linecap="round" stroke-linejoin="round"/>
</svg>
