<svg width="24" height="24" viewBox="0 0 24 24" fill="none" xmlns="http://www.w3.org/2000/svg">
<path fill-rule="evenodd" clip-rule="evenodd" d="M7.45609 20.8636C7.05187 21.0805 6.55944 21.048 6.18719 20.78C5.81494 20.512 5.62795 20.0552 5.70537 19.6031L6.57373 14.578L2.8962 11.0175C2.57118 10.6979 2.45523 10.2218 2.59689 9.78851C2.73856 9.35523 3.11341 9.03957 3.56447 8.9737L8.64859 8.24039L10.9195 3.66449C11.1247 3.25467 11.5437 2.99585 12.002 2.99585C12.4603 2.99585 12.8793 3.25467 13.0844 3.66449L15.3554 8.24039L20.4395 8.9737C20.8906 9.03957 21.2654 9.35523 21.4071 9.78851C21.5488 10.2218 21.4328 10.6979 21.1078 11.0175L17.4282 14.576L18.2966 19.6011C18.3749 20.0536 18.1883 20.5111 17.8159 20.7796C17.4435 21.0482 16.9504 21.0808 16.5459 20.8636L12 18.4937L7.45609 20.8636Z" stroke="#FF9F1C" stroke-width="1.5" stroke-linecap="round" stroke-linejoin="round"/>
<path d="M13.6677 11.6669L11.5838 13.7507L10.3323 12.5002" stroke="#FF9F1C" stroke-width="1.5" stroke-linecap="round" stroke-linejoin="round"/>
</svg>
