<svg width="622" height="312" viewBox="0 0 622 312" fill="none" xmlns="http://www.w3.org/2000/svg">
<path opacity="0.1" d="M116.658 212.13C116.658 212.13 1.67398 212.48 0.0112588 234.613C-0.62825 243.339 26.1991 253.466 23.5132 264.58C21.9464 271.141 11.5544 272.16 11.9061 275.822C12.4817 281.586 38.2859 278.178 63.6424 292.063C69.8136 295.439 88.4873 305.661 87.7838 317.03C86.7606 333.909 43.9775 336.711 43.8816 348.271C43.7856 362.793 103.995 384.703 168.042 379.512C216.677 375.563 222.209 359.672 264.608 360.787C308.191 361.933 311.676 378.971 362.421 389.512C398.617 397.027 438.394 391.614 517.917 380.754C618.992 366.965 621.901 357.188 621.997 354.513C622.509 339.959 546.28 334.769 544.233 312.063C542.155 288.911 619.759 277.86 619.471 258.37C618.992 221.174 336.329 200.793 116.658 212.13Z" fill="#35A7FF"/>
<path d="M434.264 269.653L188.085 285.139V21.4545L461.15 29.7224L434.264 269.653Z" fill="white"/>
<path d="M514.39 266.391L392.432 274.077V38.717L514.39 41.9789V266.391Z" fill="#E8E8E9"/>
<path d="M512.354 266.52L394.661 273.932V38.7816L512.354 41.9143V266.52Z" fill="white"/>
<path opacity="0.2" d="M512.354 48.632L394.661 45.806V38.7816L512.354 41.9143V48.632Z" fill="#E8E8E9"/>
<path d="M257.531 246.932L192.981 250.194V43.6422L257.531 45.0955V246.932Z" fill="#35A7FF"/>
<path d="M323.357 243.59L261.91 246.706V45.1924L323.357 46.5812V243.59Z" fill="#35A7FF"/>
<path d="M386.13 240.408L327.542 243.38V46.6781L386.13 48.0022V240.408Z" fill="#35A7FF"/>
<path d="M504.388 267.021L403.338 273.383V176.768L504.388 174.152V267.021Z" fill="#E8E8E9"/>
<path d="M452.28 270.299L411.174 272.899V188.492L452.28 187.232V270.299Z" fill="#8B8D93"/>
<path d="M497.085 267.489L457.434 269.976V187.071L497.085 185.86V267.489Z" fill="#8B8D93"/>
<path d="M386.13 97.7064L187.81 96.9959V90.0522L386.13 91.2633V97.7064Z" fill="white"/>
<path d="M386.13 147.427L187.81 150.463V143.519L386.13 140.984V147.427Z" fill="white"/>
<path d="M386.13 197.147L187.81 203.929V196.986L386.13 190.688V197.147Z" fill="white"/>
<path d="M506.57 156.987L400.947 159.021C399.799 159.037 398.862 158.101 398.862 156.922V51.8455C398.862 50.6667 399.799 49.73 400.947 49.7623L506.57 52.1361C507.62 52.1523 508.476 53.0889 508.476 54.2193V154.903C508.492 156.034 507.636 156.97 506.57 156.987Z" fill="#E84855"/>
<path d="M460.956 34.9544L187.81 27.7523V16.0126L460.956 25.2009V34.9544Z" fill="#F4F4F4"/>
<path d="M481.457 95.912L462.448 95.8613V77.092C462.448 76.3486 461.871 75.7234 461.158 75.7234L446.48 75.4868C445.75 75.4699 445.157 76.0782 445.157 76.8386V95.7092L426.162 95.6416C425.432 95.6416 424.821 96.2499 424.821 97.0103V112.59C424.821 113.35 425.415 113.958 426.162 113.958L445.157 113.924V132.807C445.157 133.567 445.75 134.175 446.48 134.159L461.158 133.973C461.871 133.956 462.448 133.347 462.448 132.604V113.823L481.457 113.789C482.153 113.789 482.73 113.181 482.73 112.437V97.2806C482.73 96.5203 482.153 95.9289 481.457 95.912Z" fill="white"/>
<path d="M465.319 28.7051L181.444 19.872V10.8128L465.319 21.2284V28.7051Z" fill="white"/>
<path d="M517.153 46.2097L389.378 43.0124C387.649 42.9639 387.083 40.2349 388.602 39.3306L452.861 0.849381C454.105 0.106563 455.592 0.171156 456.836 1.01086L517.848 42.7379C519.221 43.6906 518.704 46.242 517.153 46.2097Z" fill="#E8E8E9"/>
<path d="M399.719 38.2971L454.752 5.20941C454.784 5.19326 454.816 5.17712 454.849 5.17712C454.881 5.17712 454.913 5.19326 454.946 5.20941L507.701 41.1877L399.719 38.2971Z" fill="white"/>
<path opacity="0.3" d="M428.689 216.864C422.501 216.735 416.652 215.298 411.191 213.005V272.882L452.28 270.299V208.774C445.946 213.215 439.45 217.09 428.689 216.864Z" fill="white"/>
<path opacity="0.3" d="M479.926 196.598C469.811 197.454 463.267 201.152 457.434 205.141V269.976L497.085 267.473V198.746C492.302 196.97 486.728 196.017 479.926 196.598Z" fill="white"/>
<path opacity="0.3" d="M368.001 178.722C342.407 147.814 346.964 126.531 327.542 117.472V243.38L386.13 240.408V198.035C378.294 191.14 372.121 183.696 368.001 178.722Z" fill="white"/>
<path opacity="0.3" d="M267.29 123.802C265.399 123.285 263.606 122.655 261.909 121.929V246.706L323.373 243.589V115.889C304 110.237 292.173 130.584 267.29 123.802Z" fill="white"/>
<path opacity="0.3" d="M203.79 62.7132C200.591 61.6313 197.02 60.9369 192.997 60.9046V250.21L257.531 246.932V119.765C233.165 105.861 228.915 71.2718 203.79 62.7132Z" fill="white"/>
<path d="M388.925 43.1739H392.577V274.093L388.925 272.576V43.1739Z" fill="#E8E8E9"/>
<path d="M69.0996 34.5184L188.004 19.5975V285.139L69.0996 243.961V34.5184Z" fill="#F4F4F4"/>
<g opacity="0.3">
<path d="M102.95 226.198L73.4622 217.817V52.6206L102.95 50.1499V226.198Z" fill="#A2A7AE"/>
<path d="M139.095 236.484L105.131 226.828V49.9723L139.095 47.114V236.484Z" fill="#A2A7AE"/>
<path d="M181.153 248.466L141.632 237.211V46.9041L181.153 43.5938V248.466Z" fill="#A2A7AE"/>
</g>
<path d="M63.7999 35.0352L181.444 19.5975V10.8451L63.7999 27.5747V35.0352Z" fill="#F4F4F4"/>
<path d="M63.7999 35.1805L69.0996 36.5854L188.085 21.4545L181.444 19.5975L63.7999 35.1805Z" fill="#D8DEE8"/>
<path d="M85.919 251.983C83.7141 251.802 68.1714 250.684 61.5568 237.951C60.7977 236.472 57.147 229.438 59.2796 221.899C61.5206 214.108 68.1353 212.268 67.4124 207.219C66.7618 202.71 61.3399 202.926 58.7374 197.083C56.0627 191.167 57.5808 181.824 63.3279 178.939C67.304 176.955 72.7258 178.289 76.1235 181.175C81.9791 186.153 78.2922 192.754 82.9912 200.978C88.3769 210.357 96.2928 207.11 102.293 215.84C109.269 225.976 108.004 243.831 98.7868 249.927C94.7385 252.632 90.1841 252.307 85.919 251.983Z" fill="#17B389"/>
<path opacity="0.2" d="M85.919 251.983C83.7141 251.802 68.1714 250.684 61.5568 237.951C60.7977 236.472 57.147 229.438 59.2796 221.899C61.5206 214.108 68.1353 212.268 67.4124 207.219C66.7618 202.71 61.3399 202.926 58.7374 197.083C56.0627 191.167 57.5808 181.824 63.3279 178.939C67.304 176.955 72.7258 178.289 76.1235 181.175C81.9791 186.153 78.2922 192.754 82.9912 200.978C88.3769 210.357 96.2928 207.11 102.293 215.84C109.269 225.976 108.004 243.831 98.7868 249.927C94.7385 252.632 90.1841 252.307 85.919 251.983Z" fill="#181B27"/>
<g opacity="0.5">
<path opacity="0.7" d="M100.305 253.209C100.269 253.209 100.196 253.209 100.16 253.173C88.9913 243.254 82.0152 232.396 79.4489 220.926C78.6175 217.21 78.4368 214.288 78.2199 211.475C78.003 208.048 77.7862 204.802 76.4126 200.509C73.2318 190.373 65.9304 181.5 54.7253 174.177C54.6168 174.105 54.6168 173.997 54.653 173.889C54.7253 173.781 54.8337 173.781 54.9421 173.817C66.2196 181.211 73.5571 190.157 76.8102 200.365C78.1838 204.73 78.4006 207.976 78.6175 211.439C78.7983 214.252 79.0151 217.138 79.8103 220.817C82.3767 232.216 89.2805 243.001 100.413 252.848C100.486 252.921 100.486 253.029 100.413 253.137C100.413 253.209 100.377 253.209 100.305 253.209Z" fill="white"/>
<path opacity="0.7" d="M75.1837 196.686C75.1475 196.686 75.1475 196.686 75.1837 196.686C67.7377 196.505 62.4604 194.089 59.388 192.105C56.0265 189.94 54.4361 187.884 54.3999 187.776C54.3276 187.704 54.3638 187.56 54.4361 187.488C54.5084 187.415 54.653 187.452 54.7253 187.524C54.7975 187.596 61.1592 195.892 75.2198 196.289C75.3283 196.289 75.4006 196.397 75.4006 196.505C75.3644 196.614 75.256 196.686 75.1837 196.686Z" fill="white"/>
<path opacity="0.7" d="M86.2081 236.869C86.1719 236.869 86.0996 236.833 86.0635 236.797C85.9912 236.725 85.9912 236.58 86.0635 236.508C88.8106 233.803 90.907 230.665 92.2444 227.166C95.7867 217.932 92.8589 209.311 91.4492 206.028C91.413 205.92 91.4492 205.812 91.5576 205.776C91.6661 205.74 91.7745 205.776 91.8107 205.884C93.2565 209.202 96.1843 217.932 92.6059 227.31C91.2323 230.845 89.1359 234.055 86.3165 236.797C86.3165 236.833 86.2804 236.869 86.2081 236.869Z" fill="white"/>
<path opacity="0.7" d="M87.4732 244.3C79.0151 244.3 72.0751 242.027 66.9063 237.518C58.3036 230.015 57.4723 218.87 57.4723 218.725C57.4723 218.617 57.5446 218.509 57.653 218.509C57.7615 218.509 57.8699 218.581 57.8699 218.689C57.8699 218.797 58.6651 229.835 67.1593 237.194C73.0511 242.28 81.1477 244.48 91.2685 243.723C91.3769 243.723 91.4853 243.795 91.4853 243.903C91.4853 244.011 91.413 244.119 91.3046 244.119C90.0034 244.227 88.7383 244.3 87.4732 244.3Z" fill="white"/>
</g>
<path d="M96.618 263.706C83.6779 260.784 76.991 250.215 75.3644 247.654C74.4246 246.175 66.9786 233.983 70.7378 220.24C74.1355 207.904 83.5695 205.415 83.9671 192.61C84.1478 186.874 82.4489 182.005 82.3044 181.572C79.3043 173.203 74.6776 172.735 72.7619 166.025C70.7016 158.883 73.9547 152.318 76.0873 148.026C78.6898 142.796 81.0393 137.998 86.4611 136.447C91.7384 134.932 98.2446 136.988 102.004 140.848C107.787 146.763 102.763 152.499 108.438 162.959C112.016 169.56 114.908 168.875 117.076 174.971C119.462 181.572 116.823 184.53 117.872 191.636C118.956 198.886 122.607 201.772 126.98 208.878C131.137 215.659 140.029 230.124 136.523 242.388C132.764 255.878 113.787 267.565 96.618 263.706Z" fill="#17B389"/>
<path opacity="0.1" d="M96.618 263.706C83.6779 260.784 76.991 250.215 75.3644 247.654C74.4246 246.175 66.9786 233.983 70.7378 220.24C74.1355 207.904 83.5695 205.415 83.9671 192.61C84.1478 186.874 82.4489 182.005 82.3044 181.572C79.3043 173.203 74.6776 172.735 72.7619 166.025C70.7016 158.883 73.9547 152.318 76.0873 148.026C78.6898 142.796 81.0393 137.998 86.4611 136.447C91.7384 134.932 98.2446 136.988 102.004 140.848C107.787 146.763 102.763 152.499 108.438 162.959C112.016 169.56 114.908 168.875 117.076 174.971C119.462 181.572 116.823 184.53 117.872 191.636C118.956 198.886 122.607 201.772 126.98 208.878C131.137 215.659 140.029 230.124 136.523 242.388C132.764 255.878 113.787 267.565 96.618 263.706Z" fill="#181B27"/>
<path opacity="0.7" d="M108.835 269.549C108.763 269.549 108.727 269.513 108.691 269.477C95.606 253.534 90.6901 239.755 93.9794 228.5C95.3168 223.992 97.7385 220.384 100.124 216.922C103.703 211.655 107.1 206.677 106.558 198.886C106.088 192.177 102.69 185.792 100.666 181.969C99.1844 179.191 97.9916 176.991 96.9433 175.043C94.2324 170.029 92.7143 167.252 91.1962 163.681C87.2563 154.483 87.9792 143.192 93.2565 130.171C93.2926 130.062 93.4011 130.026 93.5095 130.062C93.6179 130.098 93.6541 130.207 93.6179 130.315C88.3407 143.264 87.6539 154.446 91.5576 163.536C93.0758 167.107 94.5577 169.849 97.2686 174.863C98.3169 176.811 99.5458 179.047 100.992 181.788C103.052 185.612 106.45 192.069 106.92 198.85C107.462 206.75 104.028 211.8 100.413 217.138C98.0639 220.565 95.6421 224.136 94.3409 228.609C91.0516 239.719 95.9674 253.39 108.98 269.225C109.052 269.297 109.052 269.441 108.944 269.513C108.944 269.513 108.908 269.549 108.835 269.549Z" fill="white"/>
<path opacity="0.7" d="M93.1842 168.767H93.1481C86.5334 167.54 77.8223 164.691 73.6656 158.126C71.1715 154.194 71.533 150.803 71.5691 150.659C71.5691 150.551 71.6775 150.479 71.786 150.479C71.8944 150.479 71.9667 150.587 71.9667 150.695C71.9667 150.731 71.6053 154.086 74.027 157.909C78.1115 164.33 86.7141 167.144 93.2203 168.334C93.3288 168.37 93.4011 168.442 93.3649 168.55C93.3649 168.695 93.2565 168.767 93.1842 168.767Z" fill="white"/>
<path opacity="0.7" d="M103.703 187.812C103.63 187.812 103.522 187.74 103.522 187.668C103.486 187.56 103.558 187.452 103.666 187.416C106.414 186.658 108.546 185.035 109.92 182.582C114.076 175.187 110.534 162.563 110.498 162.454C110.462 162.346 110.534 162.238 110.643 162.202C110.751 162.166 110.859 162.238 110.896 162.346C110.932 162.49 114.546 175.26 110.281 182.762C108.835 185.323 106.667 187.019 103.775 187.776C103.739 187.812 103.703 187.812 103.703 187.812Z" fill="white"/>
<path opacity="0.7" d="M95.3529 225.579C95.3168 225.579 95.2806 225.579 95.2445 225.543C85.3406 219.086 81.9429 211.511 80.8224 206.317C79.6296 200.654 80.7862 196.469 80.8224 196.433C80.8585 196.325 80.967 196.253 81.0754 196.289C81.1838 196.325 81.2561 196.433 81.22 196.541C81.22 196.578 80.0633 200.69 81.2561 206.245C82.3405 211.367 85.702 218.833 95.4975 225.218C95.6059 225.29 95.6059 225.398 95.5698 225.507C95.4975 225.543 95.4252 225.579 95.3529 225.579Z" fill="white"/>
<path opacity="0.7" d="M98.2446 253.786C98.1361 253.786 98.0638 253.714 98.0638 253.606C98.0638 253.498 98.1361 253.39 98.2446 253.39C104.895 253.209 110.751 251.009 115.631 246.753C119.534 243.362 122.86 238.673 125.498 232.829C129.98 222.837 130.884 212.846 130.884 212.737C130.884 212.629 130.993 212.557 131.101 212.557C131.209 212.557 131.282 212.665 131.282 212.774C131.282 212.882 130.342 222.946 125.86 233.009C121.667 242.244 113.498 253.426 98.2446 253.786Z" fill="white"/>
<path d="M159.005 275.465C168.548 267.349 165.476 244.841 159.548 231.422C155.716 222.801 152.066 220.926 150.945 212.593C149.427 201.05 155.536 197.768 154.379 185.756C153.331 174.791 148.09 174.791 146.318 163.5C144.258 150.226 151.306 147.088 150.547 134.319C149.716 119.963 139.559 102.865 128.173 102.793C120.51 102.721 112.811 110.404 110.1 118.339C105.908 130.603 115.992 136.303 114.329 152.282C113.968 155.673 113.281 158.234 112.341 160.362C109.594 166.783 106.486 170.642 104.606 173.203C97.6302 182.546 97.6302 194.449 97.6302 198.994C97.6302 211.006 102.98 211.872 106.052 227.563C109.233 243.722 104.317 246.752 107.643 255.337C114.691 273.661 147.041 285.637 159.005 275.465Z" fill="#17B389"/>
<path opacity="0.7" d="M152.933 284.591C152.897 284.591 152.861 284.591 152.825 284.555C138.945 273.481 131.246 261.722 130.017 249.674C129.402 243.65 130.378 239.394 131.426 234.921C132.583 229.979 133.776 224.857 133.017 216.777C132.222 208.589 129.691 204.802 127.27 201.195C124.992 197.804 122.607 194.269 121.848 187.199C120.727 176.774 123.185 169.957 125.824 162.743C127.956 156.863 130.161 150.767 130.667 142.182C131.535 127.898 126.438 112.82 115.45 97.382C115.378 97.3098 115.414 97.1655 115.486 97.0934C115.558 97.0213 115.703 97.0573 115.775 97.1295C126.8 112.64 131.932 127.79 131.065 142.182C130.559 150.803 128.318 156.935 126.185 162.851C123.583 170.029 121.125 176.811 122.245 187.127C123.004 194.125 125.245 197.443 127.595 200.942C130.053 204.621 132.619 208.409 133.414 216.741C134.173 224.857 132.981 230.015 131.824 234.993C130.776 239.466 129.8 243.686 130.414 249.638C131.643 261.578 139.27 273.229 153.078 284.266C153.15 284.339 153.186 284.447 153.114 284.555C153.041 284.555 152.969 284.591 152.933 284.591Z" fill="white"/>
<path opacity="0.7" d="M130.848 142.363C130.812 142.363 130.812 142.363 130.776 142.363C119.751 137.89 113.86 129.81 110.859 123.858C107.606 117.365 106.956 111.883 106.92 111.81C106.92 111.702 106.992 111.594 107.1 111.594C107.209 111.594 107.317 111.666 107.317 111.774C107.317 111.846 107.968 117.257 111.221 123.678C114.185 129.593 120.04 137.565 130.956 142.002C131.065 142.038 131.101 142.146 131.065 142.254C130.993 142.327 130.92 142.363 130.848 142.363Z" fill="white"/>
<path opacity="0.7" d="M123.547 192.934C123.438 192.934 123.366 192.862 123.366 192.79C123.33 192.682 123.402 192.574 123.51 192.574C130.125 191.275 139.451 186.55 146.282 171.292C150.403 162.166 151.668 153.473 151.668 153.364C151.668 153.256 151.776 153.184 151.885 153.184C151.993 153.184 152.065 153.292 152.065 153.4C152.065 153.473 150.764 162.238 146.644 171.4C142.812 179.913 135.728 190.518 123.583 192.898C123.583 192.934 123.583 192.934 123.547 192.934Z" fill="white"/>
<path opacity="0.7" d="M133.451 224.749H133.414C115.125 221.106 105.98 209.563 101.498 200.473C96.6542 190.662 96.1121 181.572 96.1121 181.5C96.1121 181.392 96.1844 181.283 96.2928 181.283C96.4012 181.283 96.5097 181.356 96.5097 181.464C96.5097 181.536 97.0518 190.554 101.859 200.293C106.305 209.275 115.378 220.745 133.487 224.316C133.595 224.352 133.667 224.424 133.631 224.533C133.631 224.677 133.559 224.749 133.451 224.749Z" fill="white"/>
<path opacity="0.7" d="M135.583 265.618C135.475 265.618 135.402 265.545 135.402 265.473C135.366 265.365 135.438 265.257 135.547 265.257C143.138 263.778 153.15 258.584 157.813 242.099C160.596 232.216 160.126 222.801 160.126 222.729C160.126 222.621 160.198 222.513 160.307 222.513C160.415 222.513 160.524 222.585 160.524 222.693C160.524 222.801 161.03 232.252 158.21 242.207C155.608 251.406 149.608 262.984 135.655 265.654C135.619 265.618 135.619 265.618 135.583 265.618Z" fill="white"/>
<path d="M259.355 286.322C259.79 319.59 262.062 356.997 267.508 397.641C272.892 437.819 280.424 474.106 288.671 506.036C284.874 507.063 281.077 508.09 277.28 509.086C267.633 500.092 255.496 485.963 249.614 465.983C245.973 453.566 247.186 447.217 244.883 431.937C241.211 407.662 233.773 394.934 226.055 375.328C219.146 357.713 210.962 331.883 206.573 297.369C224.157 293.697 241.74 290.025 259.355 286.322Z" fill="#2F313D"/>
<path d="M217.528 286.477C215.194 328.802 213.296 371.904 211.833 415.754C210.744 448.68 209.935 481.17 209.405 513.256C205.515 513.723 201.656 514.221 197.766 514.688C194.032 507.716 189.052 497.042 185.629 483.38C181.49 466.761 182.455 456.896 180.619 439.686C178.596 420.391 175.608 416.19 170.38 391.822C159.736 342.402 154.415 317.691 166.272 302.318C170.162 297.338 182.237 284.797 217.528 286.477Z" fill="#2F313D"/>
<path d="M171.251 146.837C180.338 144.285 193.658 141.297 209.966 140.364C233.213 139.057 244.852 138.403 253.099 143.943C272.114 156.734 257.394 186.267 265.174 259.433C268.473 290.523 269.967 288.531 262.529 299.579C247.373 322.08 204.8 323.916 185.287 304.403C174.986 294.102 173.647 293.51 173.398 281.747C172.371 235.345 171.656 191.527 171.251 146.837Z" fill="#35A7FF"/>
<path d="M328.07 243.343C329.315 238.769 318.702 237.244 310.486 224.764C298.785 207.056 310.175 194.981 299.719 174.566C291.285 158.134 276.409 150.043 271.523 147.522C259.448 141.298 248.213 140.177 241.865 140.022C236.107 154.244 228.887 175.655 225.464 202.481C222.383 226.663 223.814 242.69 225.464 275.927C226.522 296.934 227.58 327.339 227.238 364.84C233.649 366.894 238.877 367.361 242.394 367.454C254.842 367.734 258.981 363.222 271.71 364.466C277.249 364.995 278.65 366.085 280.486 364.84C285.683 361.385 281.793 348.501 279.179 334.559C275.133 312.961 279.552 317.411 275.6 282.463C272.332 253.489 267.82 237.213 272.021 235.563C274.262 234.661 276.471 238.986 282.446 243.063C299.283 254.485 326.171 250.346 328.07 243.343Z" fill="white"/>
<path opacity="0.3" d="M259.355 286.322C259.51 264.506 271.149 261.425 269.967 242.659C268.784 223.768 256.74 222.71 257.145 206.465C257.643 186.703 275.662 180.448 274.977 162.46C274.728 156.391 272.425 151.07 269.438 146.526C258.172 141.204 247.84 140.146 241.865 139.99C236.107 154.213 228.887 175.624 225.464 202.45C222.383 226.631 223.814 242.659 225.464 275.896C226.522 296.903 227.58 327.308 227.238 364.809C233.649 366.863 238.877 367.33 242.394 367.423C254.842 367.703 258.981 363.19 271.71 364.435C277.249 364.964 278.65 366.054 280.486 364.809C285.029 361.79 282.633 351.582 280.206 339.725C276.378 334.777 272.457 330.047 268.255 321.177C265.112 314.486 259.23 302.007 259.355 286.322Z" fill="#35A7FF"/>
<path d="M214.074 206.527C216.906 217.326 216.657 225.947 216.346 233.883C214.665 277.639 213.825 299.641 213.078 305.865C209.53 336.115 207.009 334.217 207.881 346.51C208.348 353.076 209.406 358.709 205.827 362.848C201.532 367.796 195.37 365.12 180.183 367.081C166.21 368.886 165.836 371.873 150.774 373.678C144.643 374.425 127.9 376.417 126.157 371.655C125.223 369.103 128.678 364.933 132.008 362.848C137.454 359.487 142.06 362.008 143.896 359.331C146.012 356.25 140.317 352.329 140.13 344.922C139.943 337.547 145.421 335.15 148.844 326.125C152.018 317.692 150.742 310.534 150.245 305.461C148.066 282.805 158.025 264.879 160.017 234.847C163.098 188.104 143.087 167.564 156.655 152.563C164 144.441 176.106 143.6 183.669 143.787C191.511 160.157 198.295 173.041 203.088 181.879C208.223 191.433 211.615 197.253 214.074 206.527Z" fill="white"/>
<path d="M244.51 194.483C243.39 190.655 239.873 186.952 241.242 182.44C242.052 179.763 244.199 178.051 245.848 176.993C256.678 174.566 263.992 164.42 262.903 153.777C262.467 149.513 260.724 145.561 258.048 142.356C251.419 140.582 245.724 140.115 241.834 140.022C236.076 154.244 228.856 175.655 225.433 202.481C223.97 213.903 223.535 223.488 223.628 233.945C225.495 227.939 228.14 223.457 230.941 220.065C235.734 214.276 247.249 203.851 244.51 194.483Z" fill="white"/>
<g opacity="0.64">
<path opacity="0.3" d="M214.074 206.527C211.615 197.253 208.223 191.433 203.057 181.879C198.264 173.041 191.511 160.157 183.637 143.787C181.801 143.756 179.716 143.756 177.475 143.943C165.525 160.468 164.747 169.68 167.548 175.157C170.255 180.51 175.919 181.537 176.666 187.294C177.818 196.319 164.716 199.4 161.479 211.569C158.678 222.212 165.245 232.824 171.438 242.845C181.957 259.869 191.604 261.954 191.231 271.072C190.858 280.564 180.339 280.72 176.044 292.328C169.322 310.502 190.204 323.605 183.949 339.694C179.094 352.174 164.436 349.777 155.411 365.805C153.979 368.357 152.952 370.94 152.205 373.46C165.867 371.624 166.708 368.792 180.183 367.049C195.37 365.089 201.532 367.765 205.827 362.817C209.437 358.678 208.348 353.045 207.881 346.478C207.009 334.186 209.53 336.084 213.078 305.834C213.825 299.61 214.665 277.608 216.346 233.851C216.657 225.947 216.906 217.357 214.074 206.527Z" fill="#35A7FF"/>
</g>
<path d="M182.143 181.288C188.305 186.765 192.787 188.633 193.534 193.861C194.374 199.618 189.581 201.548 190.391 207.15C191.418 214.152 199.353 214.183 203.461 223.146C206.138 229.028 203.804 231.331 205.422 238.955C206.418 243.592 208.845 250.034 215.443 257.192C215.723 250.221 216.003 242.503 216.345 233.883C216.657 225.947 216.906 217.326 214.074 206.527C211.615 197.253 208.223 191.434 203.057 181.879C198.264 173.041 191.511 160.157 183.637 143.787C179.218 143.694 173.212 143.943 167.548 145.81C165.587 149.389 165.276 152.221 165.214 153.746C164.778 165.852 178.035 177.616 182.143 181.288Z" fill="white"/>
<path d="M161.853 160.935C157.776 161.184 171.562 144.13 165.027 146.681C138.667 156.983 114.3 190.438 119.777 221.185C120.679 226.32 124.414 247.327 142.246 257.535C158.585 266.902 180.681 264.475 198.358 251.217C200.785 249.07 203.181 246.922 205.609 244.775C207.974 242.192 210.37 239.64 212.735 237.057C209.001 233.945 202.652 229.463 193.721 226.569C182.144 222.835 173.865 229.121 167.921 224.391C163.284 220.718 163.035 213.623 163.222 207.461C163.907 184.742 155.722 178.02 161.853 160.935Z" fill="white"/>
<path d="M297.042 247.918L193.471 246.393L221.013 259.682L297.322 254.671L297.042 247.918Z" fill="#181B27"/>
<path d="M189.83 249.132C189.83 251.061 191.044 252.804 192.88 253.458L225.962 266.435L226.117 257.441L193.503 246.362C191.635 245.864 189.83 247.233 189.83 249.132Z" fill="#181B27"/>
<path opacity="0.15" d="M189.83 249.132C189.83 251.061 191.044 252.804 192.88 253.458L225.962 266.435L226.117 257.441L193.503 246.362C191.635 245.864 189.83 247.233 189.83 249.132Z" fill="white"/>
<path d="M205.764 243.001C205.142 242.845 208.876 235.408 211.802 236.279C214.727 237.15 229.074 245.428 230.35 248.852C231.657 252.275 231.657 252.275 231.657 252.275C231.657 252.275 225.402 252.773 221.543 251.466C217.653 250.19 210.93 244.153 205.764 243.001Z" fill="#FFC980"/>
<path d="M228.856 194.328L221.543 260.802C221.294 263.105 224.499 266.529 226.802 266.404L333.89 259.838C335.664 259.744 337.126 258.468 337.406 256.725L350.851 192.523C351.255 190.189 347.054 187.761 344.689 187.855L232.466 190.998C230.599 191.06 229.043 192.492 228.856 194.328Z" fill="#2F313D"/>
<path opacity="0.1" d="M228.856 194.328L221.543 260.802C221.294 263.105 224.499 266.529 226.802 266.404L333.89 259.838C335.664 259.744 337.126 258.468 337.406 256.725L350.851 192.523C351.255 190.189 347.054 187.761 344.689 187.855L232.466 190.998C230.599 191.06 229.043 192.492 228.856 194.328Z" fill="#181B27"/>
<path d="M231.284 196.288L223.97 262.763C223.721 265.066 225.588 267.026 227.891 266.933L336.348 261.798C338.122 261.705 339.585 260.429 339.865 258.686L350.944 194.203C351.349 191.869 349.512 189.753 347.147 189.815L234.925 192.958C233.058 192.99 231.501 194.421 231.284 196.288Z" fill="#2F313D"/>
<path opacity="0.15" d="M294.988 246.207C285.528 242.192 288.857 234.536 277.685 225.013C262.934 212.44 247.902 217.886 242.643 208.145C240.993 205.096 240.215 200.396 243.078 192.741L234.956 192.958C233.089 193.021 231.532 194.452 231.315 196.288L224.001 262.763C223.752 265.066 225.62 267.027 227.922 266.933L336.379 261.798C338.153 261.705 339.616 260.429 339.896 258.686L341.421 249.785C338.122 247.949 334.201 246.3 329.595 245.366C313.692 242.099 305.881 250.812 294.988 246.207Z" fill="white"/>
<path d="M343.195 252.493C343.381 251.964 343.008 251.404 342.448 251.373C340.145 251.248 334.854 251.217 331.898 252.991C328.07 255.325 323.153 259.589 327.292 261.736L331.182 263.759C331.369 263.852 331.555 263.883 331.742 263.852C333.111 263.541 338.931 262.265 339.553 261.954C340.114 261.643 342.323 255.076 343.195 252.493Z" fill="#FFC980"/>
<path d="M211.677 114.969C211.74 121.878 210.962 127.324 210.246 131.09C209.405 135.385 208.814 136.474 208.036 137.376C206.885 138.714 205.142 139.866 195.245 142.325C189.861 143.663 189.177 143.632 189.052 144.161C188.461 146.775 203.119 155.644 218.275 153.497C227.549 152.19 235.983 146.899 235.454 144.13C234.925 141.329 225.682 142.822 222.912 137.781C220.982 134.264 223.13 129.285 225.682 125.146C223.254 120.478 214.136 119.575 211.677 114.969Z" fill="#FFC980"/>
<path d="M228.887 117.677C231.066 114.782 231.221 109.71 228.7 106.504C226.522 103.734 223.13 103.361 221.076 103.112C215.163 102.427 207.694 104.886 205.08 110.363C203.555 113.6 206.885 120.291 207.382 121.505C207.974 122.874 209.032 123.341 210.028 124.368C211.397 125.799 213.544 128.071 217.061 131.868C217.341 130.747 217.746 129.347 218.399 127.853C218.648 127.262 219.675 125.021 221.2 123.123C224.312 119.357 226.802 120.446 228.887 117.677Z" fill="#2F313D"/>
<path d="M212.051 128.662C212.051 128.662 215.941 135.042 223.69 134.544C230.63 134.077 231.657 118.517 227.207 115.218C225.713 114.129 222.756 113.662 220.36 114.347C218.929 114.751 218.462 115.343 216.128 115.934C213.98 116.494 213.358 116.245 212.704 116.805C211.895 117.49 211.304 119.17 212.642 123.714C211.304 122.376 209.717 121.847 208.596 122.376C208.41 122.469 207.943 122.78 207.663 123.278C206.729 125.083 208.347 127.355 212.051 128.662Z" fill="#FFC980"/>
<path d="M212.393 115.872C212.736 116.121 211.709 117.365 211.615 119.139C211.46 122.563 214.945 126.702 218.493 127.044C220.578 127.262 221.169 125.986 224.624 125.612C226.771 125.395 228.545 125.644 229.666 125.893C230.755 129.658 229.728 133.393 227.207 135.136C224.499 137.003 221.045 135.882 219.582 135.385C218.618 135.073 215.505 134.046 213.887 131.214C212.207 128.258 213.856 126.453 211.927 124.461C210.962 123.465 209.655 122.998 208.41 121.069C208.068 120.54 207.85 120.073 207.694 119.762C209.561 117.895 211.927 115.529 212.393 115.872Z" fill="#2F313D"/>
<path d="M227.176 127.324C227.176 127.324 225.682 128.102 223.099 127.947C222.974 127.947 222.819 127.978 222.819 128.04C222.757 128.289 224.406 129.378 225.962 128.942C227.051 128.631 227.892 127.604 227.736 127.355C227.674 127.262 227.425 127.262 227.176 127.324Z" fill="#FFC980"/>
</svg>
