<svg width="349" height="147" viewBox="0 0 349 147" fill="none" xmlns="http://www.w3.org/2000/svg">
<path opacity="0.1" d="M66.0344 118.611C66.0344 118.611 1.74244 118.806 0.812747 131.182C0.455172 136.061 15.4554 141.723 13.9536 147.937C13.0776 151.606 7.26697 152.175 7.46364 154.223C7.78545 157.446 22.2136 155.541 36.3914 163.304C39.842 165.192 50.2832 170.908 49.8899 177.264C49.3178 186.702 25.396 188.269 25.3424 194.732C25.2887 202.852 58.9544 215.103 94.7655 212.2C121.959 209.992 125.052 201.107 148.759 201.73C173.128 202.371 175.077 211.898 203.45 217.792C223.689 221.994 245.93 218.967 290.395 212.895C346.909 205.185 348.536 199.718 348.59 198.222C348.876 190.085 306.253 187.183 305.109 174.487C303.947 161.542 347.338 155.363 347.178 144.465C346.909 123.668 188.861 112.271 66.0344 118.611Z" fill="#35A7FF"/>
<path d="M243.621 150.774L105.972 159.433V11.9961L258.654 16.619L243.621 150.774Z" fill="white"/>
<path d="M288.422 148.95L220.231 153.248V21.6484L288.422 23.4723V148.95Z" fill="#E8E8E9"/>
<path d="M287.284 149.022L221.477 153.167V21.6846L287.284 23.4362V149.022Z" fill="white"/>
<path opacity="0.2" d="M287.284 27.1923L221.477 25.6122V21.6846L287.284 23.4362V27.1923Z" fill="#E8E8E9"/>
<path d="M144.802 138.07L108.71 139.894V24.4023L144.802 25.215V138.07Z" fill="#35A7FF"/>
<path d="M181.608 136.201L147.251 137.944V25.2695L181.608 26.046V136.201Z" fill="#35A7FF"/>
<path d="M216.707 134.422L183.948 136.083V26.0996L216.707 26.84V134.422Z" fill="#35A7FF"/>
<path d="M282.83 149.301L226.329 152.859V98.8377L282.83 97.375V149.301Z" fill="#E8E8E9"/>
<path d="M253.694 151.135L230.71 152.589V105.394L253.694 104.689V151.135Z" fill="#8B8D93"/>
<path d="M278.746 149.564L256.576 150.955V104.599L278.746 103.922V149.564Z" fill="#8B8D93"/>
<path d="M216.707 54.6314L105.819 54.2341V50.3516L216.707 51.0287V54.6314Z" fill="white"/>
<path d="M216.707 82.4317L105.819 84.1292V80.2467L216.707 78.8291V82.4317Z" fill="white"/>
<path d="M216.707 110.233L105.819 114.025V110.142L216.707 106.621V110.233Z" fill="white"/>
<path d="M284.05 87.777L224.992 88.9147C224.35 88.9237 223.826 88.4 223.826 87.7409V28.9885C223.826 28.3293 224.35 27.8056 224.992 27.8237L284.05 29.151C284.637 29.16 285.116 29.6837 285.116 30.3157V86.6123C285.125 87.2443 284.646 87.768 284.05 87.777Z" fill="#E84855"/>
<path d="M258.546 19.5443L105.819 15.5173V8.95312L258.546 14.0907V19.5443Z" fill="#F4F4F4"/>
<path d="M270.008 53.6278L259.379 53.5994V43.1048C259.379 42.6891 259.057 42.3395 258.658 42.3395L250.451 42.2072C250.043 42.1978 249.711 42.5379 249.711 42.9631V53.5144L239.09 53.4766C238.682 53.4766 238.341 53.8167 238.341 54.2419V62.9528C238.341 63.378 238.673 63.7181 239.09 63.7181L249.711 63.6992V74.2571C249.711 74.6823 250.043 75.0224 250.451 75.0129L258.658 74.909C259.057 74.8996 259.379 74.5594 259.379 74.1437V63.6425L270.008 63.6236C270.397 63.6236 270.72 63.2835 270.72 62.8678V54.393C270.72 53.9679 270.397 53.6372 270.008 53.6278Z" fill="white"/>
<path d="M260.985 16.0502L102.259 11.1112V6.0459L260.985 11.8697V16.0502Z" fill="white"/>
<path d="M289.967 25.8377L218.523 24.0499C217.556 24.0228 217.24 22.4969 218.089 21.9913L254.019 0.47489C254.715 0.0595507 255.546 0.0956672 256.242 0.565181L290.356 23.8964C291.124 24.4291 290.834 25.8557 289.967 25.8377Z" fill="#E8E8E9"/>
<path d="M224.305 21.4132L255.076 2.91259C255.094 2.90356 255.112 2.89453 255.13 2.89453C255.149 2.89453 255.167 2.90356 255.185 2.91259L284.682 23.0295L224.305 21.4132Z" fill="white"/>
<path opacity="0.3" d="M240.504 121.257C237.044 121.185 233.773 120.381 230.72 119.099V152.579L253.694 151.134V116.733C250.153 119.216 246.521 121.383 240.504 121.257Z" fill="white"/>
<path opacity="0.3" d="M269.152 109.925C263.496 110.404 259.837 112.472 256.576 114.702V150.954L278.746 149.554V111.126C276.072 110.133 272.955 109.6 269.152 109.925Z" fill="white"/>
<path opacity="0.3" d="M206.571 99.9301C192.26 82.6483 194.808 70.748 183.948 65.6826V136.083L216.707 134.421V110.729C212.325 106.873 208.874 102.711 206.571 99.9301Z" fill="white"/>
<path opacity="0.3" d="M150.259 69.2223C149.202 68.9333 148.199 68.5812 147.25 68.1749V137.943L181.617 136.2V64.798C170.785 61.6378 164.172 73.0145 150.259 69.2223Z" fill="white"/>
<path opacity="0.3" d="M114.754 35.065C112.965 34.46 110.968 34.0718 108.719 34.0537V139.902L144.802 138.069V66.9648C131.178 59.1908 128.802 39.8504 114.754 35.065Z" fill="white"/>
<path d="M218.27 24.1406H220.312V153.257L218.27 152.408V24.1406Z" fill="#E8E8E9"/>
<path d="M39.4428 19.3009L105.927 10.958V159.433L39.4428 136.409V19.3009Z" fill="#F4F4F4"/>
<g opacity="0.3">
<path d="M58.3699 126.476L41.8821 121.79V29.4225L58.3699 28.041V126.476Z" fill="#A2A7AE"/>
<path d="M78.5799 132.228L59.5895 126.829V27.9419L78.5799 26.3438V132.228Z" fill="#A2A7AE"/>
<path d="M102.096 138.927L79.9983 132.634V26.226L102.096 24.375V138.927Z" fill="#A2A7AE"/>
</g>
<path d="M36.4795 19.5891L102.259 10.9573V6.06348L36.4795 15.4176V19.5891Z" fill="#F4F4F4"/>
<path d="M36.4795 19.6711L39.4428 20.4566L105.972 11.9964L102.259 10.958L36.4795 19.6711Z" fill="#D8DEE8"/>
<path d="M48.8472 140.894C47.6143 140.793 38.9238 140.168 35.2253 133.048C34.8009 132.221 32.7596 128.288 33.952 124.073C35.2051 119.717 38.9036 118.688 38.4994 115.864C38.1356 113.343 35.104 113.464 33.6489 110.197C32.1533 106.889 33.0022 101.665 36.2156 100.052C38.4388 98.9427 41.4703 99.6889 43.3701 101.302C46.6442 104.086 44.5828 107.777 47.2101 112.375C50.2215 117.619 54.6476 115.804 58.0025 120.685C61.9031 126.352 61.1958 136.336 56.0421 139.744C53.7785 141.257 51.232 141.075 48.8472 140.894Z" fill="#17B389"/>
<path opacity="0.2" d="M48.8472 140.894C47.6143 140.793 38.9238 140.168 35.2253 133.048C34.8009 132.221 32.7596 128.288 33.9521 124.073C35.2051 119.717 38.9036 118.688 38.4994 115.864C38.1356 113.343 35.1041 113.464 33.6489 110.197C32.1533 106.889 33.0022 101.665 36.2156 100.052C38.4388 98.9427 41.4703 99.6889 43.3701 101.302C46.6442 104.086 44.5828 107.777 47.2101 112.375C50.2215 117.619 54.6476 115.804 58.0025 120.685C61.9031 126.352 61.1958 136.336 56.0421 139.744C53.7785 141.257 51.232 141.075 48.8472 140.894Z" fill="#181B27"/>
<g opacity="0.5">
<path opacity="0.7" d="M56.8909 141.579C56.8707 141.579 56.8303 141.579 56.8101 141.559C50.5651 136.013 46.6644 129.942 45.2295 123.528C44.7646 121.451 44.6636 119.817 44.5423 118.244C44.4211 116.328 44.2998 114.513 43.5318 112.113C41.7533 106.445 37.6708 101.484 31.4055 97.3895C31.3449 97.3492 31.3449 97.2887 31.3651 97.2282C31.4055 97.1677 31.4662 97.1677 31.5268 97.1878C37.8325 101.322 41.9352 106.324 43.7541 112.032C44.5221 114.472 44.6434 116.288 44.7646 118.224C44.8657 119.797 44.987 121.411 45.4316 123.468C46.8665 129.841 50.7267 135.872 56.9516 141.378C56.992 141.418 56.992 141.479 56.9516 141.539C56.9516 141.579 56.9313 141.579 56.8909 141.579Z" fill="white"/>
<path opacity="0.7" d="M42.8447 109.975C42.8244 109.975 42.8244 109.975 42.8447 109.975C38.6813 109.874 35.7306 108.522 34.0127 107.413C32.1331 106.203 31.2438 105.053 31.2236 104.993C31.1832 104.953 31.2034 104.872 31.2438 104.832C31.2843 104.791 31.3651 104.811 31.4055 104.852C31.446 104.892 35.003 109.531 42.8649 109.753C42.9255 109.753 42.9659 109.813 42.9659 109.874C42.9457 109.934 42.8851 109.975 42.8447 109.975Z" fill="white"/>
<path opacity="0.7" d="M49.0088 132.443C48.9886 132.443 48.9482 132.423 48.928 132.403C48.8876 132.362 48.8876 132.282 48.928 132.241C50.464 130.729 51.6362 128.974 52.384 127.017C54.3646 121.854 52.7276 117.034 51.9394 115.199C51.9192 115.138 51.9394 115.078 52 115.057C52.0606 115.037 52.1213 115.057 52.1415 115.118C52.9499 116.973 54.5869 121.854 52.5861 127.098C51.8181 129.075 50.6459 130.87 49.0695 132.403C49.0695 132.423 49.0493 132.443 49.0088 132.443Z" fill="white"/>
<path opacity="0.7" d="M49.7162 136.597C44.987 136.597 41.1066 135.327 38.2165 132.806C33.4064 128.611 32.9415 122.378 32.9415 122.298C32.9415 122.237 32.9819 122.177 33.0426 122.177C33.1032 122.177 33.1638 122.217 33.1638 122.278C33.1638 122.338 33.6085 128.51 38.3579 132.624C41.6522 135.468 46.1794 136.698 51.8383 136.275C51.8989 136.275 51.9596 136.315 51.9596 136.376C51.9596 136.436 51.9192 136.497 51.8585 136.497C51.1309 136.557 50.4236 136.597 49.7162 136.597Z" fill="white"/>
</g>
<path d="M54.8294 147.448C47.5941 145.814 43.8552 139.905 42.9457 138.473C42.4202 137.646 38.2569 130.829 40.3588 123.145C42.2585 116.247 47.5335 114.855 47.7558 107.695C47.8568 104.488 46.9069 101.766 46.8261 101.524C45.1486 96.8445 42.5617 96.5823 41.4905 92.8309C40.3385 88.8375 42.1575 85.1668 43.3499 82.7667C44.8051 79.8422 46.1187 77.1597 49.1503 76.2925C52.101 75.4454 55.7389 76.595 57.8408 78.7531C61.0745 82.0608 58.2652 85.2676 61.4383 91.1166C63.4391 94.8074 65.0559 94.4242 66.2686 97.8328C67.6025 101.524 66.1271 103.177 66.7132 107.151C67.3195 111.205 69.3608 112.818 71.8062 116.791C74.1304 120.583 79.1022 128.671 77.1418 135.528C75.0399 143.071 64.4294 149.606 54.8294 147.448Z" fill="#17B389"/>
<path opacity="0.1" d="M54.8294 147.448C47.5941 145.814 43.8552 139.905 42.9457 138.473C42.4202 137.646 38.2569 130.829 40.3588 123.145C42.2585 116.247 47.5335 114.855 47.7558 107.695C47.8568 104.488 46.9069 101.766 46.8261 101.524C45.1486 96.8445 42.5617 96.5823 41.4905 92.8309C40.3385 88.8375 42.1575 85.1668 43.3499 82.7667C44.8051 79.8422 46.1187 77.1597 49.1503 76.2925C52.101 75.4454 55.7389 76.595 57.8408 78.7531C61.0745 82.0608 58.2652 85.2676 61.4383 91.1166C63.4391 94.8074 65.0559 94.4242 66.2686 97.8328C67.6025 101.524 66.1271 103.177 66.7132 107.151C67.3195 111.205 69.3608 112.818 71.8062 116.791C74.1304 120.583 79.1022 128.671 77.1418 135.528C75.0399 143.071 64.4294 149.606 54.8294 147.448Z" fill="#181B27"/>
<path opacity="0.7" d="M61.6606 150.715C61.6202 150.715 61.6 150.695 61.5797 150.675C54.2636 141.76 51.5149 134.056 53.3541 127.763C54.1019 125.242 55.456 123.225 56.7899 121.289C58.7907 118.344 60.6905 115.561 60.3873 111.204C60.1246 107.453 58.2248 103.883 57.093 101.745C56.2644 100.192 55.5974 98.962 55.0113 97.8729C53.4956 95.0694 52.6467 93.5164 51.7979 91.5197C49.5949 86.3767 49.9991 80.0639 52.9499 72.7829C52.9701 72.7224 53.0307 72.7022 53.0914 72.7224C53.152 72.7426 53.1722 72.8031 53.152 72.8636C50.2013 80.1042 49.8173 86.3565 52 91.4391C52.8488 93.4358 53.6775 94.9686 55.1932 97.7721C55.7793 98.8612 56.4665 100.112 57.2749 101.644C58.4269 103.782 60.3267 107.393 60.5894 111.184C60.8926 115.601 58.9726 118.425 56.9515 121.41C55.6379 123.326 54.2838 125.323 53.5562 127.824C51.717 134.036 54.4657 141.68 61.7414 150.534C61.7818 150.574 61.7819 150.655 61.7212 150.695C61.7212 150.695 61.701 150.715 61.6606 150.715Z" fill="white"/>
<path opacity="0.7" d="M52.9095 94.3633H52.8892C49.1907 93.6775 44.32 92.0842 41.9958 88.4135C40.6013 86.2151 40.8034 84.3192 40.8236 84.2385C40.8236 84.178 40.8842 84.1377 40.9449 84.1377C41.0055 84.1377 41.0459 84.1982 41.0459 84.2587C41.0459 84.2789 40.8438 86.1546 42.1979 88.2925C44.4817 91.8825 49.2918 93.4557 52.9297 94.1212C52.9903 94.1414 53.0307 94.1818 53.0105 94.2423C53.0105 94.3229 52.9499 94.3633 52.9095 94.3633Z" fill="white"/>
<path opacity="0.7" d="M58.7907 105.013C58.7503 105.013 58.6896 104.972 58.6896 104.932C58.6694 104.871 58.7099 104.811 58.7705 104.791C60.3065 104.367 61.4989 103.46 62.2669 102.088C64.5911 97.9535 62.6105 90.8944 62.5903 90.8339C62.5701 90.7734 62.6105 90.7129 62.6711 90.6927C62.7317 90.6726 62.7924 90.7129 62.8126 90.7734C62.8328 90.8541 64.8538 97.9939 62.469 102.189C61.6606 103.621 60.448 104.569 58.8311 104.992C58.8109 105.013 58.7907 105.013 58.7907 105.013Z" fill="white"/>
<path opacity="0.7" d="M54.1221 126.129C54.1019 126.129 54.0817 126.129 54.0614 126.109C48.5238 122.499 46.624 118.264 45.9975 115.359C45.3305 112.193 45.9773 109.853 45.9975 109.833C46.0177 109.772 46.0783 109.732 46.1389 109.752C46.1996 109.772 46.24 109.833 46.2198 109.894C46.2198 109.914 45.5731 112.213 46.24 115.319C46.8463 118.183 48.7259 122.358 54.2029 125.928C54.2636 125.968 54.2636 126.029 54.2433 126.089C54.2029 126.109 54.1625 126.129 54.1221 126.129Z" fill="white"/>
<path opacity="0.7" d="M55.7389 141.902C55.6783 141.902 55.6379 141.861 55.6379 141.801C55.6379 141.74 55.6783 141.68 55.7389 141.68C59.4576 141.579 62.7317 140.349 65.4601 137.969C67.6429 136.073 69.5022 133.451 70.9776 130.183C73.4837 124.597 73.989 119.01 73.989 118.949C73.989 118.889 74.0496 118.849 74.1102 118.849C74.1709 118.849 74.2113 118.909 74.2113 118.97C74.2113 119.03 73.6858 124.657 71.1797 130.284C68.8353 135.448 64.2677 141.7 55.7389 141.902Z" fill="white"/>
<path d="M89.7127 154.023C95.0483 149.485 93.3304 136.9 90.0159 129.397C87.8736 124.576 85.8323 123.528 85.2058 118.869C84.357 112.415 87.7725 110.579 87.1258 103.863C86.5397 97.7318 83.6092 97.7318 82.6189 91.419C81.4669 83.9969 85.4079 82.2422 84.9835 75.1024C84.5186 67.0752 78.8395 57.5152 72.4732 57.4749C68.1886 57.4346 63.8837 61.7305 62.368 66.1676C60.0236 73.025 65.6623 76.2117 64.7326 85.1465C64.5305 87.0423 64.1465 88.4743 63.621 89.6643C62.085 93.2543 60.3469 95.4124 59.296 96.8444C55.3954 102.068 55.3954 108.724 55.3954 111.265C55.3954 117.981 58.3865 118.465 60.1044 127.239C61.8829 136.274 59.1343 137.969 60.9937 142.769C64.9347 153.014 83.0231 159.71 89.7127 154.023Z" fill="#17B389"/>
<path opacity="0.7" d="M86.3174 159.126C86.2972 159.126 86.277 159.126 86.2567 159.106C78.4959 152.914 74.1911 146.339 73.5039 139.603C73.1604 136.234 73.706 133.854 74.2921 131.354C74.9389 128.59 75.6058 125.726 75.1814 121.209C74.7368 116.63 73.322 114.513 71.9679 112.496C70.6947 110.6 69.3608 108.623 68.9364 104.67C68.3099 98.8415 69.6842 95.0296 71.1595 90.9958C72.3519 87.7083 73.5848 84.2998 73.8677 79.4996C74.3528 71.5127 71.5031 63.0822 65.3591 54.4499C65.3187 54.4096 65.3389 54.3289 65.3793 54.2886C65.4198 54.2483 65.5006 54.2684 65.541 54.3088C71.7052 62.9813 74.5751 71.4522 74.09 79.4996C73.8071 84.3199 72.554 87.7486 71.3616 91.0563C69.9065 95.0699 68.5322 98.8616 69.1587 104.63C69.5831 108.543 70.8362 110.398 72.1498 112.355C73.5242 114.412 74.9591 116.529 75.4037 121.188C75.8281 125.726 75.1612 128.611 74.5145 131.394C73.9284 133.895 73.3827 136.255 73.7263 139.582C74.4134 146.258 78.6778 152.773 86.3982 158.944C86.4386 158.985 86.4589 159.045 86.4184 159.106C86.378 159.106 86.3376 159.126 86.3174 159.126Z" fill="white"/>
<path opacity="0.7" d="M73.9688 79.6005C73.9486 79.6005 73.9486 79.6005 73.9284 79.6005C67.7642 77.0995 64.4699 72.5817 62.7924 69.2539C60.9734 65.6235 60.6097 62.5578 60.5894 62.5175C60.5894 62.457 60.6299 62.3965 60.6905 62.3965C60.7511 62.3965 60.8118 62.4368 60.8118 62.4973C60.8118 62.5377 61.1756 65.563 62.9945 69.153C64.6518 72.4607 67.9258 76.918 74.0294 79.3988C74.09 79.4189 74.1102 79.4795 74.09 79.54C74.0496 79.5803 74.0092 79.6005 73.9688 79.6005Z" fill="white"/>
<path opacity="0.7" d="M69.8863 107.877C69.8256 107.877 69.7852 107.837 69.7852 107.797C69.765 107.736 69.8054 107.676 69.8661 107.676C73.5646 106.95 78.7789 104.308 82.5986 95.7761C84.9026 90.6734 85.61 85.8127 85.61 85.7522C85.61 85.6917 85.6706 85.6514 85.7313 85.6514C85.7919 85.6514 85.8323 85.7119 85.8323 85.7724C85.8323 85.8127 85.1047 90.7137 82.8008 95.8366C80.6584 100.596 76.6972 106.526 69.9065 107.857C69.9065 107.877 69.9065 107.877 69.8863 107.877Z" fill="white"/>
<path opacity="0.7" d="M75.4239 125.666H75.4037C65.1772 123.629 60.064 117.175 57.5579 112.092C54.8497 106.606 54.5465 101.524 54.5465 101.483C54.5465 101.423 54.5869 101.362 54.6476 101.362C54.7082 101.362 54.7688 101.403 54.7688 101.463C54.7688 101.503 55.072 106.546 57.76 111.991C60.2459 117.013 65.3187 123.427 75.4442 125.424C75.5048 125.444 75.5452 125.484 75.525 125.545C75.525 125.625 75.4846 125.666 75.4239 125.666Z" fill="white"/>
<path opacity="0.7" d="M76.6164 148.517C76.5557 148.517 76.5153 148.476 76.5153 148.436C76.4951 148.376 76.5355 148.315 76.5961 148.315C80.8403 147.488 86.4386 144.584 89.0458 135.367C90.602 129.84 90.3393 124.576 90.3393 124.536C90.3393 124.476 90.3797 124.415 90.4403 124.415C90.5009 124.415 90.5616 124.455 90.5616 124.516C90.5616 124.576 90.8445 129.861 89.2681 135.427C87.8129 140.57 84.458 147.044 76.6568 148.537C76.6366 148.517 76.6366 148.517 76.6164 148.517Z" fill="white"/>
<path d="M96.5598 82.1029C101.641 80.676 109.088 79.0055 118.207 78.4834C131.205 77.7526 137.713 77.3872 142.324 80.4845C152.956 87.6364 144.726 104.15 149.076 145.06C150.921 162.443 151.756 161.33 147.597 167.507C139.123 180.088 115.318 181.115 104.408 170.204C98.6479 164.444 97.8996 164.114 97.7604 157.536C97.1862 131.591 96.786 107.091 96.5598 82.1029Z" fill="#35A7FF"/>
<path d="M184.243 136.063C184.939 133.505 179.006 132.653 174.412 125.675C167.869 115.774 174.238 109.022 168.391 97.6071C163.675 88.4194 155.358 83.8951 152.626 82.4856C145.874 79.0054 139.592 78.379 136.043 78.292C132.823 86.2443 128.786 98.2161 126.872 113.216C125.15 126.736 125.95 135.698 126.872 154.282C127.464 166.028 128.056 183.029 127.864 203.997C131.449 205.145 134.372 205.406 136.338 205.459C143.299 205.615 145.613 203.092 152.73 203.788C155.828 204.084 156.611 204.693 157.637 203.997C160.543 202.065 158.368 194.861 156.906 187.066C154.644 174.989 157.115 177.478 154.905 157.936C153.078 141.736 150.555 132.635 152.904 131.713C154.157 131.208 155.393 133.627 158.734 135.907C168.147 142.293 183.182 139.979 184.243 136.063Z" fill="white"/>
<path opacity="0.3" d="M145.822 160.094C145.909 147.896 152.417 146.173 151.756 135.68C151.094 125.118 144.36 124.526 144.586 115.443C144.865 104.393 154.94 100.896 154.557 90.8379C154.418 87.4447 153.13 84.4692 151.46 81.9286C145.161 78.9531 139.384 78.3614 136.043 78.2744C132.823 86.2267 128.786 98.1986 126.872 113.198C125.15 126.719 125.95 135.68 126.872 154.265C127.464 166.01 128.056 183.011 127.864 203.979C131.449 205.128 134.372 205.389 136.338 205.441C143.299 205.598 145.613 203.074 152.73 203.77C155.828 204.066 156.611 204.675 157.637 203.979C160.178 202.291 158.838 196.584 157.481 189.954C155.34 187.187 153.148 184.542 150.799 179.583C149.041 175.842 145.752 168.864 145.822 160.094Z" fill="#35A7FF"/>
<path d="M120.504 115.478C122.087 121.516 121.948 126.336 121.774 130.773C120.834 155.239 120.364 167.541 119.947 171.022C117.963 187.935 116.554 186.874 117.041 193.747C117.302 197.419 117.893 200.568 115.892 202.883C113.491 205.65 110.046 204.153 101.554 205.249C93.7409 206.259 93.5321 207.929 85.11 208.938C81.682 209.356 72.3202 210.47 71.3458 207.807C70.8237 206.38 72.7553 204.049 74.6172 202.883C77.6623 201.003 80.2377 202.413 81.2643 200.916C82.4476 199.194 79.2632 197.001 79.1588 192.86C79.0544 188.736 82.117 187.396 84.0311 182.35C85.806 177.634 85.0926 173.632 84.8142 170.795C83.5961 158.127 89.1644 148.104 90.2781 131.312C92.0008 105.176 80.8119 93.6915 88.3988 85.3042C92.5054 80.7625 99.2744 80.2927 103.503 80.3971C107.888 89.55 111.681 96.754 114.361 101.696C117.232 107.038 119.129 110.292 120.504 115.478Z" fill="white"/>
<path d="M137.522 108.744C136.895 106.603 134.929 104.533 135.695 102.01C136.147 100.513 137.348 99.556 138.27 98.9644C144.326 97.6071 148.415 91.9344 147.806 85.9832C147.562 83.5993 146.588 81.3894 145.091 79.5971C141.385 78.6052 138.2 78.3442 136.025 78.292C132.806 86.2443 128.769 98.2161 126.855 113.216C126.037 119.602 125.794 124.962 125.846 130.808C126.89 127.45 128.369 124.944 129.935 123.047C132.615 119.811 139.053 113.981 137.522 108.744Z" fill="white"/>
<g opacity="0.64">
<path opacity="0.3" d="M120.504 115.478C119.129 110.292 117.232 107.038 114.344 101.696C111.664 96.7542 107.888 89.5502 103.485 80.3973C102.459 80.3799 101.293 80.3799 100.04 80.4843C93.3581 89.7242 92.923 94.8749 94.4891 97.9375C96.003 100.93 99.17 101.505 99.5876 104.724C100.231 109.77 92.9056 111.493 91.0959 118.297C89.5298 124.248 93.2014 130.182 96.6643 135.785C102.546 145.303 107.94 146.469 107.731 151.567C107.522 156.875 101.641 156.962 99.2396 163.452C95.481 173.614 107.157 180.94 103.659 189.937C100.945 196.914 92.749 195.575 87.7027 204.536C86.9023 205.963 86.3281 207.407 85.9104 208.817C93.5495 207.79 94.0193 206.207 101.554 205.232C110.046 204.136 113.491 205.632 115.892 202.866C117.911 200.551 117.302 197.402 117.041 193.73C116.554 186.857 117.963 187.918 119.947 171.004C120.364 167.524 120.834 155.222 121.774 130.756C121.948 126.336 122.087 121.533 120.504 115.478Z" fill="#35A7FF"/>
</g>
<path d="M102.65 101.366C106.095 104.429 108.601 105.473 109.019 108.396C109.489 111.615 106.809 112.694 107.261 115.826C107.836 119.742 112.273 119.759 114.57 124.771C116.066 128.059 114.761 129.347 115.666 133.61C116.223 136.203 117.58 139.805 121.269 143.807C121.426 139.909 121.582 135.594 121.774 130.774C121.948 126.337 122.087 121.517 120.504 115.478C119.129 110.293 117.232 107.039 114.344 101.697C111.664 96.755 107.888 89.5509 103.485 80.398C101.014 80.3458 97.656 80.485 94.489 81.5291C93.3927 83.5302 93.2187 85.1137 93.1839 85.9663C92.9403 92.7353 100.353 99.3129 102.65 101.366Z" fill="white"/>
<path d="M91.3047 89.9853C89.0251 90.1246 96.7338 80.5888 93.0796 82.0157C78.3409 87.7754 64.7159 106.482 67.7785 123.674C68.2831 126.545 70.3713 138.291 80.342 143.998C89.4776 149.236 101.832 147.879 111.716 140.466C113.073 139.265 114.413 138.064 115.77 136.864C117.093 135.419 118.433 133.993 119.755 132.548C117.667 130.808 114.117 128.302 109.123 126.684C102.65 124.596 98.0215 128.111 94.6979 125.466C92.1051 123.413 91.9659 119.445 92.0703 116C92.4531 103.297 87.8767 99.5385 91.3047 89.9853Z" fill="white"/>
<path d="M166.894 138.621L108.984 137.769L124.384 145.199L167.051 142.397L166.894 138.621Z" fill="#181B27"/>
<path d="M106.948 139.3C106.948 140.379 107.627 141.353 108.653 141.718L127.151 148.975L127.238 143.946L109.001 137.751C107.957 137.473 106.948 138.238 106.948 139.3Z" fill="#181B27"/>
<path opacity="0.15" d="M106.948 139.3C106.948 140.379 107.627 141.353 108.653 141.718L127.151 148.975L127.238 143.946L109.001 137.751C107.957 137.473 106.948 138.238 106.948 139.3Z" fill="white"/>
<path d="M115.858 135.872C115.51 135.785 117.598 131.626 119.233 132.113C120.869 132.6 128.891 137.229 129.604 139.143C130.335 141.057 130.335 141.057 130.335 141.057C130.335 141.057 126.838 141.335 124.68 140.605C122.505 139.891 118.746 136.515 115.858 135.872Z" fill="#FFC980"/>
<path d="M128.769 108.657L124.68 145.826C124.541 147.113 126.333 149.027 127.621 148.958L187.497 145.286C188.489 145.234 189.307 144.52 189.464 143.546L196.981 107.648C197.207 106.343 194.858 104.985 193.536 105.038L130.788 106.795C129.743 106.83 128.873 107.63 128.769 108.657Z" fill="#2F313D"/>
<path opacity="0.1" d="M128.769 108.657L124.68 145.826C124.541 147.113 126.333 149.027 127.621 148.958L187.497 145.286C188.489 145.234 189.307 144.52 189.464 143.546L196.981 107.648C197.207 106.343 194.858 104.985 193.536 105.038L130.788 106.795C129.743 106.83 128.873 107.63 128.769 108.657Z" fill="#181B27"/>
<path d="M130.126 109.753L126.037 146.922C125.898 148.209 126.942 149.305 128.23 149.253L188.872 146.382C189.864 146.33 190.682 145.616 190.838 144.642L197.033 108.587C197.259 107.282 196.233 106.099 194.91 106.134L132.162 107.891C131.118 107.908 130.248 108.709 130.126 109.753Z" fill="#2F313D"/>
<path opacity="0.15" d="M165.746 137.664C160.456 135.42 162.318 131.139 156.071 125.814C147.823 118.784 139.418 121.83 136.478 116.383C135.555 114.678 135.12 112.05 136.721 107.77L132.18 107.891C131.136 107.926 130.265 108.727 130.144 109.753L126.054 146.922C125.915 148.209 126.959 149.306 128.247 149.254L188.889 146.382C189.881 146.33 190.699 145.617 190.856 144.642L191.708 139.666C189.864 138.639 187.671 137.717 185.096 137.195C176.204 135.368 171.836 140.24 165.746 137.664Z" fill="white"/>
<path d="M192.7 141.179C192.805 140.883 192.596 140.57 192.283 140.553C190.995 140.483 188.037 140.466 186.384 141.457C184.243 142.763 181.494 145.146 183.808 146.347L185.983 147.478C186.088 147.53 186.192 147.548 186.297 147.53C187.062 147.356 190.316 146.643 190.664 146.469C190.978 146.295 192.213 142.623 192.7 141.179Z" fill="#FFC980"/>
<path d="M119.164 64.2842C119.198 68.1472 118.763 71.1924 118.363 73.2979C117.893 75.6992 117.563 76.3083 117.128 76.8129C116.484 77.5611 115.509 78.205 109.976 79.5797C106.966 80.3279 106.583 80.3105 106.513 80.6063C106.182 82.068 114.378 87.0273 122.853 85.8266C128.038 85.0958 132.754 82.1376 132.458 80.5889C132.162 79.0228 126.994 79.8581 125.445 77.0391C124.367 75.0728 125.567 72.2886 126.994 69.9743C125.637 67.3641 120.538 66.8595 119.164 64.2842Z" fill="#FFC980"/>
<path d="M128.786 65.7981C130.004 64.1798 130.091 61.3434 128.682 59.5511C127.464 58.0025 125.567 57.7936 124.419 57.6544C121.113 57.2716 116.936 58.6463 115.475 61.7088C114.622 63.5186 116.484 67.2598 116.762 67.9384C117.093 68.7041 117.685 68.9651 118.241 69.5393C119.007 70.3397 120.208 71.61 122.174 73.733C122.331 73.1065 122.557 72.3235 122.922 71.4882C123.061 71.1576 123.636 69.9047 124.488 68.8433C126.228 66.7377 127.62 67.3468 128.786 65.7981Z" fill="#2F313D"/>
<path d="M119.373 71.9407C119.373 71.9407 121.548 75.5079 125.88 75.2295C129.761 74.9685 130.335 66.268 127.847 64.4235C127.012 63.8145 125.358 63.5534 124.019 63.9363C123.218 64.1625 122.957 64.4931 121.652 64.8237C120.451 65.1369 120.103 64.9977 119.738 65.3109C119.286 65.6938 118.955 66.6334 119.703 69.1739C118.955 68.4257 118.067 68.1299 117.441 68.4257C117.337 68.4779 117.076 68.6519 116.919 68.9303C116.397 69.9396 117.302 71.2099 119.373 71.9407Z" fill="#FFC980"/>
<path d="M119.564 64.7891C119.755 64.9283 119.181 65.6244 119.129 66.6162C119.042 68.5304 120.991 70.8447 122.975 71.0361C124.14 71.1579 124.471 70.4445 126.403 70.2356C127.603 70.1138 128.595 70.253 129.222 70.3923C129.831 72.4978 129.256 74.5859 127.847 75.5604C126.333 76.6044 124.401 75.978 123.584 75.6996C123.044 75.5256 121.304 74.9513 120.399 73.3678C119.46 71.7147 120.382 70.7055 119.303 69.5918C118.764 69.035 118.033 68.774 117.337 67.6951C117.145 67.3993 117.023 67.1383 116.936 66.9643C117.981 65.9202 119.303 64.5977 119.564 64.7891Z" fill="#2F313D"/>
<path d="M127.829 71.1922C127.829 71.1922 126.994 71.6272 125.55 71.5402C125.48 71.5402 125.393 71.5576 125.393 71.5924C125.359 71.7317 126.281 72.3407 127.151 72.0971C127.76 71.9231 128.23 71.3488 128.143 71.2096C128.108 71.1574 127.969 71.1574 127.829 71.1922Z" fill="#FFC980"/>
</svg>
